<mxfile host="app.diagrams.net" agent="Mozilla/5.0 (Windows NT 10.0; Win64; x64) AppleWebKit/537.36 (KHTML, like Gecko) Chrome/130.0.0.0 Safari/537.36" version="24.8.1">
  <diagram id="C5RBs43oDa-KdzZeNtuy" name="Page-1">
    <mxGraphModel dx="1235" dy="655" grid="0" gridSize="10" guides="1" tooltips="1" connect="1" arrows="1" fold="1" page="1" pageScale="1" pageWidth="827" pageHeight="1169" math="0" shadow="0">
      <root>
        <mxCell id="WIyWlLk6GJQsqaUBKTNV-0" />
        <mxCell id="WIyWlLk6GJQsqaUBKTNV-1" parent="WIyWlLk6GJQsqaUBKTNV-0" />
        <mxCell id="EDwAw3rbuMBAc9x-66SU-1" value="" style="ellipse;whiteSpace=wrap;html=1;aspect=fixed;fillColor=#030303;" parent="WIyWlLk6GJQsqaUBKTNV-1" vertex="1">
          <mxGeometry x="316.01" y="12" width="30" height="30" as="geometry" />
        </mxCell>
        <mxCell id="EDwAw3rbuMBAc9x-66SU-20" value="" style="ellipse;whiteSpace=wrap;html=1;aspect=fixed;fillColor=#ffffff;" parent="WIyWlLk6GJQsqaUBKTNV-1" vertex="1">
          <mxGeometry x="581.24" y="705" width="40" height="40" as="geometry" />
        </mxCell>
        <mxCell id="EDwAw3rbuMBAc9x-66SU-22" value="" style="ellipse;whiteSpace=wrap;html=1;aspect=fixed;fillColor=#030303;" parent="WIyWlLk6GJQsqaUBKTNV-1" vertex="1">
          <mxGeometry x="586.24" y="710" width="30" height="30" as="geometry" />
        </mxCell>
        <mxCell id="ui-QZUOksp0xXdlFiPpI-1" value="" style="endArrow=classic;html=1;rounded=0;exitX=0.5;exitY=1;exitDx=0;exitDy=0;entryX=0.5;entryY=0;entryDx=0;entryDy=0;" parent="WIyWlLk6GJQsqaUBKTNV-1" source="EDwAw3rbuMBAc9x-66SU-1" target="OF0bnibXMQKsjCnrB5dy-0" edge="1">
          <mxGeometry width="50" height="50" relative="1" as="geometry">
            <mxPoint x="330.77" y="53" as="sourcePoint" />
            <mxPoint x="396.24" y="62" as="targetPoint" />
          </mxGeometry>
        </mxCell>
        <mxCell id="ui-QZUOksp0xXdlFiPpI-6" value="" style="endArrow=classic;html=1;rounded=0;entryX=0.5;entryY=0;entryDx=0;entryDy=0;" parent="WIyWlLk6GJQsqaUBKTNV-1" source="OF0bnibXMQKsjCnrB5dy-0" edge="1">
          <mxGeometry width="50" height="50" relative="1" as="geometry">
            <mxPoint x="328.68020408163255" y="268" as="sourcePoint" />
            <mxPoint x="331.0150000000001" y="305" as="targetPoint" />
          </mxGeometry>
        </mxCell>
        <mxCell id="OF0bnibXMQKsjCnrB5dy-0" value="" style="shape=image;verticalLabelPosition=bottom;labelBackgroundColor=default;verticalAlign=top;aspect=fixed;imageAspect=0;image=data:image/png,iVBORw0KGgoAAAANSUhEUgAAAWAAAAJuCAYAAACOg9ihAAAAAXNSR0IArs4c6QAAAARnQU1BAACxjwv8YQUAAAAJcEhZcwAAEnQAABJ0Ad5mH3gAADNVSURBVHhe7d0JlBTVvcfxPzPAwDAw7DuyCCoMqyBqRONBosanxv24+yQ+44IiSCLmqU/JiZocA2iMcYeXp4kx7ibiUZ/4Hri9KIvsm4AiiwPCsMjOvP7fuTVTU9Mz08P01K2e+n7OqdN1q5uhZ7r617f/detWg+IEAQCELsveAgBCRgADgCMEMAA4QgADgCMEMAA4QgADgCMEMAA4QgADgCMEMAA4QgADgCP1+lTkvXv3SlW/nt7XoEED2wLg2r59++TQoUNmPSsrSxo3bixNmjQx7foo4wN45cqV8tprr8ny5ctl48aNpcu6devsIyrXrl07KSwstC0ArhUUFMiiRYtsq0zHjh1Ll969e8tZZ50lp556asaHc8YF8I4dO+SDDz4oXebOnWvvqbk2bdrIli1bbAuAaxqq+r5ORdeuXeWUU06RESNGmNt+/frZezJHxgTwgQMH5PHHH5dnn31W5s2bZ7fWTt++fWXJkiW2BcC1Hj16yJo1a2wrdRrGl112mVkGDx5st0ZfRgTw0qVLZfTo0fLJJ5/YLdXT2pHWk1q1aiXNmjWzW8sbOXKkvPPOO7ZVvd27d0tRUZFtIZmcnBxT2qnMhg0b5ODBg7YFlHfaaafJf//3f9tWzbVs2VJ++ctfypgxYzKiPBHpAF61apU89dRT8sQTT6QUfMccc4z59Dv22GNL1/WTsa7s379f9uzZY4JZb70llbYeIAxuq0mbEEN9dPbZZ8vf//532zp8+r7/7W9/K5deeqndEk2RDWA9uHb11VdX2evNy8uT8847z/RkzzzzTFOgj4PNmzfLzp07bUvMAUct0Si99R+A1Mf569y6XpN/q/9XHLRt29bsT6moq8fq/qvfIOKsc+fOsn79etsqs3btWlOa8JZUNGrUSCZMmCC33367tG7d2m6NlkgG8Pvvv2/+cJXVerVQryWJiy66qF4PUYmamgR/TejXRl1SUVePRWbRsuRLL70kf/rTn0xnrSqaFRrCeswnaiIXwAsXLpSxY8fKzJkz7ZYyGrha38mkIjuAuqWjJjSIn3vuudIOQVD//v3ljTfeMAf5oiRSAfztt9/K+PHj5c9//rPdUkLrOY899pipDwFAMjNmzDAjpd588027pTwt8cyZMydSpcrsexPsunP33XefOeDmd9JJJ8m7775rDqwBQGX69OljxgPn5uaakzn0wLWfls+++uorOf744yU/P99udSsyPWD9+qAH3fx0YLUehEv1IAYAqPfee0/OPfdcM2Io6MorrzQliyiIzGQ8WmLwGzp0qEyfPp3wBVBjo0aNkilTppjzAIK0s/fggw/alluRCOCHH364wnCzm2++WYYNG2ZbAFAzP/vZz+SOO+4wk/oE3XPPPTJ79mzbcsd5AC9btqzC1wE9G+biiy+2LQA4PL/4xS/k1ltvta0yOlri0UcfNSdTueQ8gGfNmlVhQp0LL7yw0tOHAaAm9Iw4nUEt6MUXX5TXX3/dttxwGsD6KaR/HD8dOB/10wcBZI6GDRvKnXfeaVvl6VQHOvzVFacBPHXq1Apnsdxwww2cvQQgrXSElY5+CNIhrs8//7xthc9ZAOuk6a+++qptldDTinXoCACkU3Z2tjnwpr3hIL2ggyvOAljnefj4449tq4TO8XDCCSfYFgCkj9aBdfKuID0Ola45xmvKWQDredlBP/zhD+0aAKTf5ZdfbtfKq8m84OnkJIB1Vq1kky6fccYZdg0A0m/IkCFy9NFH21aZDz/80K6Fy0kAf/TRR7JixQrbKjFgwABmOQNQp7p37y4/+tGPbKuMBrCekxA2JwEcrP2qZJ9KAJBuyY4zfffddzJ//nzbCo+TANZLDQXpJYQAoK7p3MDJaAiHLTIBTA8YQBgKCgqSdvgKCwvtWnicBPCmTZvsWhkCOHPopYe2bdtmWwjSKRD1umX8jaJJxwQn6wW7CODQ5wPWERCdOnWqcFVfvRBffb2opr4hP/vsM3PqtR5ojOqZfno5KB0PqeGhE1d7IeJdCy5dF+iszbXawvi3lf2uyS4G6f1tqqOXwvH+fx2PesQRR5hb7YlpGCQ7QQB156GHHjIT9fhdcskl8sILL9hWSDSAw7RgwYLiBg0alFuaNm1avHv3bvuI+mPFihXFV111VXHz5s3L/b7jxo0r3r9/v32UO/r8fvWrXxX/6Ec/qvAcWcJb9G9/8sknF997773FX3/9tX11UJemTJlS4XUYOXKkvTc8oQfw3LlzK/ziiZ6vvbf++Nvf/lZlqP34xz929qHz5ptvFg8YMCDp82Jxv+i+sXr1avtqoS5Mmzatwt990KBB9t7whF6C0K+4weu7af13yZIltpX5EuErN954Y7VHVRM7gVxzzTW2Vfe0BHLTTTfJ008/bbckpxdB1a/Muhx55JFmm46f9KRyZdlkX9dTtXbtWrtWc7X5t8m0bdu2wtSoOTk5Sctl+nfzlxKCpQyd/0RLOzoBlf59qrqcupYqdLpEvbID0k/nf7jgggtsq4SeixD6UDQTwyFK1gPu2bOnvbd+uOyyy0p/t0aNGpmSg37d115Nnz59Su8755xz7L8Ixx//+MfS/9tbOnXqVHzttdcWP/XUU+a1qY+loKjSv/XHH39svg7rvqClOP9ro99SUDdmzpxZ7m+ty8CBA+294YlEALvo+tclf8hqXc/vlltuKb3vuOOOs1vDkeiVl/7f7dq1K54xY0YkatEoNq/DX/7yl+JWrVqVvka6FBYW2kcgnbQz5P876+IigJ0MQws6dOiQXasf/F8tva/wHv/QJC0JhOmoo46yayXPQ78ec/TdDR3K9/bbb5uLQ+pX4fbt25uJYvz7h84OqCUQpF9RUZFdK5PIQ7sWnkjUgPv27Wuu419f5Obmll4OW6/4MWHCBLOuw7yGDx9eet91110nTz75pFkPw9KlSyXxKV8u+LVuqadm6pAorW0ifXbt2lWhBuzVfqv78NWhaVoD5gzRuvHFF19UmHtG/+a6PVQawGFKVoJI7GT23vpBh555v5vWgHWI0Yknnljud9ZFRyOETYedBZ8HS3SWbt26Fd99993FO3bssK8Y6sL8+fMr/O0TAWzvDQ8liDqglz/xaE9HL38dvOz+RRddJGeffbZtheeuu+4yve76etJLptGrwIwYMUImTpxo5qTVURKTJk2SvLw8+wjUhUTg2jW3IlGC0DppcHrKTKeXvNYzbbxyg9+YMWPk/vvvd/om0+elNUgti+jXLr1N9lyT0edNbbJmvDPh8vPzzZA+bXvD/ajDh0/3dy3H+ekcEQsWLLCtcEQigHUn/PLLL22r/tD6n4431F6Nrvfr18+M66SuB7ilx5x03K+fvj81mMMUiQDW8+JrM3AfAGpi8eLFFSbkcRHA1IABwJFIBHBwZjQAqEvJDsKFXAww6AEDiJ2ojIIggAHEDgHsQwkCgGuUIAAgBPSAfQhgAGHiIJwPJQgAYaIH7EMPGECYCGAfAhiAa5QgACAE9IB9tAfs4tMHQDwRwD4awJQhAISFURABBDCAsNADDqAODCBu6AEDiB16wAEEMICwEMABlCAAhIWDcAH0gAHEDQEMIHYoQQRQggAQFkoQAVX1gN9++215/PHHZdu2bXYLABw+esABlQXw008/LWeddZbcdNNNMmnSJLsVAA5fVHrADRL/aaj/67x58+TYY4+1rTJr166Vbt262VaZ8ePHy9SpU8364MGDZc6cOWY9HXbu3CmbN2+2LQCuNWrUSPbv329btdOkSRPp2LGjbZW3ceNG6dy5s22V6NWrl6xcudK2whGZAF69erV0797dtko899xzcuONN8quXbvslvTq06ePrFixwrYAuKahuH79etuqvQkTJshvf/tb2yqzadMm6dSpk22VcBHAkS5BTJ48uc7CF0D9pyXMZDgIF5BsFMSoUaPsWt3YunWrXQMQBel+Tw4bNsyulcdBuIBkPWD96nDFFVfYVvrl5ubaNQBRkO735NChQ+1aeQRwQGWjINq1a2fX0m/Dhg12DUAUuCw5uihBROYg3MKFC6Vfv362VcY/CsKvRYsWtQ7nhg0byoEDB2wLgGtaiszOzratmtGRDcEAHz16dNI68JYtWyrkR48ePeTLL7+0rXBEJoDnz58vAwYMsK0ylQXwNddcI2PGjLEtAHH385//XD744APbKnHHHXfIAw88YFtlvvvuO2nbtq1tldBRWDoaK0yRL0EAiJ6WLVuaHmNwKFemiG0NeN++fXatvJrOBcEIBsRdVlaWWdKtqp+pB8mOPPJI6dmzp7Rp08aM2+3bt6+0bt3aPsKd77//3q5VL1kAuyhHhh7AjRs3tmvl1bQH3KpVK7sGxIOeJdahQwcTfnq8ZMiQIWYpKCgwJxHofZW9v1Kl76suXbrYVkXa69U6q56wsHz5crNo7VXPYk3t/86Spm26SPfEz+naNjetAVTbERR6TChsoQdwZShBAMlpb619+/YmaPXg8549e8zZYgsWLDDHTtatW2dCMS8vzzxGT7+t6Vds78CX9n4rOwimAdu0aVMTuPn5+aYHrMuOHTtk9+7dkpOTYx9ZXpMufWXwwD7SRhpKm94F0rd7e2mdCPr23fvKoIIjpKl9XKmsHGnWvImUfxZZktvxSOlb0E+O6d1F8g/vOF3kEMBAhGno6Vd8PWKvR+j11HkdPqkzA2o5T782FxUVmVNrV61aJcuWLTP1We0h16RHmOwAeFW0p+wFsB7HTx7aidDs0Et6tW0q2VnZ0jCnvbTPayA71s6XuXPnyoqi/YkPimxpZB+tGuR2kp5dm8meXQ2kTa8+0r2lRlQDye16tBzVKVcO7d4jxU3aSc+jOpf7d5kqMgHMfMBARdqT1QmjFi9eLNu3b7dbK6d10KVLl5qQrq4+7A/Nwx36VaXsfOnUtpk02LtH9ulYq8TvUtovb9hGOuZ6X/kbSMNGDRNh1FS69WgtDYq+k4OHdsu3hYekeZeu0jS7tXRtnSN7v10myxIfQssWzpN5S9ZLeqbscYseMBBhe/fulW+//bb0JAENVS1H6IEw7bUOGjRIevfubUYj+ENUh1npbH9V0Vqyli3qzMGtsmrRAlm0pkgO6tPfs0WK9mZJ8+6DZMjAHtKikY3jpl3lqIJjpFuiV90ssa10YOz+PXIoO1fym7WUnOxDktWqnzmz7dhBBXJku+TljkxDAAMZQsNSSwv69V97w15JQkcEefVfLT9UxwtqDfNwh2PtkW+WLZd1m7fL9q2bZP2W3WK+9+7+WhbPWyhrdyd6yA2yJNt2jBvk5JoDY01zE9uzGknjBrtkfeJ33rQ7W1p07i7t05xeWsoJGwEMZAid31YPgGmdt7Cw0Bx405KDntWlQawH46qr+2p4d+3a1bbC4gv5Q9/Lt1+tklWr18nWYA3h4AE5JI0kr0MXyc1uLO065kqj4gOye/seOXBwv+xcv0I2JD5svvnqO9nboLE0S3PnXQ8sho0ABjKE1oL9FxDQ3qEOTfNo2aGyuXTd9XoTGjWRhkmSplGTbMk6tC/RL7Y14P1bZdueg5Kd21H6Dh4g3fIaysE9O+S77zeb0kVe5z7SqVVL6ditleQU7018C7A/KINFJoA5CAekToNUyxH9+/cvF8KVqekoh7Q6dFAOFRdLcM6D3Vu3S5GO5sjpJH36HSNHNN8nm9ZslB37Sjpjxft3yqYvvxGN6G9WfCVFh5pJp15HSudmB2Xr2lWyxTzq8KRSqgkDPWAgA2kv1hvl4N1WJd2jHHTYm4608GYUrLIDtWu1LJy/TL61Tc+B79bKl+t3iexdL0vmL5Q1OxKhu2ejLF8wVz7//HOZ88Uy2bC39MHy5aJ5Mke3z1ssa7bVLi+icoFfAhjIQBp4ixYtMrMI6kiJ6ixZssTc6gE7LzS//vrr0pESye4P0nHHesKF1pD1/9f/VxcdC9ysWbOUngfKI4CBDKUXr0z1ApbePAn6PvOCUsPUG96W7P5k1qxZY2rP3kkYuujZeXpR3crmeUHlIhPA1ICB6NOg1hD25oHQReeF0AOAqLnIzAf88ssvy/nnn29bZSqbD/jWW2+Vu+++27YAxJ3OEf7WW2/ZVonK5gPWGnBwBjcX8wHrV5BQzZ07t7hBgwYVlpdeesk+orxx48YlffzEiRPtIwCguDjRgUs5JxI99gqP7dGjh703PNSAAcARasAAkJDoBdu18NADBgBHCGAAcIQABgBHqAEDgCP0gAHAEQIYABwhgAHETnG4JwBXihowADhCDxgAHCGAAcARAhgAHKEGDACO0AMGAEcIYABwhAAGAEcIYACxw4kYARyEAxA3kQngqHwiAYgnrogBADFCAAOAI9SAAcAResAA4AgBDACOEMAA4Ag1YACxw4kYAfSAAcQNAQwAjhDAAOAINWAAcIQeMAA4QgADgCMEMAA4Qg0YAByhBwwgdjgRI4AABhA3BDAAJMT6ihjUgAHEDT1gAHCEAAYARwhgAHCEAAYARzgIBwCO0AMGEDuciBFAAAOIGwIYAByhBgwAjtADBgBHCGAAcIQABgBHqAEDgCP0gAHEDuOAAwhgAHHjNID9n0IEMACXYjchu/8XpgYMIG4oQQCAIwQwADhCAAOAI5EJYGrAAOKGHjAAOEIAA4gdTsQIIIABxA01YABwhB4wADhCAAOAIwQwADhCAAOAIxyEAwBH6AEDgCMEMIDY4USMAAIYQNxQAwaAhNhdEcOPHjCAuCGAAcCRSAVwVArjABCGSAUwvWAAcRKZAFYciAMQJ5EKYHrAAOKEAAYQO5yIkQQBDCBOqAEDgCP0gAHAEQIYABwhgAHAEWrAAOAIPWAAcIQABgBHCGAAscOJGEkQwADiJFIB7GJGegBQsb4ihiKAAcQJAQwAjhDAAOAIAQwAjhDAAOBIpAIYAOKEHjCA2OFEjCQIYABxQgADgCMEMAA4QgADgCMEMAA4QgADgCMEMAA4QgADgCMEMIDY4USMJAhgAHFCAAOAIwQwADhCAAOAIwQwADhCAAOAIwQwADhCAAOAIwQwgNjhRIwkCGAAcUIAA4AjBDAAOEIAA4AjBDAAOEIAA4AjkQpgAIiTyASw9n7pAQOIk0gFMACEgRMxAghgAHFDAANAgosMIoABwBECGAAcIYABwBECGAAcIYABwBECGAAcIYABxA4nYgQQwADihgCGU0VFRea1d7EArhHAcEZf85YtW9pW+AhiuEYAwwn/6713715Tkwtz2bZtm/3f2ffgDgGM0HXv3t2ulRwMady4sW2FJz8/3/zfnpEjR9o1IDwEMEL31VdfmVt/ALriPYeZM2eaWyBMBDBCdfLJJ9u16Jk8ebJdA8JBACNUs2fPNrdR6P16vOdy++23m1sgLAQwQjN9+nS7Fl3z5s2za6jPotIBIICRNvoaJlsaNmxo7r/22mvNbZR6vx7vOQ0ZMsTcJvs9vAVIFwIYde7gwYPSokUL24q+0047za4hTlxkEAGMtNPepLd4duzYYdeq7l26XDzvv/++XUv+uwDpQgAj7bxAO/300+2WzKWjNoIBDaRLZAIY9c+7775r10pC2d+bjPLi543aAOoCPWCkTVVBdujQIbsWfcHnXtXvBdQGAYy0e+WVV8q9npkYWv7nrL+Ld/YekE4EMNIqLy9PLrzwQrM+evTojO4x6nM/6aSTzLrOX9GuXTuzjswXlf2SAEba6Gu4a9cu2xJ59tlnZfHixbaVeT766CP58MMPbUtk8+bN7KdIKwIYaeF//c466yy7JlJQUGDua968ud0SfTk5OeY5e71fddNNN9k19lWkDwGMWsvKKtuN9KvdP/7xD3O7f/9+u1Vk586d5jXW5c0337Rbo2PatGmlz2/fvn12a8nvo8sf/vCHcl9bXUyhifqHAEatecHkDyilpyB7AXbbbbfZrSLnnntupF5vfS5ar/borGje8w7ytvk/XIDDRQCjVlJ93aZMmVIh1KLwmvufg/f8xo0bZ7dUjX0WtUUAI21SOfPtkUcesWslXL7uwf/7888/t2uVGzRokF0Dao8AxmHzz++g9Mw3fR2rWsaOHWseu2bNGnOrkj2uuiUo2WOqWzyffvqpuR02bFjSx/mXL774wjzW8/3339s1oOYIYBy2559/3q6VfH1PdcazjRs3mnG1/nJETfn3l9rsO/ochg8fLvPnz7dbqnbEEUeUe96vv/66XQNqjgDGYduzZ49dK1FUVGTCqbqlQ4cO9l+U1V1rsnj7it56623atEn62OoWz8CBA5PeH1zWrl1r/0UJvaIzMo++llFAACPj6LwS/mFgHTt2NCdJAJmGAEZG0p5n27ZtTd12w4YNditw+FxkEAGMtNDXr7Il1WFdNVVYWCj//Oc/bSu9Lr744qS/i7cA6UAAo85NnTo1o15ffa4vvfSSbQF1hwBGWvgPavgPWkXlYMfhqOz3yOTfCdFCAKPOBQMs6jLt+SJzEcBIOz04Vt94l9YH0okARtp4vcYtW7aY1zO4ZIpkz10vra/oGSOdCGCklQbUiBEjbKtMstnD9MoZwaALe0km2eWHLrjgAsK3HonKa0kAI+1mzZpldnD/EvwKr6+3XjvONX0emzZtsq0S3bp1q/D8X375ZXsvkD4EMELnf62DQRfm4s0BrGfSrVixwqwDYSKAkRb6+t133322Vblg+Lr0zDPPyPvvv2/WjzrqKJkzZ45Zr8p1113Hvoq0iUwAI/Pde++9JpyqWvyS3R/2MnLkSPtsRIYOHZr0Mf5FQxtIF3rASAvtzaY6HWUm69q1q/OeO+oPAhhpk8p0lJ5k97lcPMnu8y9ff/21fSRQewQwADhCAOOwXX311XYtNc2aNTO3UX6t+/TpY9dSc/7559s1oOYIYBy21q1b27WS16+6xbt+mk6oHjVaXlArV65M+tyDiyc/P9+uIZN4r7drBDBqRXdk70Kb1dHXOCo7fjI1eW4PPfRQpH8XZAYCGLWm8/1qGFW3RLHnG5TseSdbbr/9dvsvUF+4yCACGAAcIYABwBECGAAcIYABwBECGAAcIYABwBECGEDs6FDCKCCAAcARAhgAHCGAAcARAhgAHCGAAcARAhgAHCGAAcARAhgAHCGAAcQOJ2IEEMAA4oYABoAEFxkUmQAGgLihBwwAjhDAAOAIAYy006sf1+UVkPVne1cn9q8DmYYARtrt379fhg4dWmehePrpp5ufr4477jgZPHgwAYyMRAAj7fbt2ycNGza0rfQ7cOCACXl17bXXyk9+8hP2H2QkAhh1QksD3msaLBEEe6vB+/yLX3Cb/vwxY8bIpEmTTDv47/yPDfI/DvETldeeAEba+XfugwcPmtu77rpLTjrpJLnyyisr7Pwa1g8++KDpyU6dOlW2b98uN998c+njtMd7++23y/nnny//+Mc/ytV9P/74Y/nLX/5iHvdf//Vfcvfdd8sVV1wht9xyi/l3ft9//71cd911cuGFF8q8efPkoYceMreAKwQw6tyJJ55ogjMvL08WLVpk6rbLli0zQbpr1y5z/9/+9jdZv369PP/883LaaafJJ598YvaJBQsWmPvfe+89Wbdunfz617+WPXv2mPt0mTBhgkyZMsWsT58+XWbMmCGLFy+WWbNmyQknnFD6AfDkk0/KiBEj5J///KesXbtWfvrTn8oLL7xggh9whQBGnRo1apSpCX/++efy9ttvm9uWLVvKJZdcIllZWXLKKaeYQNXtn376qVn08V4P91//9V+lZ8+e8n//938mPD/66CPzc739xb/f6OP13+rj5syZY8L3rbfeMkH/1FNPydVXXy1z586Vzz77TGbOnGkez34Hlwhg1BktAWzdulV++MMfSnZ2tnmNddEg1oN0eiBNQ9jrheq6Lto7bdy4sQlIDdGnn37atD25ubl2rWItT8NWf7b+HP2/du/eLdu2bTP3jR071mxXLVq0MGHNfgeXCGDUGQ3Cpk2byuzZs0vrsRqY48aNKw1KbWvd1xvVoF588UXZu3evCctGjRrJX//619Leqi47duwoDV7/fuMFuMf7Nxq2+n9pacKj9zVp0sS2ytPQ10Wfo9LHev8fkE4EMOqMhpbWbvVW677Tpk2TM844wwTybbfdZgLuueeeMz1Urc8+8sgjMmTIENMzzcnJMfvEmWeeKU888YScc8458rvf/c6M+Q0eXEtFhw4d5JprrjHD1rSOrPVhL2D15w0YMEAuvvhi81xHjx4txx57rAlzff56n/8DAkgXAhhp16xZM9OD1NdUg/TDDz80vc3JkyfLd999J6+88ooJQ3XMMcfIu+++ax77zDPPmH97//33mxELGow6xOzhhx82B+g0rDt37iwnn3yydOnSxYSlBnbXrl3Nz+rXr5/Zrj9L79Pyg27T3u+rr75qQl8P6ukBP92uj9HSht7v9caVBq/23DWgvV61VxIB0iqxU4Vq7ty5xYk3SIXl0ksvtY8oL/F1NenjJ06caB+BKEqEl10ro9uSbfdUd18i1Ms9JtnjK/sZQ4cOLU70vosToW7aidAvTvTKi1etWmXayvu3eptsHdF2/vnnp5wTS5YsqfDYgoICe2946AGjTiR7PXVbVa9zdfdpT9T/mGSPr+xn6BjhwsJCGTZsmOk133HHHaYM0atXL/uIsn+rt8nWUX8kss+uuUUAIxa01KHD05599lkz6kKHtWlJBHCJAEYseD1ZPYink/nosDit+wIeFxlEACM2vBBmX0NUEMAA4AgBDACONNChEHY9FDr7lA5yD9Lz9HUylaDx48ebM6WC9Cj2Aw88YFtu6J/O/+fTyWL0pAIdAwvUJ17pplWrVtKtWzez3+uolCi54IIL5LXXXrOtEpXlxJIlS6SgoMC2Smhbx4mHKTIBrAPz9UypoKgGsP7ZDh06ZGbv0mkNvYH6upOG/CcF6pz3DdULYp1A6Ve/+pX8y7/8S+k8H65lYgBrWISqshMxrr32WvuI8qJ2IoY3KH/fvn1m4PaQIUOKBw0aVJwIYrNdB/p7g/dZWOrboifDPPHEE2afHzx4cPHAgQNLT25xrSYnYixevLjCY/v372/vDQ814MOgp8n+4Ac/MKfX6kQx2qu/7LLLTOkh8Tc18wawsAQX3T8SIVb6TSkTFy07XH/99Waff/TRR83MdMcff3zpvBqZQl+DKIhMCUInSdG5AIKiVoLQiWL0yg66M+rctXq7cuVKufzyy83cBd6OCgR5kwwpnWIz0Ys065lKo0MXnWhJP1z0RBedvc6VmpQgdGa8RI/Xtkq4KEHQA64B/ZS/8cYbzbq+0Pqcb731Vrn00ktLJ24hfFEZ7ziBLnppJN2XvB5xJtJ9Xff5P/7xj2byIpfHZDIVAVxD2oPXnU6nN9RCvneFBqAmNHT1skvz58+3WzLX0KFDTVnu9ddft1uQKgK4BnQqRQ3fe++919xeddVV9h6g5nT0gPaEM52+F/QiqPqhorVupI4AroE1a9aYOq8egNPnm6lfHREdug9l+n6k74Wzzz7b3O7cuZP3RQ0QwDWgO5ZO4OI9V/3kB2pDa8CZsO9XRd8X2jHRHr3K9N8nTARwDXTv3t28YbRupzucN+oBOFz1Yf/R32HWrFnm/dC8eXO7FakggGugbdu25nn+/Oc/Nz3hKVOmmEAGDld9GDmgPWC9dJT2gL1eMFJDANeAlhw6depkDjRs377d1IK1zdwPqAndj3R/1+vf6UVHM53OgaJXntbxwJnwPlZRqVMTwDWkF5TUwD311FPNp/0bb7whEydONC+o9obpESMZ3T/8+4iOH//ggw/MtkzZ94O83+fCCy80v8Pvf/97ew9SFZkz4W6++eakL2AUJ+PRK/RedNFFpif81ltvSbt27cyOqO2ioiL7KKCMvs100Z6id8n9TD2I60XGxo0bS0c/zJw503n9tyZnwi1atEgGDBhgWyX0zLgvvvjCtkKiARymyibjueWWW+wjyovqVZELCwvNRDx6td3hw4cXr1ixwkxWovSWhaW+LomQMpPx6FWldf/fuXOnmaTHtZpMxrNw4cIKj00Esr03PJHpAetA7ocffti2ykR9OsqxY8eaCzx6bT04F/KfFKhziYAyt/otz1v/yU9+Ivfcc4/Z76PQm8/EHnBkAlhrYsmCNuoTsuvO6IXvO++8I1999ZVZB+oTL3R79uwpZ5xxRum+rwjgWtAADlNlJYjbbrvNPqK8qJYgkknsiHYNqN+iuK9nYgmCURBpVB9+ByAV7OvpQQADgCMEMIDYSXz7t2tuEcAA4AgBDACOEMAA4AgBDACOEMAA4AgBDACOEMAA4AgBDCB2GAcMADFHDxgAElxkEAEMAI4QwADgCAEMAI5wEA4AHKEHDACOEMAA4AgBDCB2OBEjgAAGEDcEMAA4QgADgCMEMAA4QgADgCMEMAA4QgADgCMEMAA4QgADiB1OxAgggAHEDQEMAAkuMogABgBHCGAAcIQABgBHCGAAcIQABgBHIhPAABA39IABxE6yEzGKiorsWngIYABIyM/Pt2vhIYABIMFFBhHAAGKnZcuWds0tAhhA7Gzbts2ulaEHDAAxQgADiB2mowwggAG4RAkCAGKEAAaABHrAABACasABBDAAl+gBA0CMEMAAYidZCYIeMADECAEMAI4QwADgCAEMIHaoAQcQwADihgAGgAR6wAAQAs6ECyCAAbhEDxgAYoQABgBHCGAAscMwNACIOXrAAJAQ6x4wAQwgLAxDCyCAAbhEDxgAYoQABoAEesAAEAJqwAEEMACX6AEDQIwQwABihzPhAghgAHFDAANAAj1gAIgRAhhA7FADDiCAAcQNAQwACfSAASAEnAkXQAADiBsCGAASKEEAQIwQwABih2FoAQQwgLghgAEggR4wAISAYWgBBDCAuIlMAANA3NADBoAEasAAEAJqwAEEMACX6AEDQIwQwABihzPhAghgAHFDAANAAj1gAAgBoyACCGAAcUMAA0ACJQgAiBECGEDsMAwtgAAGEDcEMAAk0AMGgBAwDC2AAAbgEj1gAIgRAhgAEugBA0AIqAEHEMAAXKIHDAAxQgADiB3OhAsggAHEDQEMAAmx7gEDQNzQAwYQOwxDCyCAAbgU6xIEAQwgbghgALHDMLQAAhhA3BDAAJBADxgAYoQABhA7DEMLIIABxA0BDAAJ1IABIASUIAIIYAAu0QMGgBghgAEggR4wAISAGnAAAQzAJXrAABAjBDCA2KEEEUAAA3CJEgQAxAgBDAAJ9IABIATUgAMIYAAu0QMGgBghgAHETrISRKx7wAAQN/SAASCBGjAAxAgBDCB2qAEHEMAA4oYABoAEesAAEALOhAsggAG4RA8YAGKEAAaABHrAABACasA+Gr4EMIC4iUwAA4BLsS1BEMAAwkQJwocABuAaPWAAiBECGEDsUILwIYABxBEBDAAJ1IABIEYIYACxw4TsPgQwgDgigAEggR4wAISAYWg+BDAA12LbAwaAOKIHDAAJ1IABIATUgH0IYABxRAADQAIlCAAIASUIHwIYgGv0gAEgRghgAEigBwwAIaAG7EMAA3CNHjAAxAgBDCB2mJDdhwAGEEcEMAAk0AMGgBghgAHEDjVgHwIYQBwRwACQQA8YAELAmXA+BDCAOCKAASCBEgQAxAgBDCB2GIbmQwADiCMCGAAciUQAA0CYGIbmQw8YgGvUgAEgRghgAEigBwwAIaAG7EMAA3CNHjAAxAgBDCB2OBPOhwAGEEeRCOCioiK7BgBuxKoH7P8K0LJlS7sGAPERiR4wAISJGjAAxBwBDACOEMAAYocSBADEHAEMAAmx6AHv27fPrtXOt99+a9cAQGTHjh12TaRZs2bSu3dvycnJsVvK0+2DBw+Wo48+2jxObd261dyGKfQAbty4sV2rnfbt29s1ABBp3ry5XRPZtWuXrFy5Uvbu3Wu3lLdnzx6ZN2+eLFu2zDxOtW7d2tyGiRIEADhCAAOInajMB9wg8URCfSba7T/22GPNH8AremstZs6cOWY9aPz48TJ16lTbKpOfny+tWrWyrcPTpUsX+eabb2wLgGvt2rWTwsJC26qZzZs3y86dO22rxB133CEPPPCAbZWZNm2a/PSnP7WtEnfeeaf8+te/tq2QaACHae7cucWJ4NXQN7e6DBkyxN5b0bhx40ofl+6lT58+SbezsLC4Wfr37590++EuEydOtElS3jPPPFPhsb/85S/tveGJdAli3bp1MmPGDNtKv9WrV9s1AFGQ7vfk4famwxLpAH7kkUfMUcq6cvDgQbsGIAp2795t19JDSxrJJDqfds2tSAdwXQ81y87OtmsAoiAvL8+uxUOkA3jChAnys5/9zLZKzlTJyspK26LjBpNtD3PR3ynuC+BJZ89U31/79++3rfKi0gOO/CgIPap5+eWXy9KlS+Wxxx6TUaNG2XuA9Nm2bZtZXNq4caM5QcCVAwcOmOMuLjVt2tS812uroKBAzjvvPGnYsKHdUt7TTz8t119/vW2VcDEKIvIBDADp9tRTT5X7dq1cBDAnYgCAIwQwgNgJ+Yt/pQhgAHCEAAYQO/SAASDmCGAAsUMPGABijgAGEDv0gAEg5ghgAHCEAAYQO5QgACDmCGAAsUMPGABijgAGEDv0gAEg5ghgALFDDxgAYo4ABhA79IABIOYIYABIKCoqsmvh4arIMaeXQddLka9Zs8bcrl271mzftWuXbN682az76eP18ump0p+bKv3/du7caVvp17ZtW8nLy7Ot1HTs2FGaNGliW6np2rVrpZdDV927d5f8/Hzzs3v37m2Wli1b2nsRhocffljGjRtnWyVuu+02mTx5sm2FgwCOoc8++0z+/Oc/y+zZs2XhwoUmVOGWhvCZZ54po0ePNu8H1K3p06ebv7XfDTfcII899phthYMSRIxoz/X000+X4cOHy9SpU00QE77RsHLlSnn00UdN5+Smm26SAwcO2HtQF/QbXpCL9wI94JjQN7T+3bXHWxn9qq1fi/XrsPeV2NtWHX28fq1ORU5OTko/09OjRw+7lpqalD2UvvE2bdpkW6nReuG2bdtsq2r6t9fyjkfXdVtVJZeJEyfK/fffb1tIt2eeeUb+7d/+zbZKXHrppeabYZgI4Jh44YUX5PLLL7etksC86KKL5JRTTpH+/fubkKMOGT4NYf0m8r//+7/y+OOPl4a6fvBt3769yloyDp8G7ZVXXmlbJc477zx55ZVXbCsclCBiwt8D0zf1O++8I08++aTZCfUDkPB1Qw8Mau1Xe7v+N7/2yrWzgrrRtGlTu1bGRQmCAI4JfZN79OvvD37wAxk5cqTcd9998sEHH1ALdkR7vPr319fh6quvtltL1LT0gtQlG9lCDRh1SksQWoqojL7hvaVXr15mOJXSHrO3HqwJp1ojrq+C9V1/27+uQat1471795YO+dMDb5UN6dPy0IsvvmhbSDf90NMOiN8JJ5wgH330kW2FgwCOGR39MGnSpJQPINVUdQEdbGu4d+nSxbZEsrOzS8Ne+cNfBdtBVQWi0vY333xjWyIHDx6s9vFVteuCHgzS8lBNxywjdZ9++qmceOKJtlXCRQ4RwDGkX7Vee+0108PSnkBdhTFSp+OAR40aZcoQ2hND3Zo/f74MGTLEtkocffTRsmTJEtsKR+gBrL2HI444ggCOkKVLl5oPxmXLlpkz4fQ10q/GGsx13duLA+3JemfhebcauFrm0dthw4aZ7QjP8uXL5ZhjjrGtEh06dJANGzbYVjhCD2B9Y3fu3JkAziDaYw7WKoPbkrX9Y2u19lnd46tq11Z1pYxkpQ09Zdgv2A4eJPO3dVQJI0ui6+uvv67wep5xxhkyY8YM2wpH6AGstObn/6TRHffLL7+0LaCi6gK6prVioHHjxqam77nqqqvkP//zP20rHE4CWIdAffLJJ7YlcuSRR8qKFStsCwDqnp6RuX//ftsSGT9+vDz00EO2FQ4n44CDw5b0bKB9+/bZFgDUPR1x49e+fXu7Fh4nATxw4EC7VkLHR65fv962AKDuaZnKT0sSYXMSwIMGDbJrZdJ5wAUAqnPo0CG7VuKkk06ya+FxEsA//vGPK3z6cN47gDD5D3/pcajjjjvOtsLjJID1bCgd++i3YMECuwYAdev999+X3bt325ZUOCkjLE4CWOlZP36vvvqqXQOAuvXxxx/btRLBeSHC4iyAgz1grQHrGVkAUNf++te/2jWR3NxcOeecc2wrXM4C+OSTT5YBAwbYVgmdlwAA6tJ7770nixcvti2RTp06lZsQKkzOArhVq1Zy2mmn2VaJL774wq4BQN3QuZf9IyDGjBlj18LnLIBVcDq4d999164BQPr9/ve/L1f/LSgokLFjx9pW+JwG8MUXX1yu679q1SpZtGiRbQFA+ui8DxrA/t7vzTffbNfccBrA6vrrr7drJe655x67BgDpowfa9CokHh37e8MNN9iWG04m4wnSafv0CrBKT9DQArnOkwoA6fCLX/yi3EQ7WVlZ5srIl1xyid3ihvMesLrgggvsWsnXBJ0Wzn+UEgAO1x/+8Af53e9+Z1sl7rzzTufhqyLRA9arMOiZKP5L4+hVfN94440KpywDQCp27NghDzzwgPzmN78pd9qxXhLts88+sy23ItED1pnp9UKEfm+//bbZNmvWLLsFAFJ34403yoMPPlgufHUmxpdfftm23ItED1jpnMB9+/aVLVu22C0ldO7gP/3pTxVOXQaAZPSErn//93+vcLpx06ZN5X/+538qnIXrUiR6wEovSnjXXXfZVhk9Rfn0008352pzphyAyuiMijrSQbMiGL7t2rWTzz//PFLhqyLTA/ace+658ve//922KhoxYoS5dPd5553HlWRRa3rQN51Xftaf5b/OWG3ot8KdO3faVup0tsHgVWeS0WvmVXeMJaoXF9XjRXPnzjUX89XbTz/91JxHkIxmyuTJk81VqKMmcgGsO9xZZ50ls2fPtluS0x3n1FNPNSMoNJT79+9v70mvyt4E2jPXC0MG1fQNqD87WHY5XAcPHqx3YZKM/hz9eYgGfS+mcgFU/VDQD4eq6MUa9Ao5QRq4univfapXzb7iiitk2rRpkT2YH7kAVvpHTiWE/fSF1asr65l1zZs3N5e8z8/Pr/BC+Xs8OvJCPz3V1q1bk77wAMKj5cZ33nnHtg6fdsgmTZpkvilHWSQDWGloTp8+3SzLly+3W9OrRYsWpSeAAHCvZ8+esnr1atuqOT277T/+4z/kyiuvtFuiLbIB7FmzZo08++yz8sILL5Q7jTAd8vLy0va1GEDtHX300bJs2TLbSo1++9VypJ5YocGbSecORD6A/RYuXGjKEtoj1snbtbywYcMG04vVdb20vdZBk9Vmk9Ejo4WFhbZVOxrm6TgomM5aKZBp+vTpIytWrLCt5Dp06CDHH3+8DB8+3Nzqou+/TJRRAZwqDWANMi1jBMPMf0RXf3WtFSudFT94WWr9JE32wuq2TPqUTYX+ndJ1wK0m9MMzeHXaMLj6f/1ne6Ii3Qf97y3t3eqi71t9f+r7VEuHOpdDfVAvAxgAMkH9+BgBgAxEAAOAIwQwADhCAAOAIwQwADhCAAOAEyL/D9tSQ3RLVJoJAAAAAElFTkSuQmCC;" parent="WIyWlLk6GJQsqaUBKTNV-1" vertex="1">
          <mxGeometry x="256.59000000000003" y="86" width="148.83" height="263" as="geometry" />
        </mxCell>
        <mxCell id="OF0bnibXMQKsjCnrB5dy-3" value="" style="endArrow=none;html=1;rounded=0;exitX=0.5;exitY=0;exitDx=0;exitDy=0;entryX=0.5;entryY=1;entryDx=0;entryDy=0;" parent="WIyWlLk6GJQsqaUBKTNV-1" source="EDwAw3rbuMBAc9x-66SU-20" edge="1" target="OF0bnibXMQKsjCnrB5dy-10">
          <mxGeometry width="50" height="50" relative="1" as="geometry">
            <mxPoint x="135.23999999999998" y="460.85" as="sourcePoint" />
            <mxPoint x="365.2450000000001" y="532.5799999999999" as="targetPoint" />
          </mxGeometry>
        </mxCell>
        <mxCell id="OF0bnibXMQKsjCnrB5dy-7" value="Нажата кнопка&lt;br&gt;&quot;Объявления&quot;" style="text;html=1;align=center;verticalAlign=middle;resizable=0;points=[];autosize=1;strokeColor=none;fillColor=none;" parent="WIyWlLk6GJQsqaUBKTNV-1" vertex="1">
          <mxGeometry x="415.02000000000004" y="447" width="100" height="41" as="geometry" />
        </mxCell>
        <mxCell id="OF0bnibXMQKsjCnrB5dy-9" value="" style="shape=image;verticalLabelPosition=bottom;labelBackgroundColor=default;verticalAlign=top;aspect=fixed;imageAspect=0;image=data:image/png,iVBORw0KGgoAAAANSUhEUgAAAVQAAAJzCAYAAABQ0+umAAAAAXNSR0IArs4c6QAAAARnQU1BAACxjwv8YQUAAAAJcEhZcwAAEnQAABJ0Ad5mH3gAAI9GSURBVHhe7d0HVBRXFwfwv9IRBRUVsSH23o019liixhZjjBpLviQao0ajscYeTTSaaDTGGGti7723GHvvFUFBQAVBRKnON3f2LSzLgiCzBfb+zpmz82Zm2+zu3fvevHmTTZKBMcZYhmUXt4wxxjKIAypjjKmEAypjjKmEAypjjKmEAypjjKmEAypjjKmEAypjjKmEAypjjKmEAypjjKmEAypjjKmEAypjjKmEAypjjKkkSwyO8vLlS7x48UKZnj9/rkyvX78WawFnZ2fY29uLEhAXFwdbW1tRyvr094c1oc+dPn9mWFRUlDKZEz2/o6OjKEH5bbq4uMDNzU25pUl3vSXLdAGVgubmzZuxceNGXLx4Ef7+/kqAZIxlThQw6XedGldXV7z77rto0KCBcvvOO++INZYlUwRUCpyHDh3CkSNHcPjwYSXjYoxlDdWqVcOFCxdEKW0osHbq1AndunWDh4eHWGp+Fh1QqSrw/fff47ffflOtWkLViLCwMFGyPtmyZYONjY0oJS9nz55dmbRoHW2j9aZyetBXLz4+XpTejJot0tN0kd7t6bWk5+eQnppRet+rNSlVqhTu3LkjSulD2e2wYcMwePBg5bdtbhYbUE+ePIm+ffvi5s2bYkna0E6tWbMmChcuLJYkRe1p1OaaHr6+vmJOE+SDgoJECUpwtuYAzVhGVa1aVamFZgRlqSNGjMDAgQPNenzE4gLqlStX8Oeff2LhwoWIiYkRSw2j4Nm4cWPUq1cPZcuWVQKpudN/es2vXr1SAq920i8bWkbl6OjoVNenVqbJWg88scytbt26OHHihChlTMmSJbFy5UolFpiDRQVUyvyaNm2aalbq5eWFHj16oE2bNspOs6aj9amhfUdBVetNWXV4eLgoAcHBwem6r6kzcvqMU6px6EvPtnTkOK1/wLRtgQIFRCl1Dg4OaX5cqrK6u7uLknWiZiNDzSFPnz5VvosPHjxQbmmi2PCmphZvb2+lGaB///5iielYTECllP/bb7/FwYMHxZJE9CPp0KEDBg0apDRGM8uhH8jTKj2BjzEt+r6tXr0ay5cvT7WZIEeOHEo8ocBKf1qmYjEBtXv37sqO0te7d2+MHj1aSeUZY0yLAio1DS5YsEAsSY56AVDwNVVN1uwBlZ6e/klmz54tlmhQ9YraUtu2bSuWMMZYcsuWLcPvv/+O06dPiyVJUQ+AGTNmmCSo2kyQiXmz2LJlC7755htR0qBuFMeOHTNbwzJjLPOgXgI0UduqoWaAU6dOKb17TNFcaNYMlf5RKCXXPQhCR+4vX77M7WuMsXQbMGCAwSYAyk63bt2KVq1aiSXGYdbBUbZv354kmNKR0aVLl3IwZYy9lUmTJuF///ufKCWi7HXUqFHYv3+/WGIcZguoFEz1200//fRTtG/fXpQYYyx9qAvayJEjlZqvvkuXLuGvv/4y6hlrZgmo1Pn977//RmRkpFgC5M+fHx07dhQlxhh7O8WLF1eO/lOfdX1r1qzBtm3bREl9ZgmomzZtwtq1a0VJg852ql27tigxxtjbo76ns2bNEqWkKNiGhoaKkrrMElB37Ngh5jToQNTXX38tSowxlnGtW7fGRx99JEqJdu/erZyeagwmD6iUblParYtS8yZNmogSY4xlHJ0C3LNnT+TLl08sSfTDDz+81Rl+b2LygEqDQ8fGxoqSBo0qxRhjaqMxPwxlqXQKK/WBV5tJAyqNyr1q1SpR0qCjcjRiFGOMGQMNuGSIftOjGkwaUGm0ff00m/qcVqxYUZQYY0xdNLASDe+p79q1a0l6GqnBpAF1w4YNYi4RXcaAMcaMyVC1ny67Qqe4q8lkATUkJMTgILINGzYUc4wxZhz9+vUTc0kdP35czKnDZAH1yZMnuH37tihpUHepMmXKiBJjjBlHSk2L+/btE3PqMFlAvXr1qphLRO0a5r5kCWPMOlSoUEHMJdLvcZRRJguoN27cEHOJKENljDFTMHQtf7r8j5pMNnwfnQk1b948UdKggaV/+uknUWKWRDsKmPaWriNF3d7UGAmMuspl9LIUxr6ECr1XuqaRPhq1yN/fX5SS0i7Xvi56n5Q0GPN1srSjU947d+4sShp2dnaIiIiAvb29WJIxJguoXbt2xfr160VJ49dff82yp5xSIKIRtehgnKurqzIOo6GuG+ZEzTA0IO/58+eV16ud+LLY6qPgSmcEUnClWxq3ok6dOgYH8GDGQX+SuXLlEqVEdMHKnDlzilIGUUA1hRYtWkjZsmVLMi1btkyszTquXLki1apVK9l7dXJyklasWCG2Mo9Xr15J8r+01LNnT+X16L9Gnkw/FS9eXBo1apTyvWHGJSc3Bj+Dx48fiy0yzmQBtVq1asneyJYtW8TarOHQoUOS/E+X7H3qTkuWLBFbm05kZKQ0a9YsSc6QDb4mnixj+vLLLyW51iA+Naa2+Ph4Sa4tJtvvT548EVtknMmq/NWrV092vRc6c+rdd98VpcyNqhOVK1dOaHMkdC13qtadPHky4QwxqvZfv35dmTeV77//HlOmTBGlpKgtkl4TXVWWqp9FixZV5rXXi9e2daal3ZPaHGk/vA1z3deQlK7XT9V1/Qu9URup/sFV3e8AvS4q3717V7m+PN3S7yCldlj6LOgSQKa4oJw1ou84fQ665AxV+X6rQgmrJmAoQ6WMLqtYt25dkvc2efJk6dmzZ8q6VatWJVl3//59Zbkp3LlzJ8lz00RNEvT6Tpw4oTQDMNN7+PCh8r0w1PxC3yVmHFWqVEmyr2lSM0M16amn+jJ6pNeS6F7ClrLSsWPHJmQu+h2KaaQbU9HP3GgcSHqt9ProdVI2xkyPsl0aFIhqaPoHKw31LmDqyJ7duCHPrAH19evXYi7zkzMOMae5BIOunTt3ijlAzkaUy72Yiv6PlcaBpAF2qfsPMw36U6NqPg1dOXPmTPTq1QulS5eGp6cnPv/88yRNYZRkGLoeElOHnJGKOeMwaxsqnUdLWVJWMHr0aEyfPl2Zp+yDskBqh6PBF+hHc/PmTWUdZa3GuvxCSuj5Fy1aJEoalJlSW6lqbUcsgX4balozTvo86NJAdI15Zhw1a9ZUugnqos79hgahfitKxd8EDLWhysFGrM38qMeC/vszNM2YMUPcw3SojchQVy6eLGOqW7euNHfuXCkiIkJ8YsxY5ICabP+r2W2Kq/wqoctfN2/eXJQMo7bUgQMHipLpUBZ68OBBjB8/nsdOMDOqoVAG+uWXX2Lx4sXw8fFRamr0vchKxxSslVmr/IcOHUKjRo1EKfOjM4xGjBihXCJbdyBt6gJDPyBqv7SEHw112aHPgs6U0h8BLDXFihUTcywt8ubNqwRQagKiPzXqssNB07zoDLWzZ8+KkoaaVX6zBtT9+/eneHmCzIzazehDo6P59GOijIR/SIyZHw2QcubMGVHSUDOgcpXfCCh4UpcYOlrboEEDDqaMWYhsRj7KzwGVMWY1OKAyxlgmYdaAGh8fL+YYY8z4DGWoah5G4gyVMWY1uMrPGGMqydIBlav8jDFT4gyVMcYyCQ6ojDGrwVV+xhhTCVf5GWNMJRxQGWNMJYYCapbph8pVfsZYVsIZKmPManCVnzHGVMJH+RljTCWcoTLGmEo4oDLGWCbBVX7GmNXgDJUxxlRiKKDyeKiMMfYW+Cg/Y4ypxGqr/KtXr0a9evXw22+/iSWMMWbZLDKg0nXtBwwYgJMnT2Lo0KHw9fUVaxhj7O0ZO0PNJqnZIpuK6tWr4+LFi6KkMWnSJIwdO1aUEh04cAAtWrQQJeCDDz5A3rx5RSljnJ2d8fLlS1FijJlbjhw58ODBA1HKmHfeeQddunRByZIlxZKk3n//fezatUuUNB49egQPDw9RyiAKqKZQrVo1Sf53SDJNnDhRrE105swZycHBIdm2ak2urq4Gl/PEE0/mmUqVKmVw+dtOBQoUkE6fPi0iSlJyQE22fWBgoFibcWat8svPL+YSHTt2DDExMaLEGGPp8/jxY4SEhIhSUnIAFXPGYXFH+Sldr1Spkiipz1AQZ4yZT3h4uJhTBzUhNG/eXJRMy+IOShUuXBjLli0TJfVFRESIOcaYJbC3txdz6siVKxdsbW1FKaksnaFyx37GWEBAgJgzPmMHVLMe5R8xYgSmT58uSoloO9peH/2TderUSZTeXlRUFBwdHUWJMWZOYWFhcHNzE6X08ff3V4676KLHCg0NFaWkOnTogK1bt4qSBgX0ggULilLGmDWgDhs2DDNmzBClRCkFVHd392RdHhhj1uvw4cMYPny4KGlQcEwp6zV2QDVZlf/Vq1dKhlm2bFmUL18eVatWVfqEGmJnZ6ccmKK+ZNQ/TPtmo6OjlVvGmHnkz58fFStWRLly5eDk5CSWmg/FFV0UM+g4TEo8PT2V2EPbFSpUSFkWGxur3KrBZAGVdj51h7p58yauX7+uZKEpHd2jN3jlyhXcvXsXQUFBCAwMVJY7ODgot4xZq+zZs8PFxQW5c+dW9fdAbYv0uCmhdRUqVECRIkWU56VkiBIjCkw2NjZiK9PTD+oUM6gZICUUTyj20HbaLJYSOLXwQSnGLBwFjeLFiyuZYbVq1ZR5qrlRQKNymTJlUKBAgQwdcKHnoGCZEsrsnjx5gnPnziVMFy5cUJ4zT548Yis9rt6oVLUCijnlQvFK1VGjRo2EqVr5wkh6FCM77HO4wMlW/z3YwilnDtgb91iSajigMmahKPOjIEfNZNTcdf/+fSW7otrbjRs3lIBGt9SRnTJWCrDUZSg9KPOkoBgXF5diVyNCWSlVr6k6Tc1xNFEQptqkoQzP1rUwShXJBXub7LDN/hx+t27hzp078vQQ4TESXsdFI05sCzm0enoVQY6YV4h39UKp4nmg5LzZc6No8fzI/iIa9oVKoqSnEyw9rpo1oPLwfYwZRscbqIpNt9euXVPON4+MjEz2m6EeK8+ePVOa0oKDg5XslbLJtKLtKSBSMKWgmhIK7vTcFFjpNdFEzQ+G2SOfR244xkchSjzk65hIPH/+HDGu7shp8wpPHz5FnK0d7OQIaV/YG3lsQxEWG4+YkBDEORdEEWcgj7enHGRDECnF4YX/C9jmLQr3lGO+ReAMlTELRJkfBcl79+4lOxWbMkPKLPXbLp8+fapkr5SxpoYCqH63wTdlqOkTg8BbV3DlRiBevdbpRJQ9P4rmsUfU43sIeGWLQqUqoGxxZ+RxsUc26TU0Wz7Hq3gbOOfOC1cn+fUkdEJ6JT+qvbzMsnNUDqiMWSDqzagbSCkjLFGihNJmSk0AlFnS0WpqV9UdiY1+U6llmiRfvnzJ2j3flKGqwaVofuR4HYHAIHpfsQi4cRFXfGjkt2xytitnvMpWbshhZwsbR1t5qbzcVoSo7DngYGsDu5zqHUAyBg6ojFk46qhO7aP0e6GsldpOKROl9lRqCqAqPgXY1LzpKL66GaoWhUSRUcrZqaerLaJCHiJM72cfL2extjkKolCObLCVg30OOwnxUdHy8uxwcC0Md3s5Yy3sBsfsrxEboV4XJ61M2W3KEG5DZezNKFOlbj50UEq33yX9fuiMIOqGSO2oqXnTUXzjZKiOkJNNhb2nO3JIkQhSslNBtKGGhL9CvI0T8petjipFc8FOikZESBhCIuVt7V1RrFJVlMvnhOyxr+Rl6p+HxN2mGLMiNCA6XcVCi/qAUjVf202KAiudvmlIWo/iGydDjZd/41DaRmOC7uPOnftJslOPktSGmgOvg/3wKDwaSnOrFIfIx/fhHwW8eOCHpy/jlPtLr6MR5u+DZxYeMjigMpbJUFuql5dXmq5iQVkpZadvykCNk6E+we1LV+ATKc/GvcKLV5rgqBV0k9pQaWUUHt+9igvnz+Hc+Uu4GfBKs93rCDy4cQnnz53D+QtXcS/U8mu0HFAZy2QoG6VmAN2sNSXa9kHddkLKaLXNbRRE6QDYm9oRaT0FXTq76Pbt28qkvZSQiYYDyRS4DZWxTObhw4fKQSnqg/omPj4+SuCjgHjr1i1lGXWr0natomW0Tne9IdRGS+e+0xlalBnTVLRoUeWAmdoDRBuTsYM/Z6iMZWG6vzHtPAUVbWAxtN4Q6k1AE2XG2okCOvU64IteJuKAyhhLE8pEtYGVJhq0KC1ZsjUx63iodHnoTZs2iVIi2s7QeKg0jB91HWGMMUJjm3bt2lWUNFIbD7Vjx47YsmWLKGmoOR6qWQNqu3btkr05klpATWlHMcasz+bNm5NdxcOcAZUPSjHGmEq4DZUxxlTCAZUxxlTCAZUxxlTCbaiMMath7GPwnKEyxphKOKAyxphKOKAyxphKuA2VMcZUwhkqY4yphAMqY4yphAMqY4yphNtQGWNWTXttLjVwhsoYsxrcsZ8xxjIJDqiMMaYSbkNljDGVcIbKLEbz5s2VAwRqTIsXLxaPypjpmPUSKN7e3rh7964oJeJLoFgfCoKkSpUqePfdd5X5t7Vo0SK8evVKmTfR15uZSXovgULXsdu2bZsoadAFB+ny2Gowa0D18vJSrhuujwOqdaFg6uTkpPrliLVBmoNq1mVpAZXbUJlZZc+u+Qoa49ru2kC6f/9+5ZYxY+M2VGZWFPTi4uJESX3UfNCiRQtRYtbO2LUVDqjMJN57770kExk8eLBya2Njo9waw5EjR8Schu5raNu2rVjKmDo4oDKT2LdvX5KJzJkzB//9958yb2zUnjpr1qwkr2HHjh1iLWPq4DZUZjJU3dJWubQHjOrXr6/MG3PSGjZsmHKr+zoYUxNnqMxk9AOcNrCZatLSfx2MqYUDKjMJ/aCmO28q2uekngX6r4cxNXBAZSajzQrNGcjouel7xxkqMwYOqMwkdAOYOYOZpbwOljXxQSlmdNrApVvNpmU0rV69WikbU+3atROej+i/DsbUwhkqMyrtmVDaAEa0AY2O8H/88cdGDWr02GfOnFG6TOkGUqKdX79+vXLLsj7dz98YOKAyo0rtC3zs2DExZ5xMUfuYrVu3xjfffKPM69LWkD788EPllrGM4oDKjEY78A1lqRTcDE1EG3QNrdeftAyt058Ifcd27dplcL2trS06dOigbBcWFqbcMpYRZm9D5aCadT148EC5pc+ZgmZKEzG0XH8i2mBIDG2jP9G2hpZrp02bNimPxQGVqcGsAZVwQGVpRQFQS3eeMUth9oDKR/qzPm1WqTu9LW1m+bbUfC2M6eMMlRmdNgDSbXR0tDJv6kBGz6t9TvrO6b4mxtTCAZWZlL29vRLETB3IHBwcEp6Xs1JmLBxQmcloq9g00RF2U9N9fpoYUxu3oTKToMyQslMt/c9dP9ipMaWWBX/77bcmz5KZ+Rn7M+cMlZkMtWPSF1o7aVHwI7GxsUnWZ2SiKj71f82ZM6fy2ER3/YwZM8RSxtTDAZUZXWrZojaY0no1mwGioqKUx3zx4gVcXV3F0qSCg4MTnp8xNXBAZUZH14xK6WwpLUPr1JjI8+fPDa6jSwfXqFFD2YYxNXAbKjM6uqqptqqtPxFDy9WcUnuOs2fPKusZUwNnqMxoqB0zszDmlVeZ9eCAyoymbt26yq2h6rZ2MlUgM/Tc2okUKVJEuWUsIzigMqMyVM3Wnag5wNgMPa/+xJgauA2VMcZUwhkqY8xqGLs2wgGVMcZUwgGVMcZUwgGVMcZUwgelGGNMJZyhMsaYSjigMsaYSjigMsaYSrgNlTHGVMIZKmPManDHfsZYpkVjNdBg3zRpr3iblWWTI7ZJRoaoXr06Ll68KEqJjh49igYNGoiSBm1H2+srWLAgAgICROntbdu2DZMmTULevHkzxYdMo84/ffpUlBgzn0KFCsHX1xd58uTBq1evEgJmUFCQ2CJ1Q4YMwezZs0Up4zZv3oxOnTqJkkZqcaJNmzbYvXu3KGk8evRIGWxcDWYPqIcOHUKjRo1EScPYAbVbt25Ys2YNqlWrhmfPnomlzJTc3d3h4uIiSswUwsLClCkjHB0dcevWLeW2QIEC8PLyUpYXLlz4jZewuXnzJk6ePAl/f38lMKvB0gIqtSmYhBy8pGzZsiWbDh48KLZIdOHCBYPbenp6ii0yZsSIEZK8AyX5H1YsYYylFf125MAkSmm3a9cu5b779u0TSzJu06ZN6YoTrVu3TrZ9YGCgWJtxVtmG+uTJE4SHhyv/soyxtKPfKzVB6V4SPK3keKM0DeTIkUMsyXqsMqDS5Yrt7OxEiTGWVnSxxVy5ciEiIkIsSTttAkOBNauyyn6o9JwcUBl7Ozlz5lSy1PTSXmMsK/c9t9oMNXkD+h0sapoLzf64gxixJMGzQxhWvDImnY0UCxizXpShvk1A9fT0VG4jI7Pu78gqAyp19Uieob5C6KMIHPxhAY6Hi0XC01NrsNL3Bi77vBRLGLNebxtQnz9/rtya89iFsZsbrDKgplrlf7AIiw4GI/FV+WHf76sQhDjExmk/jHg8u7IRkz9pgJrv9cfMLVfwTFuLubMITct0wKDP6iO/XTY4FW+PX0890zweras5CZpENx4Pdn6DKtpy/DNc2TgZnzSoiff6z8SWK8/kLVITjG198sO97zY8Tnix8bj4UxXUnHYOylNEXMfffcvAxSYbstl5ouXsU3im3fblSYwvY6Nz9U93fL4rVKwEYgJOYMUP32HM7HU49SAycX/cWYqWbrr3y4aKk87Kz3cVs6rXxLRzacw+grehT/7Ex9BMia8hPvgwJjfODzta7lQeA7f4amoOqezDiOt/o28ZF9jI97HzbInZ2v2OZzjyXRnNY2knuy5Y+0RZqez7W7vnYcywKVi473rCZ/ns0DCUavUXfGJ1yp1WIpAe9Poc1KiqfR0vcWFWfeTqINaRFB4zK3jbNlRtrdAcv3lTMUtApS+0ljnaUwxX+TWKli+MXQu2w1f8iOKvbcOc48VQp0Jin8mI45NQv/Zw3KkzDBP7eGBvv5qo0GsVfOgX/yoUj25vwe87XfDFX1uwuHcUJrcbhh0U9WhdZBzipHgEH56ATl1WwL17S5RwisDxSfVRe/gd1Bk2EX089qJfzQrotconefNDgnjEx75GyIrfsE37YiNOYu3Cq7hz6xGi5B/5yZkd0e/IO5i2fju2L/oYIWO6YspRkX6HBeFeiDeG7LqLgIBDGFMiBMHP6AqkcpDa8hlKl+2HDY/iEHXxV7xfszdWK29O9uox/MKrYuhK+TG3/41R9V0QL2f8khy64l7ewa1HUZrt3kT+3GNfy6/tpJ/SZzAg4Czmt4gWr8EPaz//AL/afI6/tmzHhinlsbHrF1hBkS2lfYiTmNmxH468Mw3rt2/Hoo9DMKbrFGje7is8CwhB/s4/Y4O8bvu8HigYFys/hrwq4ix+blIKzX44iRd4hB2D6qDRpOPKH8+r8GA88/PDY3Huh1K+cRN+ckXlWeAdBEXT65Dfyr31+H7icUTc0qxL7TGzAup/GhoampClUr/Sw4cPJ5mOHTumnABAk/bKttpLhmflgGqWfqjyjk2YX79+vdgikbH7oTZv3lwqX768KGk9lNZ1zS21nzhDap+rmjTtYqS87Im06wsPqejQldLiT/JK7f8Jlpfdk5a1dpEazL0lRSv3uyL9XCm7lKv5fOmKfJfQ/QMlTzSQ5t7SrJXirkpz6+SQPvjnkRR/6UepTNlx0v5DP0p1nPJKTX8+KYXGy9vcWya1dtG5z5WfpUrZc0nN51+R6FUYFiBtkl8TfYTVpl1UtvNd2V7KJZfR/h8pOPI/aZSXp9R/9xOJnkKSt/hvlJfkOXCf9IyKynO2l5S3JF2SfiwDzft7slcaWLSY9PW+pwn3O/F9acnt063SU2VT+T1Aez+xz5SC5jGqy/tq+/bt0vbDl6XHUZpHMChgk/RJ3rLSuBMR2gXK+1EeS39/iH3eeME9KSaFfRj53yjJy7O/tPuJeE7x/gfuo3ereeyy405I9Gxx56ZIpeTHOBERJ13/vZGUs+kC6bb2qXxXyp9/bWnm1VfyS/xEyqtsp1mlW06YD/OTNvQqSP0PJaThMbOCQYMGKd+7oKAgpXz69GmpXr16yjL9ifp8a925c0dZtmfPHrEk49LbD7VVq1bJts/0/VDlNyHmLKkNNTts7eTdUfJ99P84EL8vP43QG+sxfWV5jP6yHnKLrRB8DYfOFkaTmp5QeuI9C8b9kNfwrFsNXs5A7jKN0CB3HuRxE/30bIqjepN8uHXTT84ZZXd/RJtm3+HkKyCPRz7kkJ8y+NohnC3cBDU9Nfd5FnwfIa89UbeaF+SHTJWtvT0u/b4cp4NOYvGEoyhWpwKUXDrsMR5E5IK7q6Oohjgjf8kSCHvwWMl6n90/g0vl30UVOQLrenZpKzY+8MPcFu5K1TlbthyoO+k2ws5ewP1ktflQ+FzSnmkm7z/77Dg/qy/6ft0fPZtXRrne6/FAJM/JuOVH0ZxiXt+LIPi80NmHyAevCrkRFPAYSrJoYB+GPX6AiFzucHUUX2nn/ChZIgwPHifP8YMf3JBfObmLIytOIOLglyjtIJoCvLpj6/PzOHFNVGlvTkbdnJp1hTr+gxDNUg3v4si+dyQ+31Ef06Z3Ql5lYRoeM5NzdXVVbqkvN6lVqxZ+/vnnZLW+Hj16YNy4caLEVX6jMXdApdMetV+G5PLi3d6fw/G3QejSfxIutR+IDiV0gq9SVZWrevH0uuXq8YG/sOoR8OjBE82PPbstKC4nisarCJ0fddxrlBl7FFfWv4//vhqK1fdi5IeMxWs5yGse8gEO/LVKrig+woMnbx5noGSvwegSswhDu/bHL9m/xqQBVaF0TinghcoeQbjuEwJNTHuKu6evoWgVbzm0PsP5zRuRq2V9FEs4PlAWVbyd4eCUE/bO7bDoir+oit/D6S3/YNOSfqicQw64Tx4iomwVyJvqyQPvyrnl5NgPwT4P8OTiXJTa+A+OpXRmr7ML3DS9aIQoPA8V79e9NGrmvY2bPuLAh7xPLh8LRZmyxTR/MAb2YQGvyvAIug6fEBHBn97F6WtFlfck18ERdD8Cpct6a/5sEtjB2dUe5b7bDx/lvcrTtQNY9c9uTG2dV66i2iF7ySHYdVesOzQGJcQ9Fae+R+dP96LJnB/xURknsTD1x8wK9AMqqVOnDlatWpUQNOmc/RUrViQ5vVg7bgb1Zc2qzB5QzdGGSkcbnZy0P4DknOv0xYRWfjh0xA59P2uKArp7ybMa3q//GDN6dcOAAZ3Qstc6uFavCrtVYzDnuPYgyE5M/3E77oTH4Nn5v/HT8hd4p1Yp+cvlAW+XNhj5VUNU7DAZv7U/jf91nApf79ao/3gGenUbgAGdWqLXOldUr2qHVWPm4PgbGt5yle2K/p974NK/V1Hn296ors36bKqixw8dcLxPXTTrORgDOjdDt40NMK53dbg8PYV1613xQaMCeP5IDt2PQvE87jmCQl7A4Z1+mPzecQz4YDCWHzyGXXP6o0PnH3A5mxvifA9g3tTliG5YF6VTOA3f/9wB7NixA2vXbMR1j5LwTBI0U/MCQdoA6vkeho3Og5lNaqPDwGHo1+I9DI8chhGtCyB7CvvwVLFP8EOH4+hTtxl6Dh6Azs26YWODcehdPQrn/5qOXy7VRjP9dBzeaDPqGzjN+QjdftyCU0f+wYiPO+HTjSHIkzM7ChQrhzy2OeFWwFPp8uOZJxeS5GAh/sj+2Wos6OYth1Gt1B8zKzAUUEmXLl2UoPrtt98aHABFvy01KzJ7QDVHhkqnzcXE6FcFneBaIDdex0bJeWcxtBjYC951B+HT2vTlsYF9Dhc42NLrLoauC7fge68rWL7sMkqN3Y3DJ3ZgWe/n+GPpSWiHnrj12wcoLadgeWoMxZW2C/B9Szk7yV0MlbztIEXLfyI2RdHpt62YnGMxlga8h4VbvofXleVYdrkUxu4+jBM7lqH38z+w9ORtbOtTNskReA3N6y1WpBgafzELA9pPxIROXnCQsyp3eTn98D3bL8K1y4vxUVFbOFUbip1nl6Kbtx8Wde2EP4Ju4Mfm3sogFYUKNcHUe4/wZ4eB2BBaAj3WXMK+wTmw/YexmHveGyP37sLImjkQdm0z/i00EevGNZPzUc1ryONZGAVy07NpXs/thX3Rvm0HDFiTE5PWjsW7UdvQp+znSPbyqYnAOQec7LTfBd3Hcka1oYdw5+Ao1JazYo9283H6yPeol1v+uqa0D086of2ia7i8+CMUtXWS778TZ5d2g3fcQxzfE4w2f/6OPuU06biTawHkzu+OnPJTuTccj/2nFqKF3wJ8N34TotovxLklXZBP2TAPPF+FIELbbCHXPuztbEFfA+UxqnyPVRObIq/8stL8mFlASgGVUFCdMWOGKCVFB4OJ7u8/yxFtqUane1DK0dExYX7ZsmVii0TGPijVsWNHqXDhwqKkMuVgS2NpwY2nUlBAgBQQ9ExK7djMm2kOJtX79YYUJZZkDB080j0YJCQ52KQi5eBQPenXG+q8emZ+hw4dUg4uLVmyRCxJmzNnzij3o/urhQ9KyeQ3IeYsKUNVUxACwhxQgKqJBdzgkJG9/PQolq0sg75tvDVtoxnmBI+KFeCZizJBHa5FUMZLzrL0FmfU06PLsLJMX7TxVufVM/PT9kF1dn7TIdOktBmqOdtQ5Zgn5ozD7AHVHG2odITfaANLu3mgRP78cKe6nxrcW+EP393oVzL9o/sYVgq91q/Hl+X1zlYp9jG23F+I1pq6vGrcW/0B3939oNrLZ2b3tgFV24aq+/vPaswSUHX/obJchupcBxOvH8GgCuY7vY4xY8rMGaqxmT1DNVdApQxV+wEzxtJOG1BT6yljCAdUI7GEgErPa9x2VMayJu0pp1zlT84qAyqN51iyZEml0zVjLH1evnyp/H7oNj3oShl07am3GakqszDLRfqoH5u2D9svv/yCQYMGKfNaxr5I3+DBgzF37lylymKNWSp1rM7KWQIzHqquU6ZJiVBKAwxRSEntoC+dpjp06FBRypj0XqSvVatW2Lt3ryhpZPqrnrq5uSVcfXHWrFnKaWq6jB1Q165di6lTpyqBJT29DCj4ancX3c9Eu44xi0EBVb9WmdIfNC2j5jW6pTFQaaIgPH/+fJQuXVpslTGWFlDN0rE/T548CfPyv5XYIpGxO/YzxrKG9Hbsb9myZbLttaNmqcEq21AZY9ZJjnlizjjMElB1u02Yo2M/Y4wZA2eojDGmEg6ojDGmEg6ojDGmErMEVN1T1jigMsayCrME1FevXok5xhjLOswSUHXpVv8ZYywzM0tA1e0LxgGVMZZVcIbKGLMaxu7Yb5Zz+fPly6eMPEMmT56MMWPGKPNaxj6Xn/j7+ycMJ0YHxtIzRiOd05/ekXbSyxTPkRlpzwlXCw1BR+ebq4Uum5zSoCFvI1euXFl6/NCMSu+5/O+99x72798vShqBgYEoUKCAKGWM2QPqlClTMHr0aGVey9gBlT6Ejh07ihKUgRGCgoJEibGsiQI9DZ+nFvpjS8ugIu7u7oiKilJua9SogYEDB4o1GccBVUY79unTp8o8jfo0atQoZV7L2AF1wIAB+P3330UJqFSpUsIo5FkR7W/KnDIb+pOjH6I18vLyEnMpS2kbqnlRDUwX7UdzJQ3FixfHhQsXlBHmKlasiCtXrog1GWdpAdUso03JGWrC/LRp08QWiYw92lS3bt3oT0QaMmSIWMIYMyY5YZEaNGggyVmyFBsbK5ZmXHpHm2rRokWy7TP9aFPy84o58xyUonYz+ncPCQkRSxhjxkQ1JGoeoCYHPz8/sTTrscqj/HQJFF9fX6UqzBgzDWpyoN9dVj6xxyoDap48movPp/XoKR+wYizjtFc95YCqMnNX+bUB9U3PTY37rVu3Vhq5qWH95s2bYk1axePu8vbIa5tNea4kk2N9zLrE3aKY9dCO4ZGVm9qsMkPVdvXQ9jTQdffuXSWA0uuys7PDyZMnceLECeU+5cqVSxoUxfTxxx+Le+sLwZ1/z6DCzxeUo46J01Ws7HwfB648E9sxlvVpM1Rz0k3mjMEqM1QtQ10lqPG8Tp06aNy4MWrWrKlkqdSNi7p80KVzabn+VKFCBXFvwxxd3eHp6akz5YObs4TYOO1+iEXg8b8wpF11vNNxFBb/ex8RYhCu8P/GoGKtfhj2YWnktLWDa6UvsP5uYlei2MDj+GtIO1R/pyNGLf4X97V3xG3Mr+OA6j+cReJFex9j1/+80GHVI1GWc+iwO9i/YByGTVyA3Vefgk51eLp3AArr/Wlky9MTW+7+hzEVa6HfsA9ROqct7Fwr4Yv1d6G8mphLmFmrDmZc1M+6n2LvAO8kz8msU5EiRZTbZ8+ybiJhlRmqlqHnpkx006ZNOHToEM6cOaNckZX6yVKvACrTcv1p7Nix4t5vIx5+6/ugRvtlcOg0HiNbRWB+m3Jo8P0RPJVjY/Tzxwg5uxjzLr2DyWvW4qdG5/BZ11k4K0fJeL/16FOjPZY5dML4ka0QMb8NyjX4HkfojniNuNgYXJi3GMdFDSve7zCWbPSD7/1gUNiLvPgbWpduhO//DZdj7V4Mb9AQYw4/RZ4m03FezqSvruyO/PnbYfq67dizexKaujzH45CzWDzvEt6ZvAZrf2qEc591xSx6MfYOsH/9BE8i9C/L/Rrxsa/wMpqHabR22jPcdIfvzGqsOkNNy0EpOjWW/lF37dqlXP56wYIFyj9tw4YNlSOWbyZncrapvMdXF7B83D60WrwG0/p8gI6d26O2azSePo6UQy3wItgXYfn7YO2RZRjSuSO+mDwDfUL/wtoLQbiwfBz2tVqMNdP64IOOndG+tiuinz5GpO5luh6twML9/nJYe4VLK6diYygQEfYCMfF3sW7UWESO3YeD/8zBz/M2Yvfiqlg0ZCEuxeZCfjmTzufmjOwuZVGv+ft4r3Zx5HwZDN+w/Oiz9giWDemMjl9Mxow+ofhr7QVoLgr+AjcP/YMfRw5LkvEyRh4/fqzc5s6dW7nNijhD1UNH9Om01CZNmiSbKIj2798f48ePV5oGqEzLJ0yYIO6t7wWCfXOhQrEcomzAw9PYcacK3q1eUPNhPH+EO3JGWaFeZRSQFxSr2QplXNyR20l8VLlLom7NUFy8dw2nd9xBlXero6DmjnikuSMq0x0FW/sYbJu/FXd8d2HGzBeoVUecKuh3DP8cDsfxwRXhJO8H2heFO69G6LX/cC2lGlmxmmhVxgXuuZ3EFyc3StatidCL90SzwmNsGz8QI39ZguUzB6J1tYb4/pgf7l/RnGbMrFtkZKRy6+DgoNxmRYm/PBOylAzV0OlpL168UDLPlCYtCqjUrkrLUjrNDYjB89A3nDr5Og6x8fIUR1XiSJzftBDH5Ls8fvREqZbb2NrBRtlQKxYvw+kxqUofL09x8px8z/ObsFBzRzzRacZs2H8wGpz+Gf16fYOddcdhTCdPzQo7Z7g6lsSQnXcSDpbdPLwGf++cgbYFNZskYyNn20lfDGJfhmvaUJEDHsXd0GLJQ0hRoXgS9gBbe4VhzdYzCJJfJ2Pa33pWHuzF7O/MHAFV26+0aNGiyq0uOvBE5x3fv38/2fTw4UOlTZWy1MOHDyvtp7T8zz//FPd+C8UaoEvlo/iuS3cM6tsGbb67iRK1SuPezPFYe0sEY59FmLz0BIKiohG4bx6mHSqDxlWqo0GXyjj6XRd0H9QXbdp8h5slaqH0vZkYv/aWCHIuyNewG77qEIb//o3DJ4PaoaQ2OSjSAsOG58OiT7ph8sYT+Hf1WHTv1BMrg13hluq3wgeLJi/FiaAoRAfuw7xph1CmcRXkgQNy5nZEVPhTPHr0CHdP78eeS7aoUrkYcop7MuumzVBpBK2syiozVO2weDREXmq2b9+uVOt79uyZEIRnz56ttKnSaFnUCyB1jsjjkQu2Nvq7OTts7DxR0tMJcKqOQetW4uPX+7BoQyha/nkIxw5twIzaJ7Fg600lS4VtJI58Ww8FnRzh+d48OI78FZ9XyYvqg9Zh5cevsW/RBoS2/BOHjh3Chhm1cXLBVtx8Sc9dEiUKlkTrMdPwSe9pGPxuXmS3dUS+fDlhL1fX6363E6eWtsfjxaMwbs0zvDf3NP7pXkh5hcQhV37kzZcPOZOMbmeLyCPfol5BJzh6vod5jiPx6+dV4CyHzeKNWuHFvK5Kz4dO4/5FiamHsKx7BRT0KIwCue3E/Zm1srHRVG+ycpXfLKNN0T/U8+fPlfm5c+fiq6++Uua1jD3a1BdffIGFCxfi119/xaBBg8RSDarGT5w4Ubldv349unTporweagpo0KCB2Cqp+vXr47PPPhMlld2cgxqNrmDi2R9R0yYKr+1yIX8+FzmsmcNNzKnRCFcmnsWPNW0Q9doOufLng4t5XgzLZCg5OXbsGO7duwdvb2+xNGPSO9pUixYtcODAAVHSUHO0KavMUIODg5VbQ1UPahOlI/lLly5Vgmi/fv2UTJQ6/NMyQ9M///wj7m0kj/3wNFseeFAfVrMFU63H8HuaTc5+Nf1pOZiytNJ2mzJ0Qo2pGDt/tMo2VO2pb66ursqtrqpVqyrnGtNZHR06dFD+VRctWoQlS5YoH4ahidpSjSZnYZT2LgDLqDHnROHS3lx9Z2+FD0oZCQUhLXMEVK3UnptGN6cO/tSZnw5G9e7dW6wxsUKdsOreCnyg0vi3GVMInVbdwwrLeDEsk6FTuQkPjmJE5gioNDgKnfmUlmsJUXVfzctGMGat8ubNm+XHIbbKDFU7HqqPj49YwhgzNrrMEP3u6KKYWZVZjvLnyJEjoU/aH3/8gf/973/KvJaxj/IPHz4cM2fOFKX0X1MqrRcns1R0Ci1NxkD7xdTdYug7ob2CLbM8dIUM6qq4e/dupfshNaO9ucth2qT3KH/z5s1x8OBBUdLI9Bfp0+5gYo6AShfoW7t2rSgB4eHhqY6AY84LnDGW2ZUvXx7Xr19X5imZoixVratlcECV6QZU6g+q34fT2AHV2NLTLYSCeVrHiaR9pt1v5kR/PvHx1n06KXVST8sgH2ndLiujKj59z0NDQ5XaXbNmzcSajOOAKqPhu7RH+ui0TerrqSuzB1TGmGmkN6BSMNfv5pjpO/brMme3KcYYU5NV90NljDE1cYbKGGMq4QyVMcZUwhkqY4yphDNUxhhTCWeojDGmEg6ojDGmEq7yM8ashrHPY+IMlTHGVMIZKmOMqYQzVMYYU4lZBkehEXi0oxWtXr0aXbt2Vea1jD04Cg3FR1c0pasv0sX36DG1w/fRsGIuLi7KvCXKDK+PhmizdvQZqTVEXWZGF7rUfl/pem00qSm9g6M0bdoUhw8fFiUNNQdHoeq3SVSrVk2Ss1FlsrW1TZhfu3at2CLRhQsXEtbrTp6enmKLjNm0aRP9iSRM8geepMwTTzypMxUqVChhfvz48eIXqB76LacnTjRp0iTZ9nKCJdZmnFkyVLrqofYyCDTQM137XpexM9STJ0+ibt26aNu2LaZNm4aSJUsmXOJWbTQ2Kv1LWyp/f/8sN9o91UBoUHBrR987c16ymdCVOWhAaaoR0oUvK1asiDlz5ihXE1YDZ6jyJFf5E+blHS22SGTsDPXYsWOSh4eH1LdvX7GEMWYsO3bskOQkSqkJ0u9u1apVYk3GWVqGapVH+en5KYuhf0zGmHE9evRIqZFSxky/u6zMKo/ya6v3XC1kzPioiU+XOX7zWrrJnJaar8cqM1TtVTmjo6OVW6auhxt7wtM2m/LZJk450GV1AKz7SlTWiXr1WAurzFC1AZUzVOMIunIY7655pvxxaqcHq1oiwCcYMWIbZj0sKUM1NqsOqJyhmkfc/S34qkpOZJc/+xx1Z+BshFxjuf4b6jecjSv0Hxd+AlNql8XwIy/kjUNwccVXaFiuNKq1GoG1V8Oh9A+Ju48tg2vDXc6Ec5TshX9uaz7L6AcHMPWDSihduiH6zDuMB6/kx360Hh+5Jc2Yq/90Gcd/KIMWf9zhIG9k+gE1K+MMlZnYPaz4vD/8+h+CX8B9bG6yGJ9MP4GXkSF4EP4KsRRMW7yPv9+ZhcH1HXFrcVc0+iUXxm4+hNW9A/Fl9Zb4VY66IXumou+hVthwLwCHBt7HL+uv4VX4QYys9wnOtVuKA3unotTfrVHr6x147NEFa8LkTPn0BBRuvwi3A4JwaHAlOCAOj0MiuBnCyDhDNSFz7FztQSnOUM3g4Rlsu/kBvv6kJop4eqFF556I234YN+mq4mEHMbl9a3zvNAXbZ7VBYdsb2DX/Pj7/ZSxalimEwgXcYVeyBeoUc0DeBiNwaPMniJj9EbpOuI7SZTwQcWwllleajjl9aqCIlwfc7YE6TWrBXfdb7uSGfJ4F4OqQDfm9q8B/ZkdULk3Z73js8c9a/XEtBbehmpA5M1QOqMbwEPcueaB8UTmaGWJjC7vscYiP0xyYjIuPxWtbW8g1d/muR/Gg7lfoemsSJmx9KOePUQgPcUHuHPQ1jcTZXevx5EUU4mzkjV1Lo7K3B0p3HophHfPj6PYzeBAWiljXnHCh3++9/7DubBRiYmOV03RSUqDVt/hj6VIMLbURnYdvQUhqG7O3whmqCZkrQ6WgylV+Y5EDJAU9QzwbomeLXRg6fAG27NiAmVMWoFjfdijjVQa1ao7Fgh+m4o9N/XF1yChseZgLRcv6YcO6fTi2ZgwGzn+GHI83Ydv5cFz4sSwK9tiJWO938F7Lmoi85w/bAiXhevgfrD98ED9/Mxwnsrvg0Nr9eJha4unujeJenihTphg0f7NMbdyGmsVREHdycuIM1SgKwrtKLIKfJW2ZtLG1g52ciWZDAbSddxzzyv2LH7/9BbdarsXKL8rBwdkNBaJD8Py1nHzWHYPlI+5jzJwgdFq4HA0O9EXz/sfw3rqb8D3UE3u//QM2ff7BqPDvUKtIIVQfG4mps3uhSvMx2Dw6FpPatMfvtpNx5OElLMkxCt/vCNe8iOx2cLan16Dh7FYALxZ2QolCpdFqaRH8Pr4V8mTd5MlsrClDpS4tJqF76qnutHPnTrFFImOfekroFDgauIExZlz6gxFt2LBBrMm49J562qhRo2TbBwcHi7UZZ5VVfsIZKmPmYa7fvClYbUCldlRuQ2WMqclqA2rRokUhV/tFiVkqSx76MLMLCwtThtbLyHT27FllOLyUph07dsDHx0dJYHLnzq0MlfnqFfWRy5rMMh6qrj179qBFixaipGHs8VBJkyZNlA/cy8tLGQ80PWOCUlNBenabsbdniegAiL19Cl22UkA9PtLzx06jlKk1Uhl9zik1PdEITTExhs/joitexMbGipLlov2k/9tauXIlPv74Y1HKmPSOh9q4cWMcPXpUlDRoBKz8+fOLUgbJH6hJpHRQat++fWKLRKY4KNWgQQOlgZwmemztPE888aTe5OzsnGzZtm3bxK8w4/iglB75DYk50+rXrx+WLFmCmjVrJnT0Z4ypi6r5+rJyv1SzV/n379+vXJZAlymq/Frjxo3DokWLsvzAt5lR4cKFeRDwTM7Ozg537twRJY2sXOU3e0A9cOCA0p6py5QBNTQ0FH5+fmnOlKl9Lr1tdGklV4+M8u9N51JTNzFjMOb+YOxNOKDqOXjwoPImdZkyoDLGMq/0BtRGjRrh33//FSUNNQOq1bahMsaY2jigMsaYSjigMsaYSjigMsaYSjigMsaYSjigMsaYSjigMsaYSjigMsaYSjigMsashrHPY+KAyhhjKuGAyhhjKuGAyhhjKuGAyhhjKuGAyhhjKuGAyhhjKuGAyhhjKjF7QGWMsayCM1TGmNXgjv2MMZZJcEBljDGVcEBljDGVcEBljDGVcEBljDGVcEBljDGVcEBljDGVcEBljDGVcEBljFkN7tjPGGOZBAdUxhhTifUG1PiXeHD5IvwiX4sFKYh5hPPHryE0XpQZYywFVhtQH+8ZhNpVqqFkj7UIFsuSiffHps+qokb9quj6113EisWMMWaI1QbU+Lg4UG4ad/0K7j3XLNMXuGsCvv7niTwXBwfnHLDTLGaMMYOsNqAW9K6E/DQT+ABPopVFSYUcwE+DliDgDS0CliD+ZQiCHj1CcFiU8idh6WIencfhM354U2sLe5MYPDp/GGf8IjPF524NrLcN1SEX8jrItxGhiIjTLEr0Aid+GYA59w19TePhv6UvCjsURLd/7iJJLA7chQHednCqPgUn5az35aW5aJbbRnmPhicnVJ9yEokJsvwD+XcWupbPAzta75QftXvMwj6fpD+YF+d/RoMc8n1HLMVfwxrC09UdBQsVgkfunCj03k/497GhBt+0PbZGPJ7d3oPfxw7DsGHDMHnpUdwL133MtO+DBPHPcH7hJyifxw4OhWqgSe2SKPnuYKy4ECo/WnLxz65i7bDGKOpC+88ObqWbYciKC2lry5af6+qm79FR971+thQXDNw55tG/+K1PQ5SUX5edW1FUbvEl5uy5jSRv901iHuHkP9Pwnbyvho2Zhc0XHiPKwFcnTe/p5SXMbZYbNgnfEc1kV/ATrPHVNDrFPzuPhZ+URx47BxSq0QS1S5bEu4NXGHx/8pcFs5skfzyanKpPxH+hmhca778FfQs7oGC3f3A36QeKXQO8YedUHVOSfKBJ953mMeX3VLQUqrTohfFrruC5oZ9PVieZSLVq1SR5pyeb/Pz8xBaJLly4YHBbT09PsYUKHm2RPs0HCXhPWvwgXizUiDg9TarpQOu0k4fUf0+IWPtI2vJpPs3yNivkko4rM6UKyvY1pB8vvZRuL3xXkmO2zuMYmJr8IfnEyveNeyjtGlZVcja0jWM1acKxEEn7Kq/MrJB8G53JtsL30vFwsTFJx2PL7166tKCtlC+73nZ5Gkszjmu3S/s+0IiQzs2sb/j5kUdqPOO4FKLzEURcWiC1zZfdwLa2ksdHf0t3osSGBj2VDg0vI9kmu6+8Xzz6SVsCdd7puZlSfefk22meZ5l044XOi0pB3MNd0rCqzsnuX7zfBslH53Wm+T0l7D/9qZz0/akIetHSzPr6zyemJJ+RkOLj0VRaGv2f5ovyaMunUj5lWRtpRdIPVJpZQbN9jR8vSQmfaIr7TjuJ12tkmzZtSlecqF+/frLtHz9+LNZmnNkD6oMHD8QWiUwbUBO/VIqI09K0mg7Kl8K2aHmpTC79bdISTMT2EXelPfPHSEOHDpWG9qgjuSnrckpVPhyoWTZ0krT6crj8A4iTbi5sKgKO/GPsOFVasXm7tGH+AKmWm/gRFh4g7Xms+akkDajyD7L+IGnehlXSlHaFRCCxlZr9cUeKUbZO32M/2tZPKiSCqa1rEalkiYJSDm1wLf2ddFSJfOnYB7K4mwulpuLHZ1u8pTRqwQZp1ZR2UiFb8bioIk0590LZVnq6XxpSXLyuPLWkgfM2SNu3J31vjebdlFKMqbcXSu/Sn6FtBWnwlltSWJwkRT8+KI0srXnMhvNua/aL7vPYekj1P/la/jz6SS1L5JDkapuyPE/XVdJ9zU40LPKi9EtDbXBzlPIVLyUVzW0ryjmltotva15net5Twv7T/Z4MlSb9c14KidP7LFuOkhYk+dzlqcoUSbsrybODQ6QiyrrCUtPPNY+V+F1MX0AtPfo/Sdk67ro0v4HmNwJbV6lyhwHidfaT3i+XW7wWvd+VkaQ3oNarVy/Z9lkqoD58+FBskch8AfWptH9Icc0PyraRNO/IOrGN7r9t+oJJgtTWPd0rDfCkdZAKD9gjidimSMyWc0o9NtMHHymdGFtC8/zyj6rCyENSsBw0FLpf9Bo/SkqCmJ7Hjjwvzawt/kwqjJH+VYJnnBR6YqrYzlaqO+uynKWkbx8kZOq0T28mhsLo+2uk7sr+1f5Y46Tr8xsY3Jay7I09xXNq35sh136Rqsl/ADl7bJY0P5M4KfLO6oTn0QZUvzWdEoLKd0d1srqX56Wfatgr29rWnSVdTul5ZIlBKI/UacUdTUCMvi+t6S5eZ56+0vYn6XxPqX1PpNvSwnfF59NonpT4UNHS/TXdxWtJer/7f7eTctHynD0k5etDDDxHugKq2MdJ/jS0Un396rO0gGq9bajJULvgcHw65z5eIw86LVmEfkWjEaq0JxVHqSIuylZJ7OwJT502qWyVvsU1sSqZ3N6oklfM6wm7vBPbHmnm/ee3RH6bxMfMWXsUziqvIQKhSmNvAK4c9acFgPdQ/D6ysby9pgibcmj95XuQf0DAue045h+brseOv3sQK5QFhfHVnGFokIe+HjbIXecLzB5VC8627ihfIh+o6TnBG/dBIG78d0PTztr0U7QrlXhve6/G+KR9AWX+9tlbCH/tg2Orz2i2jTuCr8o6Jj6ubRF0WkE9LmQR4XiRUh+28v2w7t+jOPFra4T+1Qq5bWyRo1Q3rJTvKlf58W2nErCT9+G5LUcQJm9u23Ycvq6fRxxMCMOR8R9i5LkYeiCM+eV/qOSkrDAgEGc27gS9Ittm0/DjRyU1+8XeC50n/4ou+bLDsVxFFHZS4T1pBd7AfzeUR5J3ZTsk7kp7eDX+BJpdeRtnb4WLdvEw3D97UdNGX7Uuysv/IOTlizBEKXNeKJnse70TPT3F61OmSvg2xS818CrsCUJepKfBOWvjgCq8OP8LunXXHNXP0+lX/Pih/AN5EQSfpO3wby+7DexS2NuvIp6JL3hqbBEfE404lEKbIZ2hxOYHtxGgd0evKo0gV/FkwQh48ipdjx3oewWP6Jfo0Q5tqubWrFLkRYPxpxEZG4hF7T3e/ktjawfbJHfOj6Ll3DWzvnfx8EU0nodoAkaqYmMQRzmTQS4oUa8hKuSJQ3jAAyQ9MPICEUrUegafSyHKEu/K3siZ8Jr8cXbnPRGM4hAbl+TOekJw56wmGNbt1ATFdPrU2Xh/jHWP4/Hq2DeokkON95ScrZ1t0s8hf1Ek7sqH8juVvbyJg9seKstKN6yKAuI1hj9+KA6E2sIu6QeSNvIf4af1neWZCBwYWh+FctqK4CtPCX+oBVAoX4r/RlnWW/821GL+gGqDbMFbMaj9CPz3Uv6KVRiDLX92R8kkaZguG9hqv4SFm+LzoUMxVDv1qAORBLydHI0wdvV2bN9uYNpzEos+8ZJ/AhSb7TQfXJz8I9T7zcfHxRo4ai9Lw2NrE10454RTQsGQ9OwDV+QvouTM8u/vuV4WFoJAn2ea2ZLlUFxsRrw//R2bDL1WeTqyaxwauIoNk4lB+FM5A3vtjNpjzuJxoC8u7/wBLeWMMS5oDfpP3K1klQYF+uDKYzEPH1x/8ErMp87JyTFx36UiTe8puy3sU/pVuuZH4q58kfREk5BAJO7K4kot5eXVvdhwn5YURutm5TQ1lxTY2GoDdGE0/Vzn8xzaA3X0v9TOVTBwwY+oYy/KBuVELhcr7Lktqv5Gl1IbamBgoNgikWnbUPNIhQuLAwt5OkkrdA8hp9ATIOGgUOnRUpJmovt/S+2SHcQSUjoIJou7Pl9qINook7aJBktHJtWX3Ow9pO6r74uDTLrtXfL2g3dKvgkvOUI6Pa2mpr1OtJml57EjT4yVSiiPm7RdMS74P2nWh02lT34/lXA0Pj374OneAZKneNxhB4Ml7UtIPFKsPYj2VNo7wFPzuPJnseTGi4TXEHHjH6l3cVvJsdpk6YTertV1d3FzyZne65h/dXoOxEkXppXTPK7S5ntf+rtdLqVs2+hX6SodzY97KG3uUyjhgBRN3iOOSmHiEZJLfIycbRdLt3U+gxvrhkrvt/5O2qIc5k/ne0rle5LksUoPkw4mfJg6vShsm0l/3FE+TenUxHKa91N4sHQgVLMlMdhemmLbZ+L7TGhD1W3rlidb18pShwGaA15ftCkhluu3xRoHH5TSm4KCgsQWiUwSULVHg8WXInn3IVkKX+4Ug0nC9pDa6H+b/DdK3fMmfyyNR9K2fok/Zjq6/k6n7kmOOJf7/pT8sxFbJ/wgNJNjmY+kafNmScM6V5XcxBH5PL02S5oeQul47MhT0sRy4mi0Yxnp0183SNs3zJe+1HYL0nm/6doHekfDy7QfIA0d0Fmqqu1lkKeXtFl0Z4q8+IvUMKE7jqOUr3xz6cOOtaX82h4Bth2kVcm/MgkSu6rlkRqPWi+d9fWV5AxVkjNU5f5VppyT6CB44kEpef8Vqys1rZ4/8Ui5drKtII08lPgHoC/xMWwljxajpaWbt0urJrVM6HKmff/pek+pfYdkSR5L/ozay4FsgIHPPTpgm/S5OBjpVO4DaYDoLZBi0EsxoBo4ABlxXBorek0kfs80Uj64ZRwcUPWm4OBgsUUikwTUhC+QPBnqv6fQHuG0lTro/Ir9N3aX8tL9HLtIa3Vffmo/hjcd/Yy+L237xlBf0eR9IvUDarJJP9NOx2On3L9Q50i2LL37wHB/TXlKtu/jpNBz8w332ZT/9MYdTjnAKVLpp5nYc0FmICPVbrN7/0+J+0Avu0sihcfQPk7Cc6XnPb0hoNJjPdw1TKpq4DPK03iGdJye02+N1Mkt+XpDU55OKzR9YBP+8B2lLkk/0GQBNeH7Z1tL+vGCTh8tGQdUE7G4gPpom9SvUHa5ujVc2p1YZ9bzTDo6qpxkK2cq3+v2lH90WJraoY7U/uekHdKluJvSopZukr1Hd2m1fgdGOUub05TWJe1cnlScFOl3Vto4R/RdHTpJWnLMV9LvXx68o59UQPnSlpZad2uQmOnIP4Zi70+W9hp8P2l7bBIdcFSa27uuVCSHJgA4FntfmrzXN2n3mLfZB9GPpWs750tj+r0vVanTSRr68ybpUkgK4ZG23b9U+mGEJqsandq2euJCr0gbx3WQyok+obaupaSmg5dL5/XvHx0gHZ3bW6pbJIdkT5l7vyUJ20ScmyU1drOXPLqvTr0valyodGXjOKmDtv8l9cvss1y6HG5ox6bhPclBeusXxSVbx/rSrItJg5Wu6MfXpJ3zx0j93q8i1ek0VPp50yVJ+1Bv/MNNMmn/4B9Jh6d2kOq0/1kTlBPESTcXtUzSNER/jiOb1kj+2cvibi6SWqZlv6mEA2oa3oxJAmpmlpDtirOR4iKlp4FB0rNXBn7EzOqkKUtMyEhTyoQzh/QG1Lp16ybbXs2AKtdWzEt+Q2KOpV8EwumwuY0z8noUgJuj2T9Ollmk0o2PvT0OqIxlMfmrd0an4o7w6N4LDUTf1JTlRJ6c1BmPqYEDambk1QT9GrvBvsKHaF3WwBlczKrZFG6HBT6vEPjPR/BKqSto/uro2LYQ7D264sN3UjiFj6UbB9TMyKU6vjn0DNFXp4jTQxlLJ5vC+GCxP6IDF6G9B3+H1MIBlTHGVMIBlTHGVMIBlTHGVMIBlTHGVMIBlTFmNSSJzmUwHg6ojDGmEg6ojDGmEg6ojDGmEg6ojDGmEg6ojDGmEg6ojDGmEg6ojDGmEg6ojDGrwf1QGWMsk8hGw/aLeaOqXr06Ll68KEqJ4uLikD170rhO29H2+goWLIiAgABRMr0XL17gyZMnCAwMxPPnz8VSphUUFCTmLEtsbCxCQ0NFKWU2NjZwd3/jiMxp4uLiokypyZcvn/Kc+vLkyQN7e8MXvU9tnTXavHkzOnXqJEoaqcWJOnXq4PTp06KkERwcrHwWajB7QI2Pj0+WpVpSQN2/fz+2bNmC3bt34+7du8qysmXL4ubNm8o8Y5akcOHCsLU1PAK/h4cHHB0dRSkRLaN1hlCgee+991CzZk24ubmJpZaDA6oOCqQUUPVZQkA9duwYRo0apdwS+pJSIK1atSpq1Khh8MtFGYl+hhMWFqZMmU1qP0xTMLQvLQHVUp4+fSpKaUPb0/1S4+/vr9TWUuLn5yfmkkrt9VCNISoqSpSSo3XpqVWULFlS+f43a9YM3bp1s4gAa2kB1axXPZWrO2JtUua86umdO3ekDh060J+MJAcUaciQIdKZM2ekV69eiS0Ysx5XrlyRVqxYIQ0cOFCSs1RJzmaV3wbdfvbZZ8pvw5zSe9XTd955J9n2Weaqp/KbEXOWYebMmShXrhy2b9+O3r1748aNG5g9e7ZS3TFUVWIsq6tYsSJ69OiBuXPnQg6eiIiIwLp169C4cWMsWrQItWrVUqb169eLe1g3DqjCL7/8guHDhyvBk744S5YsUao4jLFE1AzUpUsX7Nq1C/fv38fIkSPh6+uLDz/8EH369Hlj00ZWxwFVNn78eHzzzTdKVrpq1SqlnYgxljovLy9MmzZNqclRkF26dClat25t1UHV6gPq1KlTMWXKFCWYUmClLwljLO3o4CE1A1DzGB3EpaCa2gE2c5Kyesd+c6KuTxMmTFB6FFAbEQdTxt7ekCFDlIyVgupvv/0mlloXq81Qnz17hhEjRsDJyQmTJk16YydsxtibUU2P+q0uW7YMly9fFkuth9UG1EuXLmHbtm1Kn1KqojDGMo5OEKDjEdSXfO/evWKp9bDagPrnn3/C1dVVOUrJGFNPpUqVlOYzSlqsjVUGVDoP/+zZs6hduzZatmwpljLG1FCoUCHUr18fJ0+eRHR0tFhqHawyoNKperdv3+buUYwZiYODgzL2haHBX7Iyqwyo2i4d5jxXnbGsTDuCnKGxOrIyqw6odnZ2yi1jTF3azJQDqglxQGUsa9JmqK9fv1ZuLUWW7thvroBKAw4TrvIzZhxc5TcDzlAZy5q4ym8GHFAZy5q0Gaqxq9iWhgMqY0x1HFDNwNwBldtQGTMOSz0oZWxWGVC1B6U4Q2XMOLRtqJyhmhBX+RnLmjhDNQMOqIxlTdyGagbchspY1qT9bb18+VK5tRSGAryacYgzVMYYU4lVBlQ+KMWYadAVMayJVQZU7dkbHFAZY2qy6gyV21AZY2riNlTGGFMJB1TGGFMJH5RijDGV8EEpxhhTCR+UYoxZDWOfuWXWgGouzs7Oym1ERIRyyyzX33//jXLlyqF48eLKVKtWLezfv1+sZcyyWGWGGhYWptzmy5dPuWWWJSoqCr6+vrh58yb+97//KbdUpuns2bMYPnx4QpkxS2KVAVWb9msHcGCWg7JPbTZKmSkFV30XL15M2KZUqVIcWJnFsMqAqh1SjAOq5Zk3bx6CgoJE6c3u3r2L1atXixJj5sUBlVkUbXOMrqpVq2LatGkYOXIkPDw8xNJEhrJYxsyBAyqzaGXLlsW///6rBFMKqocOHYKLi4tYy5hlscqAym2omUfbtm2TBFAKsA0aNBAlxiwLZ6jMouhX+Q19RqGhoWKOMcvCAZVZFDc3NzGnMX/+fBw7dkyUgPXr1+P8+fOixFj6ZOmO/RxQ2Zu8ePECTZo0UTr0UzeqDz/8MGFwG8YsjVUGVG5DtVwlS5YUc4kogFKHfurgb4ihI/+MmQNnqMyijB8/Hr1790bjxo3TNH377bfK9oxZAg6ozKIULlwYS5YsUbpHpWWaMWMGHB0dxb0ZMy8OqIwxphKrDKjaNlRzPT9jLGviDJUxxlTCAZUxxlRitQGVgikHVMasC3fsNwLaqRxMGWNqs+oMlTHG1MQBlTHGVMIBlRlJLB7u+Rmj/jiOJ2IJY5ZIzXZVqwyo3IZqChE4uehbTP9uNg77i0WMWRBj9EfnDJWpRnrph0Nze6N+sTywz5YXXdfLCyN24tvefTBs1C9Yd8YXkTxQFDMj3eEhjRF/OKAyVcT6rUef0qXQdNAyHH/wTK7wC69f4sGBpZg1/Rt0rV0CBWsNwjbflKOqFB2OJ+HRopQxryND8JQjONNh6JplnKFmEA0H5+TkJEoso6Tnp/Fjh+5YFuiImiN34n5EJMKCfLBveBl5bVGMOfQIt44twbBGBRF1cS4+7DwdJ59r7qsRi4DDP6JTuTxwcHRDfjdH2Hq0xPSjgVDC4cvzmFnHWfm+GJ5s4f3NAYTQttIL3FjTH3ULOMPGxR35XByQq1p/rLya5AmZleJ+qEZgZ2eHZ8+eiRLLmDg83DQJky4CFcbuwoFpreHl4gzXAgWQO6etvD4bHHMWROn6vTFz3ynsGloB0ecnYcCiy5pgKQdTv3WfolqTkdh0MzGzjQ/ei1FNqqDXBmqAlRAbnVqmKSEmLp4iO05PbYgq3Rbg5ONXYt1rRFxcgE9qNsP0s5FiGWPGYbX1Xh6UWCVxj7D/nx2Idf0A4/9XH7nEYoPsCqHp6Ono4xqLqysP45a8SArdj2lfrcKT7PnQacFZBD4PQ/DjYFxa/AHyvX6CNcPm4ZhUA6MuxCjZhSSFYG0XerBimHyWyjTFw3/ue8hxfSmGyZE91qEyhu+8j+fhTxD45B72j6gKu+izmDJ2A3zorsxqcYZqBM+fc/VPNZHXcPK0HCtLNkT5wmJZKrI5FURxebvYp88RJWeWTw8sweIngGunefj1ixrwyOmK/Pnyo3LPOZjxvh1e+/2FFf8qlXnBAUXLU1NCDMJe6GacL3Ft40Ici7VDpbELMb61F3LmcoeHuzeajfsNQ73kl3pwDrZfE5szZgRWGVBz5Uo1j2Lpkd0ZOXPKVfTnL+UQZ4BzCRTU2d3Sq0Dcl2vxdu654IhXeHDzulzNz4XGnWojSTy29USTTo3lmRAcuvhAs0yRDba21JTwEn6PdZttouBzmaJlQXRsUQM5NAs1XCqjdSeK4j44eTtQLGRMfVabodrb24sSyxCXimjSwhWv783C9JX3kHh8XgQ4uzzIpT3+R22cc0diSbgDavRqijIJQdANVbwLabZJYAsXOVulNtCYOM3oYKl6eR83b8i3uaqhrAcFXF02cHHTPFYstbUyq8VVfiOhA1NMBdnyovm309DU4QnWflIGxRp/ibnbL+NBuG6+KiH66UX8068GGk68BofqYzG7d0U5ZDrCu3IFeX0YLvkEaDZNEIcXEeHyrR3cc6XhEifOxVG2nHz7/AJuBukfwIrHizB6LHvkycm9O5jxWGVApX8pTbWRqcGx/JfYcm41vqieC6FH/sCgdlVQzK2g6Ni/HX3LOsAxXzX0WHIX2csPwLoNI1FHaQZwRsma9eCK59j9ywZc0u1+GnUL6/7YJ39DPdGiupdYSCRxGWlnFMufW7NI4YLKDevLt/74c9FOPNKJqVLIESz7yx/IUR31S+cVSxlTn1UG1Pj4eLNmx1lPNriU+wgLzgYi6O4xLJ/4KVpW9UZ+SgZfR+FF5Gu4edXDJ7MO4s75eWjnlfhn5tpkMCY1sEP06eFoWLMbfly5Azu2rsD49k3w7Wk5BjYbhz51dFtEo/HgOvUPsIebi+5ye5TuMQZf5HuNwEWdUL3VcPy5QX6szfPRr04nLAnPjqJfjkQHb7E5s0qGqvyqxgL5CUyiWrVqkvzCk0xNmzYVa5O6cOFCsm1p8vT0FFtkTLNmzaSqVauKEjOOEGltFzmddO0irX0oFqUgxv+ANPYdJ/qmJ5kcyg+Qtt6PFVtpicdFMWnyWbEowWsp4toS6cNCdnqPlV3K3fwX6Vy42IwZ3fjx45V97+/vL5YYx6ZNm9IVJypVqpRs+5CQELE246w2Q2XG5gjv6lXhUqoGiuvWzA2wK9QUk48HwefUTiycMhRDh0/BX3svw08vm9VwRoWmTZEjTxUDjytnyuV7Y829R7hy8B/MHiM/1sjZWHv6Hh7uGozq3LnD6skxT8wZiSauGp+hDLV58+ZibVLGzlDbtWsneXl5iRJjTG2WmqFWrFgx2facoWYQnXaqO+oMY4ypwWq7TTHGrI+cRIo54+CAyhizamrGIQ6ojDGrwRmqkRgaaJYxxjLCagMqH5RijKmNq/yMMavBVX7GGMskOKAyxphKOKAyxqyGoSq/mnGIAypjjKmEAypjzGrwQSkj4X6ojDG1WW1A5X6ojDG1WWVAdXZ25gyVMSvEVX4jiI6O5gyVMaZQMw5ZZUAtWLAgZ6iMWSHOUI0gNDQULi4uosQYY+owa0A1FxsbG8TGxooSY4ypwyozVFdXV0RGRooSY8xacJXfCKKiosz23IyxrMsqAypX+RljWmrGIasNqDExMaLEGLMWXOU3ggIFCihH+hljTE1WGVCfP38OBwcHUWKMWQtjZ6jZ5Ccw7jMI1atXx8WLF0VJo0ePHli+fLkoJaLtaHt91CE/ICBAlN4ePe/KlStx+/Zt2NraiqVAfHy80hzA1OPl5SXmmDWZMGECJk6cCH9/fxQqVEgsVd/mzZvRqVMnUdJILU6UKFEC9+/fFyUNOsknV65copQxZg2oPXv2xLJly0QpkbEDardu3bBmzRqUL18e169fF0uBsmXL4ubNm6LEMiMPDw84OjqKkvrU+oOg10ivNb3olGnq9pca2uZNp1a/aT+l5fWlti84oBqZoYDaq1cvLF26VJQSGTugfv311/jtt9/w7Nkz5Yvj6+uLoKAgPHjwAK9fvxZbaTx9+hQvXrwQpZSFh4dn+HRWeh3GFBcXp3zBLRl1aaPPgmU+7u7uKFy4sBJoHz16hNOnTytTrVq1xBbqS29A9fb2TvY7yzIB9dNPP8WSJUtEKZGxA+o333yDX375BcHBwcifP79Yyphloz92+oM3hbQmElq0LZ3OTX+G9Ke4ceNGbNu2DYcOHULjxo3FVupTI6BSMpQzZ05RyiAKqKZQrVo1KVu2bEmmPn36iLVJXbhwIdm2NHl6eootMmb48OH0JyI9fPhQLGGMqWnUqFHKbywwMFAsMY5NmzalK07I2XOy7Z8/fy7WZpxVHuW3s7NTbrlzP2PGQQd4SfbsZg0xJmeVAVV7ZJ879zNmHNqAaq7fuLlYdYbKAZUx47DUDFWulYs547DKgKodCzUkJES5ZYypizNUMzDXztZ+2Lqd+hlj6uE2VDMwV0DNnTu3cmvpfTKZigIOYvacfQiIE2VmVNr+3JaWoXKV3wi0bac5cuRQblMT47MZQ+vmg202Z3h3X4YbUWIFnuPahtHo2v5TjPz9IHxfaj+oGPhsHoq6+WyRzdkb3ZfdgPYu8aFnMK9TceSwsUPuhhNwJMi6ft0x/oexYEAbNOsyHL8f8Zf3lL6U9ulbig/FmXldUSa3/FkUbollEW5w40qJSWSmDFXNOGSVAVU7MAp1QE5V/BX8/tFXuPvpDvgEHMOI0G8wcQe1u8bDb/0gDL7eHn9uWYbRVY+h97CdeCr//uOv/I6PvrqLT3f4IODYCIR+MxHKXfAEe0Z8gD9LzMNZvztYVXsZBv91GS9plRWIv7sUHSp/hoPFPsHgTs5Y37UdZpzRvWpCyvv0bT3ZPxZdFxXADwflz+JJGM6NqYXEv9B4RD4NxNNIzQ/f8sQgPDgYYdHGzaiMhQ9KmYHFB9Sg2zjhOAATetVGUc8iKFpYe+7zVaz9/hl6/+8duMpvIVfdD/D+f0tx4LEk3+UEHAdMQK/aReFZpCgS7gJ/XDr2LsaNbINyhYugUFF3aIdhuTSjPGzkfUH7o/LU86kHWTnrurxyMBqXL42qLYdh1eUwOTTIHqxBJzfNY2STs+kCTafj1O3N6OmuXZb4+BF+2zGkuqvynM61f8CpcPlLFroXAwrWxIwrCfk0zk+riPeX+IHy6PjQy1g5uDHKl66KlsNW4XKY/KxBWww+vqHX73N0NaK/34zl332C9t2HYOSHQTjn80qsJSnv06RuYeG7TjrPWRlTzxt6xiAc/3stYmKPYkCtYihWqhXGH9BkxfFBB/H9O/lRtEZ9VPIshp5rfZXltxa+i1ra10/vrXR/7AmTt5f317f6tRRa/+5UKE8deQ4z6hRBf9r41kK8W0ssl1/Dlp6lNcsNkv9Etg9BdVcb2OVuiLHi9T2/tgw9iuZF6Xq1UNz9HfxwKhzavaD7Xclm1wjzbkbLS2Pgf/hHdKpcGqXrf4o5B32hJPehBzCkxMfYII69XppRGU3m3QTdw9js7e2VW7pkuzWx6oD66pXuD9qAQp2x+t8xqO4sV0UXD8Dn577EkOZ5gIC7OOdaHWVyal+/O7zL++Pmg5fyXVbj3zHV4fz8GhYP+BznvhwCugtQDaNurkbnvPEIOjgOvWaWwIhPKsIZkYh4GoGWC64jICAIR7+tJi9LSTzuruiBxj/ZY8SGg1j7v2cYUqMFfr4g/3ptbGFfahj23AuQH+coxmWbjtlXGmKFnOJJ539AidYLcF15fDds+eoL3Oy7D/cD7mN76zXoMfUYIl5FIDT6HOatOIMIeqrn/2HNwhu4/+AxouPvYkWPxvjJfgQ2HFyL/z0bghotfsaFXB8YeHzDr79U3904MKQiHOVq/emf2qLLumb4pJ7OAB6p7NOkXiLkUVEM23NPfp8HMLJYDuRwMjRCWCCunwjBo+BymHnhIa6tqo8d3Ydi08NA7J/0Na5/dRIPfX3gf3M+7IYMwD9+cXgdG42YuHhN8LJ3Qs4IOUOMC8WBH/+HnY3X4I68X4cGz8XaK3JmHR+H2Ng4xEvyZ7JuHCaf8kdwmPzX8zoW0TG0XHkQOOWM0Cw3IP7aAnzSPwjfHPMTr2889j29hhVf/IIi//ji0b0HCP63Kzb0mIpjyocSiuD7z/DB6idypnUePxR7gqcRcXh+dBwafvQf3lu0H3t/rIgN7Wuh/5ZA+dsSj5iX0YgT0dje2Qmh8nfNFA1NERHKC05Ts1pWwhnqG1EAaI16o2zw86aRqEPpE7l3Aw8S7h6FiFCds66en8ZPrethlM3P2DSyjpJxacgZycbPUPv9nei47g909aJ/8TAE+0XC0S0fPD0LwM0htX1yG3t+v4Fes8ehTbnCKOSRD/bezVC3uJNmtd9+LPnjF4z99EN8d7oJ2tbSGZXI0Q356PGfXsD2q63w9SeUdXuhaacesNt5EDdF3PJb+BcOPYnF3Y3T8buvGCjm9h78fqMXZo+j7LoQPPLZw7tZXWifVqF9/FRfP4lBvJOcMUbtw7rjeu2oqe3TJByQ290DngVywil7QRTMl9LYtq748LcZ+LhSYZRuNQCjGp7E3r278Pfa69jwaWnkyJ4Ntp4fYEmgLx48jkYuj+J4OKE2XCj7y9sSvytjtORBnW/2YlufaPzevSvGXfRGWQ/5+Z764LIcM+IfbMCYEefgml+TkckPguIPJ6C2C2WRedFS8yAG3T68HGGfDkZH5fVNwrZ9g1HNdyfmnbiI6e+6yxlxNjhUG47zd+/ikZLoBePOOU/UKKX9yyqJEkWicHL1cpSYMgefybUir4L55L1TC01r5YdNnnwokmMTuuXTZLTlB56Gqc4N1J6FyFV+E7L4DJWC6bTmaLawMv4+sxwfKQFQ5lYAxRx2Y9t/cqZA5fsnsP6kHVxdbJVgOq15Myys/DfOLP8I2rsowXT9p3in/0MMO3oE4+q4Iv3vPgrPQ5yQ24Uyskhc2r0ejyKjECcHBjkVQh6bAPjKv7zclVujaaH9+HPb3eTVOzmTtcsm5y4ibYmXM63XtrZyNZJKNdCi9l4sWPkP5k19jj7fvS+HJFnUc4Q45YbmaS9h9/pHiIyKAz1tWgUc/B2rLlKbqTvqfr0SJ3b0xn9rTsl7WEhtn+qizPB1SZQsKgeVoAe4nuIAX7lQ0Ds/PPO7QnmE+FcID5Or+UXdkNOuAkbsvQP/ADmb9z2HffvX4KvKmiBVYtge3KPlSvarLEKuUpVQwqMk2g8Zhi6eJ7DtdCDiXschJmwnRnzQD/6j/8a0JjqZWAltTSEAB7QPYkDU8xB4ly0u2nXtUbhyZXjmcEbOXO3wx6WHyv0f3jiCvcdnow11TLl3ClueNUS9ktqAKn+WtvTHI/8Z5HJR3uf9E+txMjIGMbHawNEaC65rXsulv9rLe8U0aGQzwt2mTMjSM9TI4z/h40XlsGDtKNSwfaoMSfYoOAzRztXQZUBxrOrWGJ0GDkCnD77CvkofoXnxOBz/6WMsKrcAa0fVgO1TeXv5PsFh0ZDur8JXX/ngq1UL0KVQJALpsR49RWS8B4qW1xu7Mj4WCb+HJNxQpGwQNq3di3/Xj8dXvwbDOWQrtp4LhaRkI+XRdehwDBs2BF++XwQvwl7KYVyPRz30aH0E3w6fh007NmDWlHlw7/0ByivZZlF8/FVf3BraB0vqj0C/mpoTIOBWBGWDNmHt3n+xfvxX+DXYGSFbt+JcqMEXaVDMox34duQSnPZ/jMd+Z7Hy12WwK+kpZ1P0dmMh5Uhpn+pmnzF4/O92bMhZBd662bFBJdBiwDtY/8Ug/LZpA+YN+Bgjo3qgc8MP8N28WljV6T18OmokPm3cBL03PJTjmea7+ORZLHJ7esq1hdzIpUTiq5hdxQPdtkTBq3YLtKwVg3sPX2j2a8Bp3Ki+CP8MKI8kL+fJM8TmpsfwRG7NgxhUuEpjnJ05H4fvP4Lv8d/QtftC3PTuibmjQjCqSXt8PW4wOjR8Hz+cj4CdTTyubJ+H+x06oyZFxchIhEXLfy5xrihYMjf++2c9Dh6ag2HfHobk8h/W7vMT2f8zvEJe5bXkdXV6iz/xt0MZKvXztroB2+UU2CQMjTY1ePBgsTYpY482dfLkSYoE0nfffSeWGBZ3e5nULk92ZdvEyUMatD9MksKvSks/LSk5Z4fkVPxjafGVCOm1FCfdXtZOyiMvS3Ifj0HS/ruHpVFVHZMuh63U9Pfb0pXFH0if/u0rxSrPGiht7uEl9d0eKJ2Z0VGa+G/SkXDifLdJw+q4S45u1aRBW/2kp6d+kGrVnCKdi/ST1nR21TyuU37pnV5/SmfCXmvudPEnqVK39dJTTUmSoh9Kh2b3kOqXqyf1+vWw9DBaXhayXxpctb+0+5mPtKbn+9KMMy+kwM09pIZTzkmR8vvy3TZMquPuKLlVGyRt9XsqnfqhllRTWSdL8vh+0vp+n0l/+2reTYI4X2nbsDqSu414fV+slK5FyK8vcLPUw6uvtD1U3sbgPtURclAa3aSjNO3gQ4lecuJrfmVwX8lvVHr43zJp6vCh0uj5B6T7kYmPFh18RTqyc7t0+MpjKUosjvPdIy3f46d5bOmi9FOlbtJ6+U2Fn58vdfRylrLDSSrefo50mvYrve5Sn0jrH9D7DJH2D64q9d/9THmfe5bvkfw0DyLvmkpSN/lB/Nb3kz5L+IyFuEDpwISGyj6x9Wwl/aB9X/L+fnH/tLRn+17p5L1wuSST93E5/e+VPNl+JO/38PPS/I5eknOO4lL7OaelkPvrpE8K0WsPl86vWZ3wPUj8PI2vdevWkpOTkygZT3pHmypUqFCy7V+8eCHWZpxZA+qQIUPE2qSMHVDp8enLmFJAtxTnfyghdVz9RJTeLDrssfRMGx3Mxl9a/1EdacJp9b6kaZHefWVq/us/kupMOC297V6h++fuuFpK8g7P/yCV0F9mIVq0aCHlzJlTlIzH0gKqdTVwCGlvQzWnqzi8oRza1Un9Uha67F3zpeGgkJE9uYiddxqiaVlTHt1N/74yrSe4uPMOGjYtq9MPNn0KtZiM3d83TNoGmt0Wzg62JqvGpwdV+bWDEFkSOeaJOeOwyjZU7ejcdMkTy1UR35zdhj7FUm6Ds0j53sdf535CQ5UGQE8bS99X+fD+X+fwU0Z2Sq5SqF3VEwnHOEmV4bi8qjPyiqIloYNS1jhWhlUGVO3zakedYoypy1IzVGOzyoCqvdqjZVf5Gcu8LDVD5Sq/EWSONlTGMi9qVtOez2/p1IxDVhtQqcMxB1TGjIOufmqJTWqcoRoBte1QtZ8DKmPGQUNkchuqiZkroBInJye8fKk/8AZjTA0cUM3AnAE1zRmqMjRbNUxMGLszAJt7FsaHa4KVU1V00fBvTvJ7ovelTDV+wmXlKeIR9O8c9Gz/EQZOWaMZ+k6ID/oXc3q2x0cDp2CNdig+xjI5Cqh8UMrELD2gxvifxcqxn+H7UxdxyecV4kNv4sDsr/HlygBcu/kg2bifL0MeoYkyDJ9mMIonR4ehshONl/ITev1ZAJPXr8GvPbNhere5uErDCNCoVL3+RIHJ67Hm157INr0b5iorGMvcOEM1A3NX+VMPqFG4sWUC/gjtg0l9PJUlT07+jom7i2P4qJYGRu0JxZOHkbC105y5Yu9aAO45aGCIIByauxm1+7+vjDxlU+xdfJRvLTZciUTQobnYXLs/3teswLsf5cPaDVegO469Mkhw2V7YHCrPx/thY58SeG/BHQTvHYCCNWcgcTzo85hW8X0s8TPFaJeMpY4DqhlYQoaa8ojijqjy1XYcWTYIzUtpxhLyaPMrju75Gd2quRk43Y/GqgzFtn5VULVeDRQrUFeMtE4DHRdCpVLaI540utRjJeMNvH4ChSqVQsKaouXx+JIPkoT5V2EIevwC0bFyMP2sIQY8HISpH5dEXEQoos/Nw4ozmoF8n/+3Bgtv3FfG9WTMnOgCffS7yixVfjXjkFUHVPrg1TvSXxqd/9iLM35PEeQbiMB9bbHm819wVkk37+JuwsjzkYgMSwx6d+8mNh1ERoalcHmKm1jevy0+2dkaS1YPQq2EEav9sPCvQ3gSexcbp/8O7XjQjJkTZafUB5UzVBMzZ0AtXLiwchsWluIIxekUhSc3ruEpNFX+XEUroNzDS/B5RQMd+2DTgXvyFjJlgOYXyiDRuQp6w2fTAdzTrFAGjH6R2yXhWlOJbuC0fTt8WWwlRs0/BboElKJGC9TeuwAr/5mHqc/74Lv3dUboZ8xMKKASSwyofFDKSLQf+osXL5TblAXA5xI1YCZ6fPsswsV8Ikd5xRL0G7gYp68fw58TJmBHnXao41YCLb5oC5/RrdCy12D0bdsZ0593Qad33FCixRdo6zMarVr2wuC+bdF5+nN06fQOkoyZVMgbVfK0w+xfpmLmuiWouLA/ftVetK3ox/iq7y0M7bME9Uf0g3Y8aMbMKVcuzRGG588TrsdgNaw2oGovHqa9mFjKnODmUQweOhd0d85bBIXdc2ourZHABpX6LMWcijvxWYeBWJ9rLE6t7Q0aAKlQh1+wfmwJXF85BysulsTI1ePRwl1+74U64Jf1Y1Hi+krMWXERJUeuxvgW7nrts87IWyQK4WExsCnWBbOXNMLK71ch0MkDxTw80ajfNHzy/lgMbJZfyQhsNdcyYcxstKO4aWuBVkVOgU3C0ADTEyZMEGuTMvYA0+TLL7+kJE/avXu3WMIYU8OtW7eU39Znn30mlhhPegeYdnd3T7b9y5cvxdqMM2uGak7a84ytsVrCmDFpr9VGB34zAzmoirmM4yr/G6v8jLH0sOSAKieRYs44rD6gcobKmLoyW4aqJqsNqFzlZ8w4tAFVO+6wNeEMlQMqY6riKr+ZcBsqY1mP9nRurvKbmDkDKg2OQnx9fZVbxpg6goODlduUx8nIuqw2oLZs2RJffvklDh8+jNmzZ4uljLGM8PHxwaZNm1C+fHm0bdtWLLUcXOU3EhsbG3z11VeoW7cufvrpJyxfvlysYYy9ra1bt+LgwYOoXbs2ypQpI5ZaD6sNqKRixYqYOXMmnj59qgRXylYZY2+Hgum0adPQokULjB49Wiy1LIYyVDXjkFkDqiWoWbMm/vnnH1SuXBnt2rXD0KFDcfPmTbGWMZYW9Jv57rvvEBoaqvyGSpUqJdZYF6vOULW6du2KDRs2KMGV2lNbt26NzZs3Iy6OR79nLDU0pvCsWbPQvHlzuLm5Yc2aNWjVqpVYa304oAoeHh7Yt28fJk+erIyR2rFjRxQvXhwTJkyAv7+/2IoxpkXX3h8zZgyGDRumDCj9+++/o1OnTmKtZeKDUiZEl2wYO3YsLl68iF9++QUlS5bExIkTUaJECeXgFbWzLlq0COfPnxf3YMz60O+jT58+SsIxffp0NG7cGBcuXEDVqlXFFtYrmxyxjRuyherVqysfhC46IETtLfpoO9peX8GCBZWriZoKVflXr16NAwcOKAestH1Wy5Ytm6SdlcZ9TOn6ORlZRz0R0iq1xzIkPdvTabru7u6i9GZeXl5ijpkT1awy2mx1+/ZtPHr0CNeuXVO+81evXk34HXTo0EHJThs0aKCUzYGa5vSz4tTihKura7KTeegySGqdJmvWgPrzzz/jm2++EaVElhJQ9dEXiQLryZMncevWLbE0EVWBtKfdadEXmpsMUkbtbjSxpCzxhBP6nCgLpemLL75QEgtzUyOg0m/W3t5elDLGrAGVGrOHDBkiSoksNaAaA/07hocnv6CKPrpUy5sv15I2T548Udq83oQuE0NHbdPi2bNnCZeVSU16HvNt0Pui92cp8uXLl66aRlpRAMiTJ48opQ3VNLSnXKcVnVFIVXtq/krv85kCB1QddER98ODBopTImgIqY+ztpTeg0vWu9BMTNQMqH5RijDGVcEBljDGVcEBljFkNY7dwckBljDGVcEBljFkNQxmqmnGIAypjjKmEAypjjKmEAypjzGrwQSnGGMskOKAyxqwGZ6iMMWZEasYhDqiMMaYSDqiMMavBVX7GGMskOKAyxphKOKAyxqwGV/kZY8yI1IxDHFAZY1aDM1TGGMskOKAyxphKzBpQGWPMlLjKzxhjmQQHVMaY1eAMlTHGMgkOqIwxphIOqIwxq2Goyq9mHOKAyhhjKuGAyhhjKuGAyhizGnyUnzHGMgkOqIwxq8EZKmOMGZGacYgDKmOMqYQDKmPMKhi7uk84oDLGmEo4oDLGrAJnqIwxlolwQGWMMZVwQGWMWYWUqvxqxiEOqIwxphIOqIwxq6V2DOKAyhizCnyU38hevHgBf39/UbIOUVFROHz4cJqnp0+finsylvWoHoPkqG0S1apVk+QXn2Tat2+fWJvUhQsXkm1Lk6enp9ji7d24cUPq0aOHVLFiRfq7UiY3NzepefPm0rRp06TY2FixZdazbds25b1q33daJkdHR2n27NniERizLJs2bUpznIiJiUm2rY2NjVirDqvJUO/fv4+RI0eiTp06+Pvvv3H16lWxBggLC8P+/fsxatQotG/fHlu3bhVrspapU6cq7zU9KKOdOHGiKGVd9D6//vpr5MuXT/lepmcqVaoUpk+fLh6JZSb0+anJagLq6NGj8eOPPyI8PBxy1oVu3bph7ty5WLJkCSZPnoyaNWsq2+3atQudO3fGyZMnlXJWcvPmTTGXPukNwpkR/Wn89ttvb9XEcffuXeXPeP369WIJs1ZWEVB/+uknrF69Wplv1aoVDh06hFWrVmHgwIHo3bs3xo4dizNnzkCu8ivBNi4uDhMmTFCyWmYddu/eLebe3oEDB8Qcs0RyjVzMJcpSGaopUMYxY8YMZd7DwwOzZ89Wqv2GUJMABVWyZ88ezJkzR5lnWZ8aWTj9GTPrluUzVN0j1RRMy5Ytq8ynZMiQIUoWS7gKx7SoiUj7vUiJNTSNZGaGMlS1ZfmAevDgQeW2cOHCaNSokTL/JnXr1lVu6Qfy4MEDZZ5ZN2prpz9klrVkqSq/KQLqnTt3lFuq7hcsWFCZfxM60k+on+rly5eVeWa93NzclOo89QRIDW2XmVHPF6qV6Wfa1Feblvv6+oolGvT72Lx5My5evCiWsCwfUO3t7ZXb3LlzK7dpcfv2bTEH5MiRQ8wxa+Pu7g4vL6+EQKkt6y7TlZmr/IsWLUKlSpXw4YcfKjU0bTPZ2bNnUa5cOWU5rdf2fqFgWqtWLXTs2BHVqlXDggULlOWWLMsflDJFQK1QoYJye/r0ady6dUuZfxM64q9FPx5mfai99MmTJ0pPD21vD2o20pZpXcWKFZXlWcG8efPEnKZ7HfXLJn/99ZcSPAndLlu2TJmn9brd8HTvb82yfECtV6+eckv9T//9919l/k20/8KUhRQpUkSZZ9aFgsX27dsTTsEluqftUlU3KChIWZ4VUJOYLm0GXqhQIeVWS7tcf3v9cmahegyi06VMwdCpp//9959Ym5Sap57KWanUpEkT5TTK0qVLS3///bdYk9yDBw+k//3vf8q2NM2ZM0esyRrkH0PCe0vvlNXJNRGD75sm2m+EvpeG1munIUOGKNtlRnRKdp06dSR3d3dp7NixYqkkRURESF26dFGWd+jQQSlr0XZly5aVGjRooNzfHNJz6unLly+TbUunVqvJrAH1+PHjYm1Sap/Lf+LECcnW1lb50ru4uCjntOujL8rAgQMTfhy0vVytE2uzBg6oKbP2gJpZZTSgOjk5ibXqyPJVfkId+cePH6/MUztQu3btlIZ2ORtVThn8+OOPlR4AdOqhFp0t1b9/f+WWWTc62ERHuN900CkzH5SyBnK8E3PGYxUBldDppfv27VMOLBBqI6MjmzSoBZ2Wqm14b9y4cULnf+oqQsGWgyqjP+AWLVqIEssq1I5BVhNQSfPmzXHlyhWlg3aPHj2Uo7TUv5BuO3TooAyMQuf505QVg6r2gII+W1tbfPvtt5n2wIIp0AGpN30HUtq/zHpYVUAl9KWn00tXrFihBNdXr14pt5s2bUo4tZACCw2eQkGWUFAdNmwYnj17ppSzEvozoW5iNN4B7Ye2bduKNdaldOnSYu7tpfXEEWYehqr8nKGaSNWqVfH7778nZKo0UMrQoUOV+cxKt42vaNGiykAwx44dU94roY7rGzduxK+//ooyZcooy6zF8OHDlUz9bdGfcNeuXUWJWatsdGRKzBtV9erVk52iRplRjRo1RCkRbUfb66MMICAgQJRMg/oaNmnSRGlzpeYBylIz66hCxYsXVw6uUDsyZejUXpwSer89e/ZUzpQhJvqamBV976jDurY9Pa2o1tOlS5eE9nlmOtQfuFOnTqKkkVKcoM81V65coqRBZ0JGRESIkgoooJqCoW5T586dE2uTMuYlUN5GYGCg9OWXX0pz584VSzInOeNWuobJfwpiSerocjDjx4/n7kDMYqWn2xR1jdTflrpRqsmsGaocUJXzgPVZUobKGLNclpahmrUNlU4HZUb0/BQWTdiEW69F2co8P7UIEzbdgpW+fabHUO4oZ6liTh1mDajqdjOJx82FTeAi7yDaSQlTdnd8tfe52CZzeX7kR4zeGqCchpMgYDtGTt2PZynWK6JwbUUfVMvviGyudTA+xAX5LffY31sJPfcHunpllz9fB7i3+hGnnujsjKhrWNGnGvI7ZoNrnfEIccmPLPb20+XO4ubIqf+byJYL/9uZOX8Tls6sAVVdr3H/7El8flA5nVZMcbg+uxSuPXgitslcnKIfYO7e6/JfhVYoto7uhh+P+eOlWKIv9tR0tB8di693XENAcDh857ZAbkuIKLEReBIYilei+NbuLUbXZitQeWUAoqVwHGm/Fy1rD8U+5R8mFqemt8fo2K+x41oAgsN9MbdFbtMFVLXeo4runzuIT/fq/iYk3J5XAVd9g8UW6omNeIxHocnffUrLLQH9wagpCwXUN4u+thRdijvIOzE7cr+/BLfj5DB8Zx7ebbEEfvJ6KXQvBhYpiR/O09YSnhweixou2ZDdtTIGb32IuLgTGFOqLVYoGz/GroElUG3GJdrYKOzs7BEbqxNO94zD4DWxQFEPFJC/B7G3VqFPRVdkz5YTZb/YhAdy3fbEhll4mvMKpr5bEoVK1MbA9fcRI983cnd/eNZsioYF5MzVwR2tfjwFTWIXBZ+dI/FemdIo3eQL/HUiUNkeOIepJRpg/l1NhdlXznSKjj0hB/eUlmteT49STsqXNGfT+bgWTVvE4sHW/iid1xvv1C+LAsW/xm7djDJdYnF8yThETFqE0fUKwh6OqDBgHTZ22Iy+04/J7+QENsx6ipxXpuLdkoVQovZArL8fA99V3VGuUC5kLzQWJxJ3p4Ky3d7KPpQzt5yeqPH5Rvi9voX5dWxFNie/F892+F3zZhC8vluSWpDDwH2IS/E9prSvfLG4+bti+XMcGeGNIspy+XH2jERj+ozosd290WTmWWie2RheYHu/fKjdrAHyOcjPl+99zDwboqyJvbECXb3ptyK//xYLcUP+2l2bXQXvLhQXrgxch77N5uEKzcf6YeNn3sjjXQcNyuRHiW/2QXmUlJabCf2ZGJv1BNT4i5j14Wi4TL+IgIBb+LPAd/h4/nVIcfLPQQ5acfLP8dxvgzHPPwBPw+VA67sMvTqewmdHA3B764c4230INgSH4YnvC0THysH063fQ7WQvzOtXRTyBEXiWRnXtJxR6EJO/PIdBP/WVAwkJxoZRvXCt1z48DNiJ7sd+xObbd3Dz1Es8v+eCgUf8cW9PP9zp1Q0Lbr5GfOxLPL0SjU57QyC9+A8f7PwQM49FIXTrF6j8uT/6bDiM3aPdMKtBTYw4FCH/ncj7JTpW/hNRngxOzrkQ+CQ8leXXML/bYMSOOy3v33v4p9wUfDj7IuIDNmDI1zH46WYAfHwCcOV7H3Qeshmhb/XdfoCr/xbER81K63xx86DpwFHwXrodZ27fxKmXz3HPZSCO+N/Dnn530KvbAkS2+RUHN3+Pd4KfIDzJ817Dis/GwWbCOfgHBCDg4FDYX/GXM0xb2DpUxeT//JWDGzu/9MHQ34/K71wOQaGBiOqxSt7nATg9ow7ccsjBL8X3mNK+kr9vsZrlsZf/wJCf78Oflj/fi8mdD6HNtnvK895f2AzH7zyFjebuRhCPmJdPcSm2Kw6FSXhxtCU2dJyNE7FX8GuXobCdckH5LJcXH4MPf70CewdnvIwS4f1VKO4eugEawPDh6q8wOPuvuPvIBz6PLuO7a+0wbGt4Csstq6mB/jDUZDUBNf72EWyO+AIDPioHT89S6NDtQ9zceBx3H97GZfkrHnN1PgZMe4FCeWnr13h0eDUO9xiB/1X3RMlG32H98Qmol4dWBWHLt03R4c+aWLRzvGaZsdjawO6aD3xfh+Lg5P44+81f6JI/GMULu8vV2AJ4b8o5rG3vh7EdPsbMx1VRmtJWWa0Zf2Fw7ULwrjcEI/tcxK6TgfI7lPUeh6+r5JBT3zJ475Pi2Hz4MHYtXYk2s+egW0VPeBegx22KxrVyyrfu8CxxDoPL2ShfOo+PNykBBSktv/cfNj7qg4GfVJL3rzfaf9QD/puO4tCuRdj6YDE6FqJsxx5efXfi5Z2HePzWyUIEIl/p3TlfQXg9C0OksrgWZvw1GLULeaPekJHoc3EXzrxwR8FKFVDJZiX6lpMz8dJNMHQ7Ze4v8OyJOxzsDF3a5Dp2LVqAn0d0Q5cf/PFxy5oJgc3eNS88PD2RK0c2eBfKB789Kb3HlPZhAO5ekLPT+FtY9PV4PPGk/S57FYEQ+T722VK/1Iq6suF/4wahopP8tSjXGj0Lr8Xhbf9iw5Mv8HX38spn2bHbJ7iz4V/ElayOK6t24CrV3r2Lo5Jyfx/s/HMH/P9sDw97OWu398YX+6Jxy/9cCsvVb2pIK85Q0yP+Lm5fqY7SScfDTZDN1hZ28tc5XmQLsfFyHcbOBrbybVTgCvyv5fco8tffGO5NayVEhIejeoVicq5C7FGwciUUoYJcHTz4/AMMbbId300/iFBlvZFEhiOkfBHELOqKTme+woIvKiBezsByu7ooP8A85SvDK38F9BoxFK1y7MCOs/bw8MoOr4LaAzERckZlh6IeeeHqkifJhx0nv++Hwb4ID5GQO2cuZftrh1bixutoxMZov3iJWVrAhs9EZkwMLLcR+1ferSQ2LpbGQISLnJVle+cHnPCTt5W39zm5CweWf4oSb/XNK4qS1R9h1a4LOtXgWNxa/SvWNauLSh5yYM3uhYLao3ARLxBqVxQeeeWyjfznhHcwZqOciS9tgTNdx2JHaG30m1oMf3aopAykXKj2cJxUmgRckCtvLHzvy39EBWqhQ0M3rFy0E4/k3UL7rUrpIsq+fHT7vNLUQZlnyu/R0D6UK/cxIVjXvyW+cZ6PlWPLaz6bAp0x9OuzGFq7pOb1dF4kml/e1h3cPS//JlIcI90V8tdCR5ycOT/A4zB5X0lyBq3zWcLOFo7vDcGyIvNQw5maO1pivrLWCfLbR70fT+EBvccAH5zYeRDLepZKYbllXQGDM9RU2VFSZ1D2Eu/js4pz8PXI5dixfTUmTVmPVp+9J/9E5Rh5+z88+mgr/vwov2ZjORcpXrku7vz0O3bef4SA04vwSavZOC//WCvUqYefF0zFD8s3osW6zzDloBFDasgj3N02AG2nl8PqTV+jggPgVbwSrt5+KOfQ/2GUe2F8edQeZeq1wnuVgnA3wAaN+g7B2aF98dOa7Vj23fvo8+9X6NFYnNm1dDiGrjqLa+dX4KefzqNjszYoVtoRO/5eh2MHJuLrUXfh7LIF6w480WS0eIiIeA85S/GEZ25NENcwsNyrJT6rvxhfj1iM7TvWYcqUJWjwv/dR+8Np+CPPj2jx3ucYL2d7dVr0x8GnDvIn9Tbs5Or9PHj93AT1P/4RS7Yvw8xeDVH761eYPvNjFHJthL5D5IDU9yeskdd9934f/PtVDyhv385OzvwKIm9uwNGjBIpn90Vg6DVs/OUcem0Nxms6YHNwiJytytV9OfsvUMwGtXp+h2+HDcPgfo2QOyQcERGXsXvVRVQu7ZXkh1Ogc2rvMaV9eA/H7rXBZjnwFtIulKv8y37zws9Xo5Rs6u4f78JJ/tPPmJR/ExoS/vz2G6w9dx3nlk7HjKvd0KRzG/zvnfkYOGIpduxYi4lTluO9z9ugOEqh21ofRNO+kvZggHL/gug24w84TW6Gll9OwPCutdFi4BGEOBZJYfnbffKZhvzBmYShM6XojChD3u5MqZfSzs/LSlOTnHwVL93+raHUfLGvUnodeUvaPPZ9qXqZ5tLA5eekENri9m9Sfe8R0pFwKjyUVnwgHuP1Y+nEtJZSXntI2VzrSiN3P5BiddfLXh0dLXlX/Um6qCmq78hwKU/F76RDj+Wfu9bJ8VKh7hukMHlRyLHJUqP8DnLsc5HKfLxUuhpFG8RIwZfXSTOHDZWG/rhZuh2p3EuSg4XkkLe+1KppaalUqepS97knJeVhQ45JkxvllxxcykgfL70qRd78Q2rm+pW0V05Tb25cIh3WPje9lq/2SrHy4xteLnt1T9oxqYNUs3Rj6fNFpzSPr3glBZw/IG3ffky6ERYjlr29mOBT0rIJn0vtm7aVPhv3l3T8kfwT14oJli6vmykNGzpU+nHzbUn79uUXKg3PqfxPSLDPK9Ude0h6/Hij9EnJMdLxOLHJsZGS56dblH17c35dSY5Dyr4t2PhzabW8c8/+XEdq8s02yUc83dkpZaQP/vaXNG/T0HtMaV/dl/5qVkQauDdUuW/Quo+kkmOOS3EXfpQqf/C35C82v7+8tVTrp8vyt/htxUh7BnhL40+JonBvQUOp4R8+yvyeAZDcG7aSmpYqJZWq0UOad+apslx6eVfaOr6dVKNUU+nLxWcksVTHYWmYez9pu3YA/5f+0tn926Xt/92Unut+xCktV0l6zpSiMwT1t82dO7dYqw6TnSlFIznR+eF0Lny+fPmQP39+/PLLL6hdu7bYIhFdtrZNmzbw8/NTRoOilyi/ebi6uioXR2Nv4dA3cPyuOC6eHISyWaxeYhRRz/A4xgX5c2XtjGrvV9kwvsJtnBhQSizJXHbu3ImBAwcqMSM+Pl4Zr4IGqqFBfwyhs6pCQ0OV7Smm0H18fHzE2owz2U/r8ePHePDggXKaF70BuhCe9hLP+ugStnSNcNqWxqCkN023KW3P0iC/F8o5UHWWpYlj7iwfTEnB4uVhl4FRtswtJiZGGfCH4gMlXhRbtFep1UejrdGpqkePHlW2u3fvnupna3KuYi0qDMaFfwegJH/iTEelb6/h6OfFRcn6UJaqJrMOjnL+/PmEsTh1pTQ4CjUTaC/xnBGU8drYZLSxnzGmhujoaDg4OIhS+lA86N69uyhppDQ4CmWoefIk7edIZaoRqyVTBVTGWNbj4uKS7jFoU5OegJo3b15Vj8twBZAxxlRikQGVLt/MGLMOamanhHoGpZXabagWF1CpTeTUqVOiZBzZs3NizlhW5eTkJOZMz+IiS82aNVG+fHlRMg5qN2GMZU0mOixkkEUelKI+Yi1atFD6k9ElCnLmzKnqUXka2FrNI3sZYUnX+3/9+rXSA8IS0NfSkl6LJX1O2j6XLDk6+eedd97B7t27xZJEhg5K0UlGwcHqDdhikQGVHD58GAsXLlQuzau9Pj5jzLJQYpLRNlAKQWq0ZdLViOksqZRYdUBljDE1GQqo1LedLhWvFj46wxhjKuGAyhizWlm+2xRjjGVWHFAZY1aLM1TGGLNQHFAZY1aLM1TGGLNQHFAZY1aLM1TGGLNQHFAZY1aLM1TGGLNQHFAZY1aLM1TGGLNQHFAZY1aLM1TGGLNQHFAZY1aLM1TGGLNQHFAZY1aLM1TGGLNQHFAZY1ZL7QyVL9LH3lpUVFS6LnDm6+sr5t4svVfTdHd3h4uLiyilTeHChWFraytKaePl5SXmWGZj6CJ9hC6frhYOqFaGrul+9uxZ5bN48OAB/P39lYmCFwUxQkGSgiV7e/qBl4K9NujTOm9vb1SsWBGNGzdOd1Bnb8dQQC1QoAACAwNFKeM4oFoBCqLr16/H8uXLcfjwYQ6WFoQCbLdu3TB69GjOfk0ge/akrZw5c+ZEeHi4KGUct6FmcZR5tmnTBt27d8fu3bs5mFoY+nwWLVqE8uXLY/PmzWIpMwZDTUiRkZGIj48XpYzjDDWL69WrF/7++29RSuTo6IiyZcsqE80XK1ZMWe7q6go3NzdlXtfbtDfS43p4eIhS2tF96L7ppdts8TbS08arL6VmEqodBAQEiBKUeWpiuXnzZrLno2z1+vXryr5m6qPPIkeOHIiNjRVLNOhzs7e3F6WM4YCaxelWcShQDR06FK1atVLa75h5URD+448/MHHiRLEEmDNnDgYOHChKTG2ULDx//lyUNChLdXJyEqWM4Sp/FkbZmm5W2aBBAw6mFoT+4IYNG5YkI719+7aYY8ZgqOajZpWfA2oWRkeVKYBq0YGpypUrw9PTU2lTXbBgAU6ePJmhajJLH8pK6cDgb7/9pnwGRYsWVZoAtKgtlRmPoUyU21BZml29ehWdOnXC3bt3xRLDqCpUsmRJZdL+i1MG5eDgoMwXKlQoSbar3+9T2y1Ii7bNrG2B+m2x1PamG/QIlWm5FgXK6OhoZT44OFhpl9O9H91Sm6nuffRRzeH06dNv1X7M0qZcuXK4deuWKGnQZ22of+rb4IBqBShAfP/998rBKXNmo/oHttISlCmQ69IP7PR+qA1Mi+bTGwxpe0NHgE2Juk7Nnz/f4AFBph5DcYj+APPlyydKGWOygNq0aVOlqqOLA6ppUda0fft2HDx4UKnq63+xmOnQHwe1adeuXRs9evTgI/smUr9+fZw4cUKUNKjmQE0vajBZQKW2vL1794qSBgdU86KsTNt9h7K2x48fK1VXbRcg/UyOGFpmzXSzbP1mDm1HfW2XtBIlSiQ0q+hm4sx0mjVrhkOHDomSRqbMUHv37q2cqaOLA2rmp19dTmv7o+6BgJCQkLd6DFqu32c1LWVtuzChUw911+s3Q7ypzDKXtm3bYufOnaKkQaek5sqVS5QyxmQB9bvvvsOMGTNESYOqnnQuM2OMmcKgQYOUHhZa1E+b2t11/2QzwmTdpujomj79DraMMWZMr169EnMaVENRK5gSkwVUQwM/PHnyRMwxxpjx6fYQIWpX0E0WUKkzuX6nWt12MsYYMzYbGxsxp6H2CF8mC6ilS5dWztLRde3aNTHHGGPGpz+ATZcuXcScOkx66mmtWrXEnAYNdMwYY6aiP5h03bp1xZw6TBpQ69WrJ+Y06M3duXNHlBhjzLjOnTsn5jRn7tWpU0eU1GHSgNq8efMkjcI0UrbuG2SMMWO5fPmycvKKFrWfZurLSFOnaAqquo4ePSrmGGPMeKjfu67OnTuLOfWYNKCShg0bijmNAwcOiDnGGDMO6rz/ww8/iBLg7OyMjz/+WJTUY/KA2rNnTzGnQZeE8PHxESXGGFNf//79k3TTfP/995E/f35RUo/JAyo1BNesWVOUgJcvX+L48eOixBhj6qJjNVu3bhUlKNePmj59uiipy+QBlehnqXTVR8YYUxudakpXRtA9zZ2y0+LFi4uSukw2OIo+Sre1KTj9Y9DoQTykGWNMTTNnzsSIESNESXOmFHXXNFasMUuGSuiyHFoxMTHK8H7aS0gwxlhGjR8/HqNHjxYlzXn8Y8eONWriZrYMldC4ktSGqjVp0iTlDTPGWEb88ssvGDduXJLL49BlZlauXClKxmG2DJV89tlnYk5De90jxhh7G3Su/jfffKNU83WDKZ0RNW/ePFEyHrNmqHSpDbo8RGxsrFgiv6Bs2TB48GB8/fXXRms4ZoxlPXQFB+oe9ddff4klGnRhxy1btigX6DM2s2aodDmKUaNGiZIGxXdK1+ksBr6IHGPsTSgxmz17tnLBQ/1gSge8V61aZZJgSsyaoRL6V6EdYSh40uUJunbtig8//BAdO3YUSxljTFO9pyspU/X+6tWrYmmiihUrYsGCBckGZTImswdUQsH03XffTXKhNl10dI7W02mrdEuT/kCxzPLQF56yB7XQ1VnVor2yqxroIm/UeVwN1NPlbfcZnTTzpt+Fq6vrG6/9r3/11pToXwDREDrwrMZRde1nT1fppfE/jh07htOnTys9hAz54IMPlM77ZcqUEUtMwyICKqEd1KZNmxSDqi7656FBViizpYv80QdrSEo/GjrdVbfdViu1AEB9ZnUbuXXR41GmnR6WHBxoYsyUDI2cb+hqt2lBzYVLliwxy9VpLSagEgqq7du3T/cPmi6tQgez7OzslH/o0NBQscYwaqSmIMgYMz+6hLMaF+xs1KiR0vfUnFdStqiASq5cuYJly5Zh6dKlbwyMb4sy2retVjHGLAclUtS/lKZ27dqJpeZjcQFVi9pHaPxCanSm2/RWqVNDVYG0NC0wxoyP2mHT22RVsmRJtGrVSmkmpFtLYbEBVRdlk3TgihqkqfGfJmoWoA+Bqgp0thVtExISkqFLU6fUyE6N6obaY9RqcE+t7daY6E/FHFee5XZalh7UvkoH0iiINm3aVAmgal+tVC2ZIqCmx+vXr5WDR/Hx8UrZwcEh2WUODC1jWR/VctSs6aQVHQDVfh9ZcrRvdHsn0G+TfqPaYyKZSZYLqIwxZi5mPVOKMcayEg6ojDGmEg6ojDGmEg6ojDGmEg6ojDGmEg6ojDGmEg6ojDGmEg6ojDGmEg6ojDGmCuD/xBDV+dWvyeEAAAAASUVORK5CYII=;" parent="WIyWlLk6GJQsqaUBKTNV-1" vertex="1">
          <mxGeometry x="247" y="354" width="168.02" height="309.84" as="geometry" />
        </mxCell>
        <mxCell id="OF0bnibXMQKsjCnrB5dy-10" value="" style="shape=image;verticalLabelPosition=bottom;labelBackgroundColor=default;verticalAlign=top;aspect=fixed;imageAspect=0;image=data:image/png,iVBORw0KGgoAAAANSUhEUgAAAU0AAAJ9CAYAAACxYiD0AAAAAXNSR0IArs4c6QAAAARnQU1BAACxjwv8YQUAAAAJcEhZcwAAEnQAABJ0Ad5mH3gAAKZnSURBVHhe7J0HWBRHG8f/tKMLKCKCKIJYsWOLvcTeEjXRGI0t+mmixpKoMYkmscWGUVM0tmjsXcEWu8beCzYUlCKIgtLhgPl29vbg7jiUU7ijvL/nGdgpOzs7e/vfd8ruGDEBEARBELnCWPpPEARB5AISTYIgCB0g0SQIgtABEk2CIAgdINEkCILQARJNgiAIHSDRJAiC0AESTYIgCB0g0SQIgtABEk2CIAgdINEkCILQARJNgiAIHSDRJAiC0AESTYIgCB0g0SQIgtCBQv89zfT0dCQlJSEhIQGvOxVzc3OYmZlJPsPAy8nLSxBFjYyMDBgbZ9lgMpkMVlZWsLCwkEKKDoVKNK9du4YtW7bg3LlziIiIEN3Lly+l2NdjZ2eHV69eST6CIPISZ2dn8X7UxNTUFOXKlUOlSpXQokUL9O7dG1WrVpViCycFWjTj4uJw9OhRHD9+HMeOHcONGzekGN3hT77U1FTJRxBEXuLm5oaQkBDJ93q4gHLx7N69Oxo3biyFFh4KrGhya3LMmDG4dOmSFPJ6jIyMXts8Ly6WJn+yK+F1YmJiIvkgNp9Um1CqaTm67KsKr3dduh3S0tKkrTejS1pehtz+nHlzkrvcoEtaXeuiqMC7v1JSUiRf7unYsSNmzZqFOnXqSCEFnwInmsnJyfjhhx+waNGiXN8w/GbnJr+3t3eOfSju7u4IDg6WfLmDN/1Vm/+8+cHLx+FlCw0NFbcJorhToUIFPH78WPLpBr9/P/30U/G+5/dpQadAieZff/0lujdZl7xiW7VqJfaR8CcUF0xDdzgrB6S4qHKnuq3p19zmT+ic4pTbr4ujwSXC0Njb2+d6fCEn+D3Mrc6vvvpKCimYFBjRnD9/PqZMmZKjAPC+j48++gg9e/YsFE8jffH8+XPEx8dLPojWr9JC17SGeboXL15IPiAyMlIUXSWqljgPV+3Y17S6VeGWAu/szy26XD+er2Y3Qk7wwQjeTMwNpUqVgo2NjeR7PVwQuMsNPE9HR0fJV3zgXTma9y7/bfLfFP8NhoeHi9sHDhxQ+71qg3fLjR8/HuXLl5dCChYFQjR9fX0xceLEbP1R/MkzaNAgsRIL+4gbQRCKh/G2bduwdu1aHD58WArNTrNmzcSZMvxBWNAwuGjevXsX9erVU7N4OH379sXChQsLZKURBPHucAt01KhR8PPzk0LU4S0SPnumoLUsDfpG0MmTJ0VxVBVMS0tL8QmzYcMGEkyCKMLwrpft27eLxpGXl5cUmgVvzvP+zYcPH0ohBQODWpodOnTAv//+K/kUgnnw4EHRNCcIovhw69YtccyCtzw14SPrvDlfUDCYpbl48WI1wbS1tcXy5ctJMAmiGMKnC65ZswZt2rSRQrL4559/8Msvv0g+w2MQ0bxz5062J0f//v1FRxBE8aRhw4aYPHkyGjRoIIVk8f333+P06dOSz7AYRDTXr1+PK1euSD6IUwu+/PJLyUcQRHGlXbt2+O2337JNB+PT5/gLL3x+sqHRu2jyuX5Lly6VfAr69euH6tWrSz6CIIozPj4+4ttBmuzYsUMcODI0ehfNFStWIDY2VvIp+Pjjj6UtgiAIoE+fPuIbf5qsWrXK4K8v61U0b968KQ72qMLN8cL0sj5BEPkPf5edj5prwr94xrv3DIleRZOb14GBgZJPgbaKIQiCGDZsmPiNCU327t2b669Z5Qd6Fc3NmzdLWwr406Rly5aSjyAIQh0+d1OTM2fO4PLly5JP/+hNNLmFqTlxlX+4lAsnQRCENvi3J7R9AOXIkSPSlv7Rm2hqm9HPv9xMEASRE/yjPdoGirm1aSj0JpraTrJ169bSFkEQhHa0vfTC9cRQ76TrRTT59/M0RbNixYo0N5MgiDfCv3LEv3+qCv8u7Nt+Kf5d0Yto8o+Ran76jQsm/0AHQRDE6+BfO6tRo4bky8JQa37pRTRVX5lUUrZsWWmLIAji9fBv7moSFRUlbekXvXwabtmyZRg5cqTkUzBt2jTREfqFf6NQuQSBcjkMvkyB5tIXOcGXnnB1dZV8b4cuS01oQ9flNZTnqklOzTtt4XxAokyZMuKyDvzY3M+XouUut0thEG8Pfx999OjRkk/BjBkz8O2330o+/aEX0eQnp/kuKZ/Vz985Lwrwr6/wifvXrl3LXCNm+PDhBl/TmZeHv0HBLX2+WJ22bxUS7w6/3vxa86/08E8bcpfbdY2I3LFv3z507dpV8ikYO3asuFSO3uGimd9Mnz6dGRkZqbn9+/dLsYWXuLg4JljQ2c6NO1tbW7Z161Yppf7gZZo9ezarWbOm1nKRy3/n5ubGpkyZwoTmo3RViHflzJkz2eq5Q4cOUqx+0YulyVeW4591UoWPphvaEntXhg4ditWrV0u+7PDJ+/yVr1q1akkh+Qu3KocMGSI2v98EH5FUrr2ia3P3TeTUHM4tfLYFHzzMD3Ja3TI369AoV/7kjtfxm8rIj8WXbinsv/OCAG8lac624fM3N27cKPn0iCid+cy4ceOyPSWOHTsmxRZO7ty5w8zMzDLPp27dumzJkiWiBV2xYsXM8Hnz5kl75C9BQUHM0tIy87hKxy3Ozz//nP3xxx9infN0RN7ArfqbN2+KLQr+G2/evLnab4I7Ly8vKTXxLkRERKjVK3eCaEqx+sVgohkYGCjFFk7++uuvzHNp0KABk8vlUgxj33//fWYcFyx9IDxxM4/Juwa4gMfExEixhL7gD9MmTZpkXgvueBjx7jg4OKjVq6FEU29vBGmSkZEhbRVOnjx5Im1B/LSdapNPdTH8d2mm6oJq85qPgvPmJo3q5j+8K+LAgQPiQCdf34Z3xZw7d06KhTi6Tmv25w2a8zIF/ZK29IvB+jQDAgIK9Y9JdUYAH9Xbs2ePuM0/TMJHUfkX6jlz587FxIkTxe38hAt15cqVITRjpBDFDcv70zw9PWFtbZ3twwdc0MPCwiQfkRMpKSlq9cqFUjl163UPRerTzFu4YaJqbPXu3VusX73DRTO/0dY8v337thRbODl16pTa+fA+Tc0+Lb7N+7z0xc6dO7P1qZHTv6PR8/xBEE21ehZEU4rRLwZrnvMJ1YUZ5Xw8JXxOJJ+vqWp5cEuUL02qL3r27ImTJ09q/XArkX/w1/x43f/00084evQoHj16hFmzZmn9pBnx9ghCKW0ZFoM1z69evYratWtLvsIJ7zvkk9j5usyq8Anu/KYx5AqbfIoGX4CfT2zn28ruAlXyeqpRUSanN4J4F9O7vN1E5B5zc3PI5XLJB/Tq1Qtbt26VfPrDYKLJv7wsNGklX+GG93Hxzn/er8hvKL6aHg3CEETewh9Uqampkg/48MMPsW3bNsmnP6h5ngdwoeSd0vwr03yhOBJMgsh/9GDvaYWmHBEEUSjQ7NMsdqJZlCxNgiDyn2IvmmRpEgShCwVl9JwsTYIgCgVkaZKlSRCEDlCfJlmaBEG8A2RpEgRBvAbq0yRLkyAIHSj2okmWJkEQukB9mmRpEgShAzR6TpYmQRA6QKJJokkQxDtAzXOCIIjXQANBZGkSBKEDNBBEliZBEDpAfZpkaRIEoQNkaZKlSRCEDlCfJlmaBEEUQsjSJAiiUEB9mmRpEgShA9SnmYOlyVd2rF69OsqXLy+uJU4QBMEhSzMHS3PTpk3iOt1cPFetWiWFEgRR3CkoA0EGW/f8119/xejRoyWfAi6Wffr0we3bt0U/Xxze0tJS3H5X3NzcEBISIvkIgshLzMzMEBcXJ/neDjs7O3Tq1Alz586Fo6OjFJoFXyo7PDxc8gGtW7fGkSNHJJ8e4aKZ34wbN44JTwk1J4ioFJtF8+bNs6XLKyeIr9ZwcuTIvbszMTHRGv427ueff5YUQR1XV1e1dIJoSjH6pUA1zytWrCht5T1yuVzaIggirxG0RNp6d3x8fKQtdQShlLYU5OUxdaFADQQtW7YMXbp0kXwEQRQW8krABIsVHTt2lHzqFHvR1GZpWlhYwMvLS/LlLZoVThBE3pFX99fr8iko97DBBoJmzpyJKVOmSL4stKXleHp6Sltvh6mpKdLS0iQfQRB5CRe0t5ESPksmJSVF8inu09TUVMmnjru7O548eSL5gBYtWuD48eOST38YTDR//vlnTJ06VfJloS0tvyAXLlyQfARBFBU+/fRT3Lt3T/K9XjT5mMfjx48lH9C8eXOcOHFC8ukPvTTPlU8SFxcXlC1bVpw6wCtHG1ZWVmKaMmXKoFSpUnk25YggCAVOTk6i1cb/GxrV1l+JEiXE+z4nSpcuDVdXVzg7O4vTEQ01uKvXPk0+x+rp06eiSZ6UlCSFqpOYmCimiYyMxIsXL3JMRxCFHW442Nra5qlhwOdL5oS9vT1q1KghzlnmBgn/z9++4/MjCwKxsbHifZ8Tz58/R1hYGCIiItSa9PpGL6LJnwqa0LvnRHGEC1elSpVQu3Zt1KxZU2x18cHPunXrolq1aqKfjyC/LVWqVIFMJpN86nCR5AbLzZs3Mx03UPgry4YipxZnbniXfd+FAjV6ThBFFW44cHHkzcvo6Gjcv38fV69exZ07d3Djxg1RwLgVxS1Fbg2WLFlS2vPN8H34zBPO60aYuZi+evVK7Bvk4sr/JyQk5CiyMC+PGnVrwsOGe4wgsymDckKz3rWUeTbhMLYth8reNeFdvRo8SquLmXn5GqhbpyqcJX9hh0STIPIZGxsb0YrkAsVFkoumZrcT79vjzdOgoCAEBweL/f/c5QbeF/gmkVW1Xnl3ABdKY2PF7a9tzrSsTCXUqOoIC2MjGJsZwca9Bmp4lYG9tTVKutVAnWquUkoB41LwrFgS7Olt3AqMhblLZbgpG5cyV3iUshCPZRi7MO8h0SSIfIb309+6dUvs01f93XPxcnBwgLUgREoB43DxDAgIwLNnz6QQ7ehijeoKkycj4XkIYsSuQzOUtjFFYvgt3Lp9B6GJgsgKFq1pueqoU6MCbEo5wirjFZ68EM4tNULYxwy2pfn5yODqWRqypFgkFaHbnUSTIPIZ/ltXjhLz5jMfteZ9mLx5zEWT9zXyPk7e16lsKqvukxO8qZ9fyKNDERz2Cor5iEJZMoxgbueEEvYuKGOpsBnTQgNw7fZjpFibwSQjHcqhGb6PqYUDSlSsDCezBIQ+jEVGvk9s1B8kmgShR/hUH24h8mY6tyYfPXokft2LfzuWW6R8NFvbwKkSHseb4/olDWEhUUgxd4ane0kYJydDtUGfkZyGDJk1FBOYTGFhYoyMNBM42cqEpn0JuNcqB2tTS5SpXxfV3XLoPy1EkGgShB7ho9d8MneyIDyq8HdMePOdC2lOk7s5vH+UO32TESeU++Y1XL12A4GpRlAd309/HosUI2s4V3FFmfIesDdPQ1L0MwTeuILLly/j8s1opLAkRF6+ioCQnM+tsECiSRB6hE/IVr6Ex0e9K1eurNY3yQVT20t6vAmvf5iiLDk0rU2cq6K2tzus0sLx8GkCjKydUc7RHOkvwxEUKyXiiHkIeUnewg6JJkEYCN7M5pPbc/NmDp/f+S6ojpDzaUf8g8FKazfneaFyBN++icCXkldCHhaCR0/CkR5xF9dvBSNRCEuNuIfrVwSr8so13Hr0Amp3tzwYt67eQZjkLeyQaBKEgYiJiRGnF6m+T50TfA4nJz4+XnQc/mYMRzMspwEkbsXyt394Xvy4/D8fuX9dd4A2WOorvIwvvvevwUSTlvAlijvccMjtq8J8bieHvz7IpyRxoqKixP+aYTkZJHy5Fz73k09sVzr+Hrfql4OIN0OWJkEUE16+fCmO2qu+Rsn9vLlO5B6DfRpu6NCh+OuvvyRfFjl9Go4WRSOIokeHDh0yF1LkFIZPw/HRsXxH28JqQ4YMkWLV0ZbW2NhYiiUIoihRt25dtXvdzMxMismOu7u7WtoWLVpIMfqFmucEQRA6QKJJEAShAySaBEEQOkCiSRAEoQMkmgRBEDpAokkQBKEDJJoEQRRKjF6ztEd+YjDRpNcoCYLQBZb/7+HkCrI0CYIgdIBEkyAIQgdINAmCIHSARJNQIy0uDklF5RPbBJEPkGgSWYRvQT9XO9h/sh3PSTgJQivFQjSf7R4ERwt3TDsjl0K0cHUOqpiYo9/250VmLZM3kvYMt7bPwIcNq6BcCWMYuX6MbXEMtRpVg4NhZnMQRIGnWIhm/PMQxKY8xq0Q5TrO2Xl05V8EZaTi8dNo9fVNiioxZ/HzexVRq/f32HnxPsIEsYR1WbQcuxubR1ZXW22QIIgsioVolnZ2B1/e/snTZ28UxOoe7toFIzkGz2JfY6nqSHLMM+RhdtrJscxpuLj0M0y/mAjnbotw/NFLpPLVAuPDcXxRd3jkvOw2QRR7ioVo2to4vPFEE15prKAnEXPlLwypXwYWViVRxk4Gc/deWHxORXzjTmGKlyUcXUrDwthIfEuBOxuXVhi+4j+Eq32EOgZX/hqC+mUsYFWyDOxk5nDvtRjnnmk5sth0XojP3q+KyvW7YticXbifkLuOgzeW+dlOzJ35ABklR+HX78vh8u9fonf3Yfh+6UG1YzzaPgyNq3jCyUJougvn5DLlDF6v8zEI2CE09+sKx1bWhY0LvMTy78djsQBxODXFC5aOLigt5atM12r4CvynXmF4tP5juPOuA2W6TGeODquCoP6KRDKCji3HpA8aokrl1uj33cps+Sm6at7D0jvqe2oLv/NnM1jbfoZdL1TqXbje31W3hPl7S6GRhXD4IBxbPgkfNKyCyq374buVmtefeBcKyuR2g325vXnz5lKsOvny5fbjE5i1cKo+vrdZmhSkyfEJ1sIVkbH/HUiRQhiLPjqBeRqLLXomk8mYkeBkRoJf1oT53khSJIrcwnqbK9Joc1VmXmZyMWE0OzrBk3/1WQgX8pEZKfIU/LImvkyZHUf+ZA/7ooqFGKeWX9lubNVNlYRayE2Z5YfHMCuen7UNs+FxORzjyuzKUnklN9SfZdWOJrHs5ORKmellpdyZl5crs83MX1m3kWxLb/OsPDVdlZnssqLCRBTXRUs6wdWed0OqW4Hoy+zXzg7Z60xWg319JJKlS8kermjDzITwof7qZ5I9PJb5DbEU8vBhvreVvxo5u7HAhwmtFiF8KFPNIvryr6yzg5H6sQUnq/E1OxKpPDqhiS5fbi9fvrxa2pYtW0ox+qVYWJpKbszogmqVK4sL9Gu6/sv56s21UMVN2Ti/g3+++RUPM8ri812hiEtJQUZKAgLX94Gt/CwmTdyAIG5pODmhAm/7+/hCuLfEpyF38oAlaCbchff8zuART3fnH3zz60NklP0cu0LjkJKSgZSEQKzvYwv52UmYuEGymtIuYnbbnvjtngO6LjqOxwkZYPJY3N8+HB6RezFk8J8I0LRwMsldmZ8E31JYjAnxiLdqiVnHHyAsLAD+3/jAKkI4Ru9fcDEJqDv5HoTbHYKioI1wLrh+H4E5HfvZASz2DRTPb0dwApKfB+H+/VDEZjAIwickUNatE5wUFQZBjDLri8kDsERRYTgjVpgq6mkjt/QG70EwMzWBYrwqHFuGt8JX+xJQ/YsduP0yVUiXhLAz89HOLADz+kzFAVVr8TUEPAqWrNcoRATzpXDLo6yTdJs8Wo+vf7iMbAvkhm/B8FZfYV9CdXyx4zZepgrlTArDmfntYBYwD32mHkAuD08UBoQfYb6jzXps3LixFKtOflqa/HRf71Ssigs/sfKCxSbru41FZSiCFASwxT6mQtr2bOUTbkEcZ4ImMEE0mWLXJBb96Arb9rUPsxKsLNkwf5YghF74qbzwhJKxvtuimHp2i5mPqbB/+5WMZxe2vjuTCWWpMv0CS5SSKIhl+0fYCZZUSTbxRKoUpkEuy3xjQW0myJfgLyvkpXqUaMG6KiEcQ8aG+fNSSyitaY9BbNmeLeyP6b+wVXtOsTuCOmQi1bHr1DNMs3QKazGrbjX9SdGP2JVtXzMfK8FSkw1jqodWWpqqlqGmVSg/+4PivHttYk81jLqAxQrLsP3KJ6K1mZOlGbymg1jvWa2Rh2xFGzPh2JJFKb/HVrS3VrFklZamnJ39QXFte216mmnRKtD8rRCakKWpA3q1NEu6oBI3cob6Q/idZ1osqk5hDWXxLPgGIoUiZp9+Uw1129kKFs5xXAxQsTkufYd2Xk6wMLZESY966D3vEhJZByyb1hFWeIbgG5HIEKytRtUcJOtIolpdtBPasDh+EQFpj/Hv2gPg3WChyz5BbTVruL5gxSQLMdH474ZmX56C3JY5OjxQsX+r6RjV1FJMocABHT4ZBEuhBEcv3M6yqCytUIL/Uh6twYjuH2Hk9EkY0r05qjl54Yt9/LwEvOqhraA6YfP6oct3q7D3yCU8DA9H+J2jOHpRW8feJXzXzkvsL7Us6YF6vefhUiJDh2XT0NFKSpJJbVR1y/qphgdeVbP2zu1eghBeiOOT0aKqap1VRo9fBGuZR10MUNtnZRdztT5S90EHxXrXThru/z0aY/9NgFmTEfi8MTe7lZzD7iUhYh0cn9wCVVWOXblyD/xyTzy6+m+FKNQUD9G0tkMpHc80Pja3U49KwkVU5AQ8DYoCK+kOL4/SMBdF6yBGfPQ77qTHIzY6N7kF4+Zpxa2b8DQQDx48UHOPolJEM8fWylJdeCVyW2a3ao3Ab/uhXw9CRWVvhISpqZmYd2ikSl6WFrDhgSXfwzcr98DPzw9bFvZHZeMn+P2Dr7CTz4R3+QjzVvVGWS78M4eie7sGqOTqCtfqbfHTSd4ZUBuVxXriz7BK4gyFhKdBiGIl4e7lgdKKCsPBER/h92wjLGYwNck643S50PwW6t1BLNQj3LsQL9ZL6ovgbHX2ICxOjLOxUa8z67KV4OXlleVc+UNFlRDcOa8Y9np5bDI6Dz+EBIfPsGXnRDRSFfVH93AhXjw6XgRrHFtw4lQu2MDGUj13ovBSPETzLfCo0lAUihvn7yCG/+4zCceTgAThRqyPGqLiWMNOVOTe2Pw8Aym8L+/hMyQnBmBJazOknvXF5ivlUaWhjXBT3sD5OzHiTZxJ+BME8BHr+jUEAXMRDDYuZ1Uw87Jc3RqWx+JZeBjCwl5g12A3rRcut2VWTsE6duF6tv65OzdOIEX436pBdTGNiKkpzPg979EHn33WDV26dEGfcWvw9zdCOVJ34LBQVpH4FxCqQKiSyug8dJy4hv348UPQylm9tNZ2pcTy9978HBkpzxF0/yGeJSciYElrmKWehe/mK1K5HiHwKn+IqPQrZuIBV0ceVh7u3rzOZOi7LQoZqnXGkgSrmtdZJIJmtRAfFEqazjiKu/fv477SrR8utAi0sQ6Duy9U9BOv+wXdymiUo7w7FIfvi21RGSrHFlxSNMLDhONHBmFWC9WjE4UZzV+i3ijooonGPTBaaBKmbhqNMRvuQTETJxlBW6fiaz/hRm41CF08uWiWhrM7l5dghPO2sURy9GMEPeEWUxk42hkJ2Y2Gm3EqNo0egw33uIDxREHYOvVrKLLrAk8TL7ToU1sQq3v48ctZOJ05XyUNz66uxqAaHui9IxKynIyWXJbZtkUfDBTK9Gj2WPx6VWGliSnvLMNXUy4jTRCA4d3Lvf7HkRaNiJCXwr6SFRV3GAsnHYdc1gubAu/Af8VCLFiwQHBT8Wl1dXNWKdrB4VLTnpMcjcdBT8SmdBlHO4XVF34Oe04LguxREx72OZ20KRp2GgA7I426FUgO2o/vW3uiwcyrkEtPAOWxo2MVFmjOKB9gqUhNNUMT34NY3LlM9joxbYhOA4Typm7C6DEbcC9zypZQ7/u/R2vPBph5VS4ekygiCE/EfEfb4E6tWrWkWHXyZSDo4QrWxky4RzIHa7KjOTjBUZ2+A1kp5mgrTSlRnXIkoBjkkdKpORmrMOYAey4OyqhOOQKTlXLMnI6jNuVIfo+t7ipNnRGO6e7lxYTmPhNar0Jaa9Z17aMcp01xcldmObu3oj2zlvIsW0n1GDLWxPcGyzo7jjTYpSyP6lSiKtPZhUTGYvePYIIOs5ITT2gMBGkMqHCkAStxfw0nqzCGHRAqLProt8zHyVysh6xpWwqyXyuhbidVYxaq55NZRuEaTDmRNaiW0/SzbOHKcgtlar+SPcpMrOV8oo+ySdWkKWLWZVklXkeuttI1rMCmqA22Eaq8y0BQq1atpBj9YjDR9Pb2lmLVyRfRZFfY/BoWzGWUUsCyc2V+DWbhMkq8YVVJerSPTWlfiZU25+Ij3JAtx7Id9+LVRsBj/YYwS36DSE6co9jqc7b4wD0Wr5ZdEnu0bwprX0kSKOEGazl2B7unnkjQtEh2YflgVtMua96fdeW+7NfTYa+ZJ5lFbsqsLEtT+6xjyEo1ZmN3aJaZE8m2fyKJgNLxsn/+FzsrzUGM3P6JIFKao/GcSLbrs1LMvMkSFqAUnlg/NsRSJS9RjFuxzxcfyKwLxRxRa1a57yqmOTX14ZoOzNqmJ1uvNiKtOJ/WZRRCm+P5BPzBmlrJWPuVGg+fK/NZDQsb1nO9YpSdz1Y49GVpZlT2c+YfoXocxXxUiwo/sP9Unw5Jj9i+Ka1ZGbHO+fFlrFRjbfVOqKKLaLq5uamlLXaiWb16dSlWnfwRzXxGELmbR0+z+9nV5t1JimWxOcwwyhvkLPZZOAuLfJVtqlD+IWeRN4+y0/dfJyhylpT4liWSC3WWaDipksfGMgMevlBRGEWT+jTzAlMneLduCi+hvZvnWNjCNl/HEExhW7osXJxKqA2U5C+mcPJujaZe1hoj1qqYwsLyLUtkKtSZAUerTW1tQYPlRRcSTYIgCB0g0SQIgtABg4kmLeFLEERhhCxNgiAIHSDRJAiC0AESTYIgCiVGRoaZokCiSRBEoYAx/t6A4SHRJAiC0AESTYIgCB0g0SQIgtABEk2CIAgdINEkCILQARJNgiAIHTCYaNJrlARBFEbI0iQIolBCk9sJgiBeA01uJ9EkCKIQYlDRLChPjuIIS3mOgKt3Ea25hi9BEK/FYKLJBZOsTcOQEX0Oi7pWR416NfDegmtSKEEQucFgosnRu2gmXsa8RlYwsvTBzPOxUmAxgCUi+NgSDKzvAJmREUxKNcH4w1HC1XdEfS9HKRFBELmhGIkmw/MjSzHzQhKQfBlzftyNICmmSMNe4fyMpqjcZgzWXXkJuRQMixoYue0MVn9YTgogCCI3FB/RTAuB35/r8Uryxh9ehF039NWhx5Dy/BbOXApFqhSSd2QgNugizt+Nhrazif9vFvr+cE0QSxOU6TAd6/38sO/EDYQ9v4bfP/CETEpHEETuKDaimRZ+FFv/zbSzAPlN/HMkQF1o2Avs/9IV5talUcrKSJwHxp2JdVnU+GAOjoVyyZMjeOtncJVlxas7E9g1nY9LCTy/eNzZNAL1HcxhUbommjZwR/l2U7D1uqrApSF05xAhP2G/lr/jVjblS8SlWXUhs2yIX8RMJeShOP5LT3hYCft5NETjGhVRt5+vVEYlL3Hq72UI5psl3kPbUv9i2ujR+PJ//8M3fxzCA7UeCqkclm4YvDtUChNIvoO/ewt1YtcU81WOn3hpFupqrQOhPA2+w3Gh9S/muWMgnEyd0XvTI3G/t2HXrl3o06cPWrdureYGDBiA48ePS6kIQk8wPTBu3Di1Rd6VLjY2VkqRhba0xsbGUuzbksRuzm/Ah+qZsfsX7JeJNaTtKexUvJSEk3iFzawlmIVCnDZn7DKC7XsWx0594641PtM5fMJ2hKeyoM19WWlt8Sbl2MBtwUwuHjSBXfxRUR4YV2ATj78SQ5XIQzazj+0U+1WccVkRmPGSnfupDjNTzVNyxiWasNnnpDziz7Lvq2RPo3QWNb5ge4IVpWAshu0bZieGu0w8wRTVksoermifeZzM4wv1eWNufbW81F1FpkiadW72fbayEHFf3Th27BgzNTVljo6OrFWrVmrO3t6eWVhYsJs3b0qpicJG3bp11e51MzMzKSY7rq6uamnbtm0rxegXg1qaenuVMv4S1i29KGyYoc6Y4fjis8FoIPgynmzEvqsq1ptleVTyUmw69luMA+fvISzsMa4fnIlOdkL68C3453Qcmv50ETeP+8HPbwcWfaToE7Rq/A3WCU1fP799OHlmCbrZnscfkzYhChao/9NpvJAzpMfcwD+DKsEsPRRrB43ERs1O1YzH+PMX1b7WZNzdPB+blX0KEmkhO/HTz0KT29gJH28IRArLQELQYcxqVxoZsWcxte8cnOanlfwEAfcU+3AsagzB0m1+2Ll0ECoJSph8+zcM/HoXFHZlOuJiFAcyt7eBtfA/8dI89Bp5KKsfNBMLuFRwV2w69sNi8bz9sGPRRxBro0QdeObR+NLMmTMhiCMEYYQgoGru6tWrYppff/1V/E8UbQS9krYMSzFonjM8P7YSy3gb1aYdvupZC9ZVe2NEO8GfEYy/Vh0ThC071p61UMcFCLm2D2vnrcBxrifGdqhQugSMzB3h3bILunTpgKY1BDUVkLk1QKsuPKwTmlctiaRLO7CBH1MQlen/a4qSpsLu9jXR/7eN+K6GEB5/DgeuPRX3VUW1r5U9/xcLfuZir0oawv5dj32CkpnVmYxv+/B+SSNYubfF5PVL0VsQw4wnO/DfAyDpSSCEfwpsOuC3ncvwRa8u6PnFKlw4NB5c9l7umo2tWvp22avzWPD5dFzLrpjq2NZAU/G8u6BD0xoQa8PYFKYav6zY3f3hkdmEN0XpZtNwJCL7cVU5evQoDh8+jOHDh8PZ2VkKzcLd3R09evTAxYsX8eLFCymUIPKXoi+aKgNAFl5VkRHgD/+D18Hcq4jRz/fuwPlM1ZTBqbzCcnw8oxWc3aqgcZeRWHA4CElCmE37HzC4MbfB3kzqsycKC87WEy5CGz0Tq4qoWpVvxOBsQHbRhPwKZi06IAh5Mm7//TPWqFiZMdcfCXmmIipMsZ+1p5soxkqMbDxQs7KwkRGJy4GhMLa0ho0YYwyX/mPRzUuZ2AgODfpgAK8C+SOcvR+hCFYiD8PO0d3wA1dMi3Iop1r+15AaFaI4Z1lJ2FqJQZlkpKaqWKzpeP7fT+jafYGi71cLaWlpWLdunbi9fPlyVKxYUas7ePAgrl+/jkWLFolpCSK/KfKimXx3K37nZhnfvuqLQV27omvXHvh8hdRufS7EH1A2iE1gY6+wHLURf2gypu18rDKIkwsy5IIASNsclgb5GzJ4vvV37LukzcpUJ0PIWK0GhbxVj2VeuizKilvO+OSTFlDTPsHaM1URXCQG4e5dxebTlaPwv3X8SWKBJnPX45cWivA3kR4Xo5idYO2G0iX5hiXcPCvxDbVm/O5V/wM3tpMvLsSK09GKeA1Onz6NNWvWwMbGRhTQ4OBgrc7CwkJ0M2bMQGBgoLQ3QeQfRVw043Fp3VJoSo+JvRu8vCqhvL3QlhXSHF60C4oWqiCadgrRtGiyEOcEi+5lSjrin17Ash6C5GQ8w7a5e3BfTPF6LD1qicKAkDXY+l/WMLU8yA9r9/Ete/hUcRLDlNi3HYgPeZs5/iCGN+2lsDLt22PUQDEnCUuUr1oNvOSx/67B4QdKlWSIubgV6/izwLg0alcUmrNWXqhXi8dFYNuBq1A16pIfnYDfbb5lhQpODioWsBAXGipYusZw6rcWG0fWgKq2KojDzXPnxa0SdTyRc/elEUzNpL1VmvHdPx6Kj8RTSkV0XKIYrQkXRM68efPwxx9/iNvaOHXqFCZNmiRuhwrlJoj8pkiLZlroPiwVOzPt0WdriNiRzF1azBPcv/8At/eOE/v15NcWY9M5LinmKF1WYZslh0YK0pCBhOfhCAt6iFuPX4rhZnbWuZrbaOX9IQaLo02PsbB7U/T7ZQP2rJuOHs1H4hA3fO3fx0eNNSaWl2yHkV81FQQxA6mpPJFg6f00AwM9FdEKjFC6zUD059rOxbV5R3yzYjt2/T4CzTsvFKcXmXl/hverCmJlWQ3dB4qFQLDvl/jpQDAS0jIQG3gIvuN+ER8mxu6foUf97F0OFvV/wp4/+6BCNsVkeHV+EcYt5QJlhsqta6G8IuL1RO3CvAkTMOGrQWhf733MEAVbhpKa7XgNpkyZgpEjR0q+7Lz//vs0EEToFz6Ent/kNOUoJCT7JJS8m3KUNc0ILhPZCdWpRUrkj9nqzmZiGsfBe9kzISjh4o9MMIIU+2k6i/pshnI6j8jrptRksJfnfmJ1zLTkY+zE+m3JPuWI5/Ekag8bJE0xUkxx0naM10xn0iijPGQ7G1BaSzrR2bAOK+9L5XjONveSwi0asDkXlRWWFc6nHKUGbWZ9pfws6s9gqtXxfHMvxf4VZzDl5KTMsGzOmDl0Wc3uKWc8abB69Wot+7zeXb16VdqbKCzoMuXIxcVFLW2xnHKUv5ZmMkLu8oa0Mdw/6wEtxhRg6oau/+svjvhGn7mNMOG/ZfmqqMbbvqqY2KPie/3he8gPkxqVkAI5lvDq8DHqyEqgekN3CI1cFYxg12gqjl3eiAntKgopFZg4NsJX285gTZ8KUrPXEhUbtIKLkEetVlVR1rEtvpzaEJYm5fDp4il4v7QMzt71UFrw9+zfWDGlR7Dw3PusxIWjizGgnr3YVOfnaVWhJ5acPKRWRtNyH+D3Y6vQ20XjpEzKoMvSk9gyxCuzHJ6NhOMaO6Hf2q2Y4KOsMCncxB1dG5RB8L7fsYm/tu7UD2u3T4JqdVh6NkJDSwvUH9oOUk8mSjT8GANdLGDv5gUvL4Wr2XEYZm++gDs7BqFyNks2O5pTjVTdxo0bpVTAy5eK1gBB5CuSeOYrOVmaQUFBUoos8nJye3pMADt+4CILSZECtJEewwKOH2AXMxOls5iA4+zglaeSBZZHpMezFy9fV5C3JyP5FYuJf0NpheM/vX6c+fn5sX0nbrCwN6XPgYy4u2zfb8uZ/331Sfh5zd69e0Xr0cbGRgrRTlRUFFmahZh3sTTbtWsnxegXvVuawslKW/nfp2lsXw0tO/ig3Os6IY3tUa1lB/hkJjKGfbWWaF/XWcsAyDtgbI2SdvnzpreReQnYW7+htMLxnWu1FAdiOrWoCZc3pc8BI5sq6DTqc3T2UrW4856uXbvi7Nmz4qT21+Ho6Ig7d+6IE93r1KkjhRJFEUGvpC3DUqRFkyjcNG7cWJzA/iaqVq1KgknoDYOKJq1ISRBEYYMsTYIgCB0g0SQIgtABEk2CIAgdINEkCILQARJNgiAIHdC7aKpCokkQxNuiaoDpE72LprFx1iFJNAmCyC00uV2ARJMgiMIGiSZBEIQOUJ8mQRCEDhjU0qTXKAmCKGxQ85wgCEIHSDQJgiB0gESTIAhCB0g0CYIolKhqiT4x4p9vl7bzjfHjx2cu5l+yZElERyvWut63bx86duwobitRTauEV87bDBolJSWJX/+Oi4uDubm5FErkN6mpqZnXmMhf+Lrw3L0tcrlcvL9evHiBMmXKiPdZVBRf8x6IjY0V76GcMDExwZAhQ8R7+m2pV68erl27JvkAU1NT8fejDWdnZzx79kzyKVYiPXjwoOTTI1w08xvVdX8cHR0zt/39/aUUWeTlGkG//PKLuHaMp6en+J8cOXLv5uzt7Zm7u7voLCwsWLNmzaS77e3QZY0gQdTV0rZv316K0S96tzT5mi7Pnz8Xt/fs2SOuBaNKXlqay5Ytw88//4z58+eLT6mCDLcWeN0QhD5JSUnB77//js2bN2PWrFlo06aNGM7vF0EUxe2c+O6778T9bt269dYtObI0c0DVenRycsrc3r17t5Qii7y0NH19fcWnIUEQObNy5UrRirx06ZIUkjt++ukncT9BeKUQ3SmMlmaRHgji1qlwESQfQRDasLW1Ff/zvn9d4FZhcaRIi2ZaWhqJJkG8AeVA0tuKpmB8if+LC3oXTVUMIpqpt7Hlp5W48FLyZ5KBqOO/Yc6BYMlPEMWDt7U0S5cuLf7n91lxwqCWZn6/e65VNOWB8Jv2PwxbfhVql1oI3/L9l5h39Il6OEEUcd5WNJXpVb+RWxwopn2aabi1YA1OxEtegZSrG7DoNJB0+zFCpTCWGoOAU/7w338eD+OzpDTBfxhKtxuGoY1KQWZsjRqfb8dDMToB/sPKYqifYp5bevhuDPbogY0h3MeQGhOAU/7+2H/+IVSy00qC/1BY15qLq5npUnFjXgPUXnhT9KU//Rff1LEW69PE6QP8eV1pOssR4NtQDFc4s8x9OCz1JYIuHsHx66EqZRD2WdoMssx9jGDsOg3nkYIrs+qi+fL7UrrXk3RiIsoq87Dm552Op/9+gzrWPMwETh/8iaxiBsC3YdbxjMxqQ6WYGgj1OlSWlZY7Y0epnnM4Bs+/iTJPhoSr89CoAj+n19Rd4gGMEPNROmv0UFw8AeH6vQzCxSPHcT00Xnqw8rpuklW/aUFY1akCpvGDZERgUx83TDzO5zkyxB35CmXFOlXCkBh1E6f2n8O9lylSmGF42+Y5n6fJ0VfzvKB0AxRP0ZRVRjW7dVh+IELhZ7E4sWYZZNUrKfwC6eF7MKJqU8y6koT0sJ0YXKseJuwPU9wsaal4fmQVtpoMx6pdvmh+eiA+WKiwXNNSXyEiJkEUzGH1e+Ns1/+hRdl0hO8ZgapNZ+FKUjrCdg5GrXoTsD8sU7WykyZH4q0FWKNU9pRr2LH8EsJfCD9s+QOs+LQndnnPwla/Pfh7YBgmDFguCWw6Xj1/Aa8fjiIs7DGOf1dVsQ+P4edUuToGLN2HndPao0KrX6RuCoa0pASYfzAffn5+2DmrC0qIexjBVKi+u48VU8TeRMbLZ3jZZgkuh4UhLHAFOsWvwKc9d8F71lb47fkbA8MmYIDSwk9/hecvvPDDUSHt4+P4rmo4pGJmh6UhOdEIdcauEcvn57cdU5slivUsf5DDMYR90pJ5nlww56N145lw/PpDVHld3bEUJKXVwdg1wjH2rMEX3orD8zrl169y9QFYum8nprWvgFa/XMBLXm9pyZn1C5OSsLOPwqX7wcL1e4aQwGSYyyyF6xWIDbN+R8TLa3jENZgl4KpvS1RsMRXrDy3DsJo1MWT7Q0mI9Y+np6f4P0y4bhzeQvvnn3+wZs0aNXf8+HGcPi1YFhLFtU9T71OOypUrl7m9du1aKUUWeTnl6JtvvmE1atSQfBLxu9gAy05sse9A5vDRVvZUCEoL+Yd1d/iIrfpzALPsvJYFsWR2floVVnnGRSbn+6RcZ3PrGLFSQ/ayZyyV3V7YgMka+rIbYmQGizv5DfOo8gu7wuLZrgGWrOOSHWx2A3NWutc/LJCnST7PplWpzGZcFHcQspvL6hiVYkP2PhP92ojfNUCczmE/8iCLY+ksYtdnzEHwO377H5M//JO1tvmIbeWFF8h4uYsNtKjCfrkieti2vlas+4YngieRHR7jyKrwiNT77M+2ZVj/LU8U55Txih0c6cyaLbsneFLY9bl1xLw5/NiKelCE23wwnwlixfyPXWPhyWISrWTtx5Gzh3+2ZjZSHfN6erlrILMQ64kXcxvra9WdKYp5mI1xlMqvFUW9dl6ryDnLH5jzMcRrVpKN27iNDXK2YrV/OMlihBSvrTvxt9GZiYcR93dkvEpS7//J2pbpz7Y8UVy/jFcH2UjnZmzZPfV6Uytn5v5pLHRbf1ZSJmNmYt4ZLPbwWFbOewa7INVl6r2lrJnTGHY4TuHXN0lJSeLUvDFjxkghiul6/Pen6b777jspBWMrVqwQwwQLVQrRHV2mHKlOV+SuWE45yu8+TTs7OyQkJEg+VYxg164/+h6dipUXX+HCHz/i3IDh6Kyc/y5/iP/2RaFH8zrgz9KMaKEZdc0CjVp5ozTMUMGjKkwcS8FWfNAaCc3ohmgY8h/uii25JBwY/SGmXExFuqUVrIU08of/YV9UDzSvI+aG6JuncM2iEVp5KzrSc8LE0RFG61biQEggts3fgiqN6yDh2kMExccixqISXKTyGlmUR9VKL/CKtwRTAnDlghuaVnUTPBmIF6wxz7IOSAs5is1HIrH+o/Iw401PYzt0+CMCt2+HCCVmSH9NZ378zm/wyYixGNqlLqp9tAG5GyoTjh0bA4tKLlAU0wgW5aui0otXwvF4Ma/ggltTKIoZj5gETwjF1JHXHwOIhm+/3lgTkYoMaxvwRmjGa+qOCXUgVwSrkIaQo5txJHI9PipvJv5+je064I+I27gdojjK81lNxXAjIxv0XCcGZZIWvguThu9H5xWL0VcMScaFPWsReus7NLRQdAPIqnyJ06+u4GG4mEDv8Ens9vb2ePlS2XcCfPXVV+jZs6fkUzBv3jzxZRElyuY5DQTpEVUBzQ9iYmJQooSioamJkU1LDPqCYeGMIfh+cRn8/EVb8aYS4U07eSoeP+PNUjke7l6FA0IT7UWs4ibRJP3Fc0RK2xzT6t/iWMBWdNo3GCM2BCtuxtTHUGT3ELtXHeA7IYfsMpHVG4+JHfbh58GfY9azqZgzsaYYbubVEG1lm7DrOP+RC83PgAPY+rQ7mngBqfdPY39iLzRVJM2EJSci3qINllwWmsNhIbhxkjdz/bFzZH1YZsQg4OwjvOfNFSw7jt+ewqvQQISHC+f073qcypVqyuDVsC1km3ZBUcwEBBzYiqfdm8ALqbh/ej8SezWFRjF1xOw1x+AID8fuf+PmhZ9gMnUAfj4bD9lr6o4L+TkHH1R2F3eWYEhOjIeFstsh5AZO8i4C/50YWV9oegs4jPYTm7ZhYQ/xdy8xSOIFFvX/BPs7r8DM2rFQ9HxmIDk+PnOf0AcX8C/Pb9cidPEQExgEbmCoiiZn3bp1aNasmbgtWJ6YOHGiuK1EKZbaxw2KLnoXTcG6lbbyXzT5xeSvialhVhE1q1zA3XBz1P1kLKrv2YEzLYajfWUpniOrgpY9nLH1s9bo3LkB6vzvLHya18b1hatw5LnwQzE1Q9qhmViw9zGSU1/g0vo/caZeF9QXNMfUzBatJw5Bq2o9MXfVB7gwaiw2mTZDD+et+Kx1Z3RuUAf/O+uD5rWvY+GqI+DZ5YipK7oPH4CQI+fhMaEPfBRdSIBlM0xY0wuHulVAucpeqNTCFx6/fouOpVNwbccKvOjfAuWfhQsiF4lXiemIinyJDM+m6FzuJP7Ydg8yJ1d4VbTB9S2nke4gx9HvO2L44Vbo3URTNI1hU8IBCef/xTb/vdi4ZBWOWznDwVqK1kSoF+MXsZKVx4s5AWt6HUK3CuVQ2asSWvh64NdvO6I0759d8QL9W5THs3ChnJGvkJgehci3GBDJ8RhGpkJxHDB8wifw9hmDVbOsMH/YbJxK0V53bSJX4eOPF8Jk0PuoIeWtwAyeTTuj3Mk/sO2eDE6uXqhocx1bTqejlL2ifliaGUq4uMDFpQzsrKTdRBjkdkOFevtAsoQ5lqj/fnckrF2GA3Gl4OpZFS4vdmNDhA1cldfXAGhamhw+QLR//35s3LhRtDw1UbYU8/s+LnAoWun5i6H6NKdNmyZ+WECN1NtsYeNabMENYTv9KdvYuwz7dIeigyvx+ARWsfsGxrvZMuKvseW9KzFrCxfWYd5/LCo5jO0aVFHsK1T0ScqYzEy4K4QqNLKqzX44KfaYsaCtI9mIzUFifiyN71OO1VpwncVfW856V7JmFi4d2Lz/olhy2C42qGJ3tuGeHxvqmr0/K95vKHPmfahp4ezw0hXsfEw6i9ral7mOOcyUSTMSnjPBWmFPYxSdYwn7hzPhns3sf8p0Ul9a/LVlrLubmSLMyIpVH7aNBaYmssD/9rFzwVmdlfzYyuPwbRsbaybIISvh3plNOxLK5PHay5yRGMjOXRLiJb+CDJbwPEwo51OmKGYC2z/cKnsZBcf7QwNUjp1FIjs+QVH3IulRbGtfVzYmswCax+Akswtze7NZZxRpMuKvsLkNnTP7kTXrLi3iGjt8/BaLUhae/07e4/2WwnZGPLu2rDtzy7ze1dmwbYHieSae+IE1HevPFLmqlFP+iK3sVJGN+Zf/LoQseN+p8xAmHl64poe+rp15rYxLtWHzzyvSGYoOHTqwWrVqSb7csXTpUrH8CQkJUojuFMY+TYOKpmD+SymyyEvRnDFjBitbtqzkyztE0XScwo6/jBRuvHD2LE5dJnQi8ST72kMafHhH1AdiJFQHNzgZKexlpCHLrDmoo0BZ9rsnv2YemudQQMhIeckiw5+xd6k6VUThfhojyLvhGTRoUHYD4w38+uuvomgmJiZKIbpDA0G5QDimtGWg5nmeYQQzOyehSVYWpW3evl2VeGI9Nnj3R3O1frS3w9jBE22aVYLat5KM7eHkLDRVFX32QrFlsHMyZJmN4eDZBs0qqX/RydjeCc6myTi9fgO8+zdHHlRHnmMks4NT2dJ4h6pTw8iqFFyc7VEQvvQaGhqq81e2imvzvEgPBMlksnwRTWPbUnC2MoVSh94Fq45/InT3J3kiEpYtpsFvSpOsAS2OZUvMf7Qb/bSP8bwV71ZmS7SY5ocpTdRKKRRzPh7t/hxD/wzF7k8KomQWbfgsE2vrnDqrtaMcCNKXaKoaXBxDiXWRFk2lpZnXU5tMKw7B/sc/opHkJ4jCDhdNKyu1Uaw3QpamntB385w/DfOviU4QRYO3sTRJNA1Aflc2f02T99OEhCjfHyYIQhvcwODzmnWBf62d3198naHihN6Xu+CfrI+IULzzzed/ffzxx+K2krxc7uLXX38V55fxhZ/e9T133j/K35zg/wmiqMAFjwsmX0yNz8u0tLQUW2fJyclSiiy4VCi7u/iSFHxffl/xRdnednE1XZa7cHJyylwqh9O+fXscOHBA8ukRLpr5jeo0Ij4FSLm9efNmKUUWeTnliL8vLYgcE5odTLgY5F7jeD3znwM5ctocfzdd6aysrMQF1lxdXVmlSpXEd9ffFl2mHJUuXVotLZ9bagiKdJ9mly5dxCdjfHy8+FQkl7PjFgO/NuTIaXN8KV+l4/2fvCnPpyk9ePDgjQuwFTWKdJ8mQRBEXkOiSRAEoQNFunlOEETRQVU7OIbSD7I0CYIgdIAsTYIgCB0gS5MgCEIHSDQJgiB0gJrnBEEQOmBQS5MgCKKwQZYmQRCEDlCfJkEQhA6QaBIEUSgotpPbqXlOEERhhixNgiAIHSBLkyAIQgfI0iQIgtABEk2CIAgdoOY5QRCEDpClSRAEoQMGFU2CIIjCBjXPCYIoFBTbye2qkGgSBFHYIEuTIAhCB8jSJAiC0AGyNAmCIHSALE2CIAgdKCaWZgyu/DUE9ctYwFg4Jj9udmcOxyZfYc+jFGkfgiCI7BQPS/P0XLQbsRpXnqVAfdKCKql4ce5X9Bi5HiEZUhBBEIQGxUM00+VI5WpZ+0ecDglDWJgWt3MELHna6FjE5aCsaXK5tPUm0hAXFYSAgIeIjH3zPrnP1/AkxzzFnYAAhEUnveYBRBBFl+LVp2lWAg5lXeDiosU52GivjLRnuCg07WvZG8NMJhPKbAOXVsOx4twzqBqkcae+Q3VLW7QaNw2DajnCzskDNWpUgrOdA+pPPYZnmtarTvkaw9z9W5xMkgJVePR3R9gYu+CLgy/URSw5CPtnfoiaQv68nm1cWuGrnfeRICWKOTZZzFfRNZHdmbuPxcEXQuJH69G9pAXcB/2Ar9s4w76UC6rXqIFypexRsddq3EpW5MdJuzgb3pbmcB97EHxX7YRj3whPmNi0wrI76VLY61m6dCnOnTsn+YjiSkGZ3M4Lku+MGzeOCScoOhsbm8zts2fPSimyUE2rdMbGxlLsW3J8ArMWThU+vux2mhSmidY00ezoBE8miCm/WhquLOu3OZAlSykfrmjDzLSm407GmvjeYElS2rfLV8Z6bXrK0qVwkdhjbEI5Y8V+Q/1ZihTMoo+ySdUsmPCTUslX4cp+7s8ihEwCFvswUy3xWa4JW3JPqAhlveTglPlxgtd0YDIe7jGNXZArwrJznE2wVuw71D+zxFrZv38/++uvv8S03t7ebO/evezBgwdSLFEUqFu3rtq9bmZmJsVkx8HBQS1tly5dpBj9YlBLU1/ExccorLfqFVHBRAzKFXHHZ2Kg70NhXxlqfLEeFwLDEHBkGUbUt4IRnmLjx12w4EqalDoLWY0vsONePDJYEgKWtIYZUnF23BisDVJYVm+Xbyq2T1uFayrB4Xt9sSRU04R9hL/7dcPcO8mConXD7AM3ERoWgCOzOsFBUNGnf32AgWuCUHnkUQSc8Yefnx9Wj6oBsVo8BmHZHj8x7PDV7RheWaOyhPwWnQ5DCpMjcv9olBN+PU//GoDZxxPF6Aru3sK5CjwKRZRmsXTk7t276NSpEz7//HM4OzsjMDAQ3bp1w+jRo6UUBGEgJPHMV1StR2tr68xtocklpcgiPyzNTGtN1RrTJJulGcm29DYXrRxZr03saaaJF83O/FBPtNJkFcawA88zhLBgtqaDTGF9lfyM7VKaXhz5WfZDeYU16ON7m6XplK+mBVuSjT2SIIar5is65bld+ImVN+Zh1djkw0EsLCxMck+Y3+gyCutz4C4WL2aiIPMYWizxU5OFp7t4DB8270aWrcxYGFvfXXHOsmH+TCxVplVqzcpW8mClzY0U8aW8WeepO9m9eH5Oubc0fXx8mIWFBYuJiWG+vr7iPtzaJIoOZGnqiHDi0lZB5D6uHEkVt7r2aYsyypq6uBR9Z1yBaPB16ozWpfg5uKJ2m6qStVYHXo4q1WrqgxY9LcTNS7eCka5TvppE49ef/wE3WMO3zMacJyrm3PX7CBTCH1z5F0/F4DuY064iXF1dJVceXZdEimqFgCA8zl13Imo06gJzcas2qldRnIcCFzTo3Ei0LFOv3UewWn4JeBr4CFEp4tGQ+uIW9s38ADXf/xU3VfpAX0dERASCg4ORnJyMH3/8EZs3bxbDDx48KFqd77//PjZt2oSvv/4a06dPF+MIQh/oXTQFoZa29C+aMjMd2uaCvMnFIXfAwbaE0GxW8Cz4BiIlrUqVK5XCFCVKOeZQmaYwNVM9T13y1cLxhdh45TSWTfETGuzZCX9wBa8fi5ehwvv1UDGXVeHgUEbxMNCCianYGM/CrRoaiUEl8d4Xi7Fpr6Kp//dPHVFBqJzUs+MwcUOIUANvRrAwUalSJbi7u2PRokW4dOkSBMsTZcqUEZvuhw8fRr9+/TB//nz4+/tLexFE/qN30VRF36JZq4pbjgLwOmLiYhUWGh5h/8r9WWJ17AKua3Y9XpqLyWtvIdOgSjuHo1sVw94+3u5qx9cpX5/+GFhbaLzjHn5s1hY/i1amD0aMaq7oR5Rwr9lMkEWBKtNxIZGJDymFi8bt7Wuw6VooHs1qoZhepRPr8M13R1VmAYTj3J7TokDL6lSGu1rFeqDPqFH4uGsXCE0oDPx+MaY0VZQyOjZWbXZATtjb2+Ps2bN48OABHB0dMXHiRFy8eBHt2rXD999/L4qq0GRH48aNRUHlFidB6INiYWmmp+kwD7JkCdiKxaqHdp/aiZbgjnFD8MvuI1g3/H0MOZggCZ3Ao+X4yz9MFDuPSnUVYoWn2DukPqq2H4bxE0aga/XWCoGTtcfIHlUE0dQt3yx8MHhST7FsqampYtqyExdgTD11a6/C+0PQnSe6Nx3NGnyGxZtP49bDs1jerz5q9hqEvg1/wL/aTNScyLQeU3F7Xlt4NOiLcRMmYECTGvh0D8+oLMYMaA0rnsTEFAqjOhrXT+8TLUB//7X4udP7GHWKX4OSqFPZRacHl6mpKaKiojB79mzRf+3aNdFxUR00aJAompwVK1aI/wki3xFELN9RHdyxtLTM3L58+bKUIov8HAiS/e9AjgNB8sNjmHDjqw8WPVzDOlgrBjOynIw1mb+LLW1vLQ2QVGEzL8tfPzVHVoGN8o/Imi6kQ75qgzRJKoM/svZs5aM0rYM40UcnsWoWmvlzJ2M1ppxgLxRjTJm8biBIiGRtzDTzUTpr1nKJ6lSqrEGe7E7GKozi05NyPxCUE8ppSHyQiP8XmvFMLs9xjhNRgKGBIB0RTlzayl9Kl68OeyMZ6tcon7OVU8IZFS1kaFKnYlYaj8/gd+cAvm3vJlp4slLe6Lv8PA6N74EvNp3Eos4OMK/QAfXV5jENxJor27Bg4qfo3m0oxs3ZgCvB9/Fb5zJZZr0O+Zav1Q6VhXKJ/ZAWjfHZrC5wMLJGywXz8UlFE5Su3BAVjAX/sA6oIhXDofUcXAk4gmVfvo9Kpc0Fq1aGUt6dMXXPHVwWmuYlNaq9fPNP0NpaOMZ71bIGprLhg1kH/sWy6SPQo1s/fPX9Ehy4F4ljX9ZE1vCQF97rUSqzn1aBNcrW7StOfbq9tLOQvxvqtuHnNwZ9FCaszvB+Tk6rVq3E6UjccYuUKNoIeiVtKdCXfmRDoZ35S06W5tWrV6UUWeSHpakXMi3NoewtDaiCSaal6cN8s5mhhuPOnTvi/6dPn4pTkojCiS6Wpr29vVrarl27SjH6pVj0aeoXOQrRq+Q6IEdauvqT3pBUrVpV/M+tTN6/SRD6olg0z/VCvR74qpoFZE0aCM1pKawo4NEaQzo6wKhsU9R00WUIhyCKJga1NIsUts0xIyAJKWe+RLUipS0e6L8nGhnhv6GD1gn3BFG8IEuTIAhCB6hPkyAIQgfI0iQIgtABsjQJgiB0gCxNgiAKBZqDyIbSDxJNgiAIHaDmOUEQhA6QpUkQBKEDJJoEQRA6QM1zgiAIHTCopUkQBFHYIEuTIAhCB6hPkyAIQgfI0iQIolCgObndUJClSRBErsjIyBDXoecuJSVFCi1+GAnqne/yPX78eHHtak2CgoJQoUIFyadAW1ourunpuVktW53Tp0/jyy+/FL/uXdAv8vPnzxEfHy/5CEI/ODg44MmTJ3B1dUVsbKwYFhERIQrjm+jbty82btwo+d6OevXqiauLKuFrPfHVVrVhZ2eHuLg4yQd07doVe/bskXz6w6CiGRwcjPLly0s+BXkpmjyfcePGoXXr1gXGtC8O2NjYiGuVE/lLWloaQkNDJd/bER0djRs3bsDT0xNubm4oV66cKFz8GpYqVUpKlZ3Lly/Dz89PXF75Xa51YRRNLib5jrbF0rgTnnBSiizycmG1+fPnM+Ei0PKuBJEDfHFDLgO+vr5SSO4QhE7c79KlS1LI26HLwmolSpRQS9utWzcpRr8U6T5NQWwhk8loeVeCyAHlonQ5WXc5obT4LCyK0oJYuaNIiyZvvghPLslHEIQmtra24n/VZm9uUBoifHCouEGiSRD6JD0ce0b3xO83Jb+B4X2XvDVGopl7irRo8sGjbKKZdAITPXpgY4jkB0PC1XloVHYo/KKkIILIU9Lx9N9JaFRKBiNTV3ywrRTcSktRBsbc3FwUTl1FUzn4o+t+eUl+60dOGFQ08xutopnxEs8i0pAmDcanh+/Bl52/RfyQQWhWQH7IRNEi9eZi9Oi5E14/HcKdsKd4EbwS3ZylyAIAb6LrOt1Nmd7S0lL8rw8YTW43fPOcJVzFwp4fYWfDldjzY3PYs0RER8UjTRmf+gpRL1MEZX2Kfyc1QimZEUwc22LBhZeK+ITrWN6jPGTCeRhb18KE/WHCvmkIWtUJNuaCVSGEG5mURL1R2/FQmakm8gD4NqmNhWJzTbJ6K0zDeb59fTl6lOf5GMO61gTsD1NkIg9YimZCWcT8uTN2xbTzwvMgYhP6uE3E8SSeVRyOfFUWrjwiwR/DVCzp1Ntb8PPfl5F5mwjnHXXzFPafuwd+ugr48f9CHy9rGFu6ouP8M3ieJJS1ocpxxfNzx8/ngrCqkw3MpTKZlKyHUdsfivWovY7UkQf4omGpAdgZIQUIx361+zOUHeqHTONfaxn5pfkXkxqVgozX88jNuBeXQxkvSTtokOA/LOs4QtN592AP9ODNEH7Nv6kDa3F/J3zw53Xwq87L2qTyRxjRx0uIM4Fj2wWQfg45nGsyLm9ajMA2HVHWfzy6vz8Ui/6T6kDtuqQjfPdgePTYCEUjiCH+8UUc9t+H49efQvss4wT4D5V+Z0pn7IihmU0mhtSXQbh45Diuh2b9rjXhoqmrxWhioljcv6AImT4ptqLJkq7jr486Y3rqZOz9eyA8TYX0QevQu/I3OCqqCUPs/jGo1H8L7h6fg77LHDHtZCAuzbHFnIHLcVUQpaNTO2JiVH+s8vPDzplVseFTIa+IDMS9iIBRl9niPDa/HT+g0s5hWKDINDtMkNnkcLyI44I5H60bz4Tj1x+ictxRTO04EVH9Vwn57MTMqhvw6eS94LrC0pKQYP4B5vP8d85ClxKKrNKehSAw2Rwy4eEvD9yAWb9H4OW1R8JNmIbUVxGISVCkkwf6YfaWADwXtvmDw7dlRbSYuh6Hlg1DzZpDsF1QeBZ/DrP6TEBY72XYvXIkTBZ0w7gD9hghCEHY4+P4ztsGH8z3g/9Rf4ysFYcXEUboMlsoj1CmHT9Uws5hC3BUuBG115GiHEqYcJ3k0VuxcM99RUBGJPav24hXETGCLORcRqSHYtP/emKn1w/YsHMOGh4fgj5/JGGotjLWUWSdjbRUxXG4YA6rj95nu+J/LRzxYMWn6LnLG7O2+mGP8PsImzAAy68K9SKUNfnBVqy63gizNq/DVxbz0Wn0TkTk9Ht4moLwR8GI8VuKpVczYAuhXtvVxZhDXGmV14UL5jDU730WXf/XAmVZAq76toRXvx2IyIjF1XntUOmDP3FdEudMhN9OcqIR6oxdo/it+W3H1GaJiBAvtJDnnhGoXH0Alu7biWntK6DVLxdE4deEN7Xv3Lkj+YD584XfYevW2VynTp3ElzA4xblP06DzNCMjI6UUWeTlPM2JEycyb29vyScRv4sNMHFmtWo4i/PMLDutYoHKaZzJ59k0Lyc25nCc4Elkh8c4siq/XGHJF39jY9beYGHXDrF1Exowm2bL2L3Ew2yMY2U246K0c8p1NreOLft0Zxi7PrcOKznxMHvx9AE7v20CayBzZt+ezmGuqLhfSTZu4zY2yNmK1f7hJIsRghMPj2GOlWewrOznsjq2n7Kdz6Rtx2/ZfzyCn49lZ7Y2SCU8LZRt61+SyWRmzLLzWhaUdIZ9655VhuQrs5g3T5cRyw6PLce8Z1xgyWJMKru3tBlzGnOYRfoNYRaZx09nkf5fsxGbhYNwxDI7sm/FAij9JdnEwy/Y0wfn2TahjmTO37LTsTnVkXASKojlFq6FrNFSFqDiF8v+mjJG317IGth8xLY+FSNYyo3f2KBZZxi/etnKmAPxuwYwy45L2I7ZDZh56V7sH/5jkD9kf7a2YR8pM854yXYNtBB/C/FCvZiVGMr8+UUSSAtZzTry6/Ikh3PdfEz4D2bi8TU7xvfJiGdXZtVRnJt47TqyJTtmswbmpVmvfwIZ3zv96UbWyyHrvHgZYVqLLbih8GcRz3YNsGSd+cXX8Kfe/5O1LdOfbXmiKE/Gq4NspHMztuye6FWjc+fOrFatWpKPsZiYGObu7i7eH0pnY2PDtm7dKqVgLCgoSAw/duyYFPJ26DJPU7CI1dJ2795ditEvRdrS5E9QrX016ZEIsv8K50IOY/jVcRi/JVgRbl4bnT+xw6Y95xGffA1H95iiV9OaMPcZhV/72eDApC4YsOA6vNrVhFNGvGAhVEJ5R2kOqFkFeFRNQ3RcKjwr10T0/HYoVdYLjXovwEWTuqj02j6saPj26401EanIsLaBjRCSES9YP5XKIyt7D1RNi0acYESwdN4JkBNpCN81CcP3d8aKxX0VQRb10OMzG8zp0QqfTZiASQt3I4yHJ1/AnrWhuPVdQ1iIzTsZqnx5Gq+u3MbpgCuw6tEcdcTjG8Op81z8+ZE792RH5onKNaMxv10plPVqhN4LLsKkbiU451hHksmriokjSjxcjB0XY3D8z7l41rgByly4i/Acy/gQjx9cxc0mHVFXqltZzVFYPaWJWH+6kHRgND6cchGp6ZawshbKKpQ7NsYClVykjI0sUL5qJbx4lQQzt6qoISsDaXojTErXRgv3o7j6IKdzTYGpmSU6TB+FVnwfI2tUbfY+HK4FIpKnSzqA0R9OwcXUdFhaWYPvnXT5XxzyUZ5XMm5cOAXYd0XjmtyfG9IRcnQzjkSux0flzcT7zNiuA/6IuI3bIbzvRh0+V1O1ec79gkCKA0Qc/n///v3o3bu36Oco53VaWVmJ/4sTRVo0hScmrK2tJZ+EaXlU8y6F0XMnoVG51vh2xUe4MGos1oqdjuao3fkT2G3agxPnDmLLyw/QsrYJkh6ex+VINww5kIKkoN9QZtY4rH9UC61anMbGY4q+u/Tww9h5xAtt6yiExaLNElwOE5qJoXew/sPz+G7tZTFcO0aw6/43bl74CSZTB+Dns/Ewr9UKLU5vxDGxXEJT6/BOHPFqizruGYgJOItH73nDTbGzOi8Wof8n+9F5xUzUjlXOazFHg8nHcHxWfUQd2wv/Uw8U/ZkZycJDxQGj/YRyhoXiwYV/xWberkXd4WVqJmhHsnDLKmBJSTn0qymxQJsll4V8whB6Zz0+PP8d1t56fR2p4fApJn3BMG9ib3y3qQ3mzugDUZdyLGMXeAhlNIlNhHJaNpMnITnnp0nOmFbHt8cCsLXTPgwesQHBMi80bCvDpl3HxeYsSwjAga1P0b2JlyK9KhnRiOBPIPMczrVhC9RqUgLPX8RJDzo5Qm6cRVrvFqgh+k1R/dtjCNjaCfsGj8AG/vxOkyPxcThihB1Y3H/YvEoITIsR6kHcIRcwodken/UbDLmBk7z57r8TI+tnH7jhIql871yJj4+PKJT8uw38f7NmzaQYBbzri2NsXKTHkrVSpEWT92dm+1CHkQmyXhASLKhOM7DiowsY2n0aTgl3iHndTzC28u/434BliB3YC+/ZpOLmuk/RuO1orPDfh4O7DuGarALKlHbHx7/Mg9n0unD19IJn7aG4NXIphgjWgImTG5yvncbJq1dx9fJJnLycCg9XB+mYGhiZCpaIA4ZP+ATePmOwapYV5g+bjbP2H+OXeWaYXtcVnl6eqD30FkYuHQTno9+j4/DDaNW7iXbRZHLYDd2IJR+om7ZGFuXQfPiv2HflPm7vmay4YS3r4/3uCVi77ADiSgnHqeqCF7s3IMLGHVXa9oH7X2Pw9Qp/7N0wA109nDHKL1rMKzsmcHJzxrXTJ3FVOOfLJ0/icqoHXF9TR9mxQoNPxqLmyWN4PGA4OilnMuRYRlfY+HRH7wdTMX7mNvjvWY6RtRzRaLGOEyAF4bVtPRFDWlVDz7mr8MGFURi7NhyNJ6xBr0PdUKFcZXhVagFfj1/xbcfSwuUyhdmL3zBzyRU8l8fj4c7V+Me0N1rUzulcLdFq0nLUXtwbPSbPw5wxndB+ThksHNNSsIiFvGxbY+KQVqjWcy5WfXABo8auRbhPZ/QM+gEdm3fD+zU6YalJc7znuAa+G++94cGlxBSeTTuj3Mk/sO2eDE6uXqhocx1bTqejlD1D6qtniIpPEwc6o2MSMy1NzXuFCyX/qI6mYHLkcrn4XzkgVKyQmun5Sk59mi9evJBSZJGXfZo//vgjc3Nzk3wS8kdsZcfy7Idzkl8gI/Ee+6dPRdZ9A38XPp093diLmZlk9U9lxF9jy3tXYlYwYhYu77NpR0LFvicxLuUliwwLY+HP4jLD0p/+w7rxxz1P71SZdZ52hIXKU9nthe+xZtk6lZLZhbm92awzYk+ccKwrbG5DZzZkL+/3y2ApLyNZWFg4exbHc89giYH/sX3ngqX+PYF4PzbUdQzj3bDyRytZp4pj2L9if1sGe7lrIHMespep9yAq0nUs/wPjVZAWfoh9XdtK6rsyZqXazGfnxb63RHZ/+xesthWYkYUL6zD/vNjXKpJ6my1srNrHJtTZP90UeRhZMKfKnd9YR6qk3l7IGtdawG5kxLNrG33Z3kA5S748k9XhfcdCfI5lZGns6ekFrLubGYOxA6s7cltW/7RmGVXqSRV50FY2csRmpugVTGNhuwaxcrws3JuRwJ4L5Q57GqNS37vYACMZk5nxsgjOOKsvkpPTuWbEBbML//ox/2PXWLgyM3kQ2zpyBFN2FaeF7WKDyvEyp7HwQ9+whiXNmUPd/7FNd5NY/JW5rKF0zbJIZMcnKH+3AulRbGtfV0WfPK/LZd2Zm1ROI6vqbNg2Xs4Etn+4HaslVEzC/uGsWZ+1bPXq1WIa3k+ZWy5evCjuw99BfxcKY5+mQUUzOjpaSpFFXormrFmzmJOTk+TLJVJHvbl0w74VGSns5TOVG00kjYWs7sgc3zQyYRAyWMLzMPY0Rr3EusDF4tk77P9m3rGMiSfZ1x6KAbN3Qhp4+/vOc+Fh9m51pg9EEQ9/xsRnbg7MnDlTFMD4+Hgp5M2cOXNG3OfmzZtSyNvxLqLZo0cPKUa/FOnmOX89TKfvaKY/wd/dHODj64mVa4agshSsM0Yy2JW2h7nkFZE/xK7VIRjVtZYUUJAwglUpFzjbq5VYJ4xkdij9Dvu/mXcrY+KJ9djg3R/NcxjL0hUji1JwcXm3OtMH/Lo4lS0Nm8wuqezw/kw+oJOt//81KJvn+uzTFPRK2jIsxa9P83WYuKHfhki8Ct+G/nziZl5iVhlfnriFH5voOrZL5AVWHf9E6O5P8M6aaWwPJ2dTmBahrjzen6mLYHIMIZoFhSJ9xkrRzP1nr4wgK+Hw2qcyUcyxbIn5j3ajn9ZRuMKJ0tLUheI8EFTkLU1u0utkbRJEMYMsTd0w6HIXr169yvyen5K8XO5i7dq1mDZtGqZPny5+zr+4UKJECdERxJvgBsXkyZPFdYFyWu/n9u3bmZPf+X3Il7g4f/48Dh48iCNHjqBu3bpi3Nugy3IXXCsSErJejOjevTt27dol+fQIF838JqfRc+FCSCmyyMvRc77cBT9FPiLH/5MjRy5v3YYNG6S77e3QZfScv8qpmtZQo+cGtTS1NQvy0tLkr1AeP35cXFmPj6TnBn4cZXOeVw017YmiDL83VJes4Pca/8amNvhn4Hg87//kr1bye4pbmTzsbSmMlqZBRZOLmmYHdF6KJkEQBZvCKJpFeiCIIIiig6Z9Zyj9INEkCILQARJNgiAIHSDRJAiC0AESTYIgCB0g0SQIgtABg4omQRBEYYMsTYIgCB0g0SQIgtABEk2CIAoFxX5yOz9hEk2CIAobBhVNgiCIwgaJJkEQhA6QaBIEQegAiSZBEIQOkGgSBEHoAIkmQRCEDhhMNAmCIAojZGkSBFEooMntJJoEQRRCSDQJgiB0gESTIAhCB0g0CYIgdIBEkyAIQgdINAmCIHSgeIkmS0F04FlsX/QdJkyYgCm/bsbJW5FIlaIJgiDeRLERTXnocczp4gFnr/fQe9xMLFy4EHO+6ouWNV1Quu5o7HxI0kkQxJspFqIpD96CgfVaY8r+cMiNrVCh3WCMHz8Wn71fBfZmGYi9thS93xuErY/TpD0IgihoFPvJ7Xoj8RLmffApNkUBJuUGYNP9GAT/uwoLFizCmkN3EBawHn1LAxnPNuPLb/cgVNpNCUt5jltnLiFUb4aoIOJBF3H+bjRIwgmi4FHELc00PNkyDdOvyQGLJvDdvwofe8qkOI4RrCr1w597f0IdMyA5/AXixXCG+DubMKK+A8wtSqNm0wZwL98OU7ZeR7SmkrFEBB/5BT09rMRzMrF2R7c5xxQiy17hwpxGsBLCeVx2Zwq3wbsVQi0PxfFfesLDygR2Hg3RuEZF1O3ni2PZ1Foo2739mPdZE5SxkvIxsUZZz1roNOR7rLsaq0iWFoqdQ1xh6TYYu1WfBOwF9n/pCnO7lvj9lnQyOaRNvvM3eruaw67pfFxKkAJFMvDy5iZMfN9DcW6mDqj8wRwtZdUkEZfnNYKNXVPMV8mQxZzAd95WMNUsqwZpoTsxRChPmf47NB5uibg0q65wTir5Ks/TujRKKetJcCbWZVFDW1n5dTy2BAOFay4T05VDszHrcV264OzVBcxppLjGWp2pGwa/rvA6sGLFCtSsWRObNm2SQogChWDy5jvjxo1jwg9LzTk6Okqx6mhLa2xsLMXqiDyYrWgnqAyMmfuUUyxeCtZGRmoqk0vbqUGbmWB98raAhjNh5QZuY8HKhCyVBW3uywRDVSOdMXPqt4UFJz9mqzubacSpO+Mqc9jVjJfs3E91mKDb2eNLNGGzz72SjpfBXp77iQkCny2d0on58aQJF9mPNXiYPeuzNUTcW0RbeMw+NsyOh7mwiSekWkp9yFa0V5a9IptxWREsnvOWgcxFWxks6rMZmWXVQvIdtug9ntaKtV35QBGWEc2OjXeX8tAoqwYJF39kNXg6+z5MPdlztrmXogwVlQVNvMJm1lKEaXPGLiPYvmeKpEyo//OzGzJLbemc+rEtwgWXP17NOr+m3vk1rzJHrPl3wtfXNzPPvn37SqFFl7p166rd62ZmZlJMdiwsLNTS9urVS4rRL0Xb0owPwLmLfMMZvTvWhbUYqB0jMzOYilvxOP/HJLE5b1H/J5x+IQdLj8GNfwahklk6QtcOwsiNQWLKtCfr8cWnmxAFE5TrtwIXHt7D6b/6w12wxJ5t/hLf+htj4MZ7OHfID35+m/F1Q3E3OPZbLPh52AGcPzwO3iE78dPP1yA3dsLHGwKRwjKQEHQYs9qVRkbsWUztOwenuQGVfBsrRv8A0XCu3Btz1vM8BLf7H8z5wF3MOyM1TTi6jqTHIeYV3zCHvQ2vJcFym9cLIw8JB9Ig8dI8fNB/LcLlFqgxZBlO3gvD4ys7ML6hIDnJl/HDh99gv1B3WkmPxyvxODKULGEh/E9D6M6x+GhhMA/MWyzLo5KXYpPX94Hz9xAW9hjXD85EJzuhnsK34J/TT4VYXobR6DrlApKMHdD6x724HhSCeycXo7fwZMh4thED+/2Buy4DsfHeORzi9b35aygupSP6LZauwYHzODyujhj6tixatAiC0SBuOzs7Y9q0aeI2UcCQxDNf0WY9Ojk5SbHq5Kml+Xwz6yU+tVUtpTcQe4yNK8f3cWSD9ypNEU4Cu/hjDdECcPhkBwtnyezOovdEv5n3NPZfpjGotJw0LQ8t1pCInAWvaKfIp95Cdj3TihWyitzMenPrxrgKE7PKPJ8KbNp5lYQqZbFqu5KJNlymRWnFGn+zjgk3tsLtWMQ+Es9PxapTqydt1qyy/mLYvmF2YpjN+0vYhZAwFhamcKEBq9kH1jytZtlU0LBys1v0eWhpqoRV+O44iwi5x875/8EmtKuosCiN3dmUU4JVnWn9mjLP0XvYfel8uAs6NpV587QlPmAbH0vZct7md/UGBIEUy8pdmzZt2IkTJ6SYog1ZmjognLS0lY8YmUImtHmBFLyMV+uUU0MeegJ/fvcN5h98jLTUZ3gidk3ZwtNFaHhnYoWKVauKWzFnA/BUsEhvnDoj+MxQe/hHeK+EGCUc0wEtfz6JS8dya3mkIiqMWzyAtacbSirMXREjGw/UrCxsZETicqBQKBNbOAhWEhCKP3+YiQ3+/vAX3T4cPPOER0BWsgS4DZdFIs7NHYCuXbsq3IdfYYt4fi9x6d4zMYUq8rCdGN1NsmbLlYNqDSDhLs6eEk1FxP87Gg3dXOHqqnDlqg/GTrGKXyHgSYSY5rUkXM0coDO2KQcX8bzyEhmcypcTtx7PaAVntypo3GUkFhwOQpIQZtP+BwxuLKj8y8s4xi+jYHE+XNIdlaXz4a5i65m4xaNir+Hhc76RP0yfPh0//vijuN2uXTvR36JFC9FPFDyKtmhaV0ejBnwjAtsOXIV22RSa40uEJvfMefj+5/0IlEL5YIc8TXXUhyFNrm082xoVyyoVU4GRlRvqt/JBOdUxp1yQIRxPrWnN0qBWBPuWGPFNHUGm0xF5cDr6K4Ww64f4SqGEb0Vi0F3cFbeeYuWo/2Edb15bNMHc9b9A7dZNfoKAe9J2DhiXqIVWVZ0lnwZJj3DjNt9IwInvhikG6Ixd8PmaFRih0Le3Q6gnxaUxhsxU+ZM2gY19zkocf2gypu18jLiQhyrXXDsm7l3RwE3y5DG8Sa4UTN4kX7JkCZo3by76iYJJ0RZN80r44PPOgshkINj3S/x8JEKwJ9SRP9qMn315n5o9un3VFVUtPVBLaAMCIViz9T9IY9FCwiD4rd0nbtr7VIETjGAqmrEvcerU/ax0LB739v+Ov/Y9yAp7LZYoX7WaUEbBoPl3DQ4/UJaQIebiVqzjImVcGrUrciGyQtUW7eEqxmtHVtJWSKWKPYQmrzjHTeGeQ2i2qmFVsSoUNnQyQkO56eeEfms3YmQNFbOXY+WFerX4hg06rLwPoRGemW9q+HlsWOuPuyEnMMpbYz8lmXUrx7PQZ8JfC9T/aQfmdiolRr8JWWlXlOUbLy9BzUhOCsFDUflKoJanoxgkiqadQjQtmizEOcGaf5mSjvinF7CshzjHDNvm7kGohzdq8co3roCJx1+p1FMG4u4ewOpN5xD6YDHaq5nc70ZoaCi+//57TJkyRRRKU1NT8f+xY8dQVWrNEAWXoi2aMEX5vnMxr6lwVyRfxy/tq6Buv/nwuxGM8PBwPLm8HsM7jAQf77BoMBnfdBLMHStvfDiYm6cZeLywO5r2+wUb9qzD9B7NpYERe7z/UWOUE25Qn/bvi2IXsbQ3ev7khxuP7uLA921Rt/MXGN5/Kg7lyvgzQuk2A9Gf39/xBzG8eUd8s2I7dv0+As07LwSXczPvz/B+VUGIBME7tnKZGGZReyz+uRCEeLm6EFq7lUZJvmFiA4VmxOKGTm1LLmR78GefCtLAmAqW1dBjSFPhnONx8PNGaDN+BfZcEKzUQ7PRuXYjfDKwG7r9cU1K/CaM4dRvLbZPaiTUZO4wLemJmqJFGgm/zf9IXROC89uBf+/z8JfYOqArphznprI5SpcVJRbJoZGIE65nwvNwhAU9xK3HL8VwMztryBxaYsBgLqKPMb9jA/T5ZTNO3gjE5fVDULdmRwzu2wkT9iq6T/KCly9fokGDBpgxYwbmzJmD7du3Y+PGjSSYuYA/zFTRj4ZoQShIvqNtcMfV1VWKVSdPB4IkMuJusVW9XbRO6eHO2OF99uuVrKkyGS/PsZ/qaJsqJE0lUo5zpAaxzX1La0lnwWp8sUdlahInp4EgTk5TlwSnMo0ncyDE2IWNyJwvw3n9QIj68bSEZw5sgFk0mMMuKudmaRvwEM55y0DtdWns0J79dv01E7syB4L4VJ5P2HblYE5O06M0yYhkm3u/fgoXd8rzyqwvbU6lXjNenmezG1pqTWdRYzTbp1mkdxgI2rlzZ7ZjzJs3T4otfugyEGRubq6Wtnfv3lKMfjGYaJYrV06KVSc/RFMkI4E9ObuaTWhfi5W3V9x4xlaurGH/hexoSIqUKIv0mBts44R2rKKl9OM2cWSNvtrBAjWTpoaw44sHssZOipvOxN6L9Zxzkj3NNoAsCaNJOTZolxZhEMoXdHQxG1DPXhIkY2ZVoSdbcuFF5vzRpNu/sdaWxqxktzXsvlr+Sez2b62ZpVre0nxKC83jJbGA1d3Vy5Fwic0VREM5JzETKdzEfTQ7qKrR6THs1p65bOB75Zm9mbIefdnJ7CetjjyE7RgsCK7mfE4pXFaiBfvt5uvyyGAvz89mDZXXhDtjK+bs4cW8vDyYkxSuFM3M2QfKtNyZ2LOK7/VnviefZtYrJyPhCTu7egJrX9NJHF3n17Hr5K3slkoxM5EeliblBjFtlzInoqKi2KBBg9TLIzjB0pRSFD9INHNAmxC6ublJserkm2i+Neks/sVLll1W84+M5FcsRmh3E7rwgm3vxx+GZsxn8W0pLJ3FBBxnB6+oC6ShaNdOMbVM1fEJ7HJ58b3WhVE0DdanWXgwhnVJO+g4EP5OGJmXgL11DoMpRA6URM/fr+P4gTPYOaK6FGYM+2ot0b6uc/b+WQOwevVqse9S6W7evCn2Z/KBIKLwUMQHgojihLF9NbTsoPtUL31Rrlw5tGrVKtN5e3tLMURhgkSTIAhCB0g0CYIgdIBEkyAIQgdINAmCKBQwjcnthoJEkyAIQgdINAmCIHSARJMgCEIHSDQJgiB0gESTIAhCBwwmmgRBEIURsjQJgiB0gESTIAhCB0g0CYIoFGhObjeUhpBoEgRB6ACJJkEQhA6QaBIEQeiAEf98u7Sdb4wfP15c31mVmjVr4vr165IvC21pucCmp6dLvtzDV/7jX8aOi4uDTFZAv0xLEAYkNjYWUVFR4geSzc3NERYWlhnOXU6YmJhgyJAhaNOmjRTydtSrVw/XrmWtYMq/Yp+amir51OH3cFpa1iLcvXv3xpYtWySfHuGimd9oW/endu3aUqw6eblG0KxZs8R1WDw8PMT/5MiRe7NzdHRk7u7ur3X29vZMEDiWlJQk3W1vhy5rBPE41bR9+vSRYvSLwSxNQTRx9epVyZdFXlqa69atE9eW/vvvvyH8EKTQoge3EmidmeIHt7pCQ3O1uH6OBAYGYsyYMejVqxd+/vlnKfTNHDlyBBMnTsT69etRvbpyTSbdIUszB7RZj/wJo428tDR9fX2ZhYWF5CMIQpP79++L1uXChQulkNxx8uRJcb/bt5Urf74dhdHSNNhAkD7g1qlQ0ZKPIAhNbG1txf+8318XlC2bjIwM8X9xokiPnnNTnkSTIHLGxsZGvBcLg2gKRp60pUAfGqKN4imaLAkPdoxG87LWQjlMULLeCKy5/lKKJIjiAxdNbm3qKpqlS5cW/ycnJ4v/ixPFTzRZAq7ObwnvQRdRe/rf8PPbhaUfhmJKy8+w9mFWJzNBFBfeRjSV05GK4wBkkRZNbX2aGZF7MfMnGRaeO42lI3qjS5du+GTqFuz7kWHf2ceiqF5f3gPlZUYwMrZGrQn7ESZqKUPC9b/Qx8saxpau6Dj/DJ7H+mMoTyeci9IZO3yELSHpePrvN6hjzcNM4PTBn1AYsgyxl/8Q8xDTWpZBlR6LcTkeSPAfhrJD/RDFkyEJJyZ6oMfGEGE7BReme6PdqodijPzBMrS17wExSoQhMeomTu0/h3svU6QwbaQhaFUnVJh2XvKrHlMRZ2MuU5yHSUnUG7UdWc+Q7MdI8B8Kmcp5GxkZw+GjLcgsFlFo4NYm9WnmnmImmhl4dmQDDvWciI+qqzwhjaxRd+webPrUA3FHp6LjxCj0X+UHv50zUXXDp5i8NwIs/hxm9ZmAsN7LsHvlSJgs6IZxR2piYWgYwh7+jV6yOhi7xg/+B+ahc/IKfNpzF7xnbYXfnr8xMGwCBiy/irSkk/ip6yQhj+U4+t8pHFr/Ocr8exABz4UypKXiVUQMEsQCGaNEKWucucUlKA1PHz2CuZmJoF1xOPnbdByNvYS74UIUt5p9W6Jii6lYf2gZhtWsiSHbHwp7aCMDcS8ikJimMnUr85iKOKMuswXLWzjvHT+g0s5hWHBUUPMcjiF7fyFCw8Lw8O9ekNUZizV+/jgwrwfcpKyJwkPZsmURFBQk+YA1a9Zg+vTpouNT9rhf6Z4/5z9WxeR2jmY/Y3GgmDXP0/AsPATm5Z2g6JHRJBkX9qxHiUmL8fOnXdClxyh8N748du84h5ATK7DQaBIW//wpun3yLVavHApreQbsnFzgUsYOViYuqN+yCzo1csWzo5txoesszB8rWLLd+uP7qb3xYNW/uPLgAo6kDMXM6f3R+r1maNehAdylI6tjBBMtzZ6Ea0sxcXE0ZKapSEtnosB3X9UBftf24E/f1Th6ZCwejFqME4LWvQ0yzzpoUr8KSqeFIjjaAg7W5jke42SqHZxcXFDGzgomLvXRsksnNKpgLuVEFCb4PcLfBlLi7e2NmTNn4scff8SUKVMwePBg0R08eDBzvjNZmgZAH6JZsmRJJCQobDcFRsLFNkOGPE3DGpPjod98/H05FvExCahU3hGKn4QZKnhURVr0c9wKuAKrHs1RR4wwhlPnufjzI22Sl4H42BhYVHKBs+g3gkX5qqj04hXSqnbEwEq/o3N5T9ToMABDek/EdjGNgqR9A1FRbOqao/Y3WRN+OSzhOhYP+QHp05djeg0ewgV+LUJvfYeGFoomsqzKlzj96goecitUJ2TwrFwT0fPboVRZLzTqvQAXTeqiknNeHoMoqNjb26s1z318fDB79mzJp+Crr74SXxZRorQ0k5KSxP/FiSItmrwpoZyHpsAMnk07o9TyBdigMujD4i9h1fh5uPLSHLVatcDpjccU/Xnp4Ti88wi82taFOxfb+GRBqhQw4ceivQdRBq+GbSHbtAvHeT+m0LwNOLAVT7s3gZeZO2q9VxKp6WXh4+2EEo6lhCd8BZSRXlayaLMEl4Umb1jYYxz/zlsRKJKMI2P74If0mfh7rD3uiHqageT4eDiM9hPfFw4VrNh/edN61yJ08RB30sAYNiUckHjrsdTvmIbIiFAYCRaD4uevcvzQO1j/4Xl8t/aijscgCiN2dnbZ3jPnb/twoeTw/76+vmqDPkqxtLa2Fv8XJ4q0aPLXrlJS1KXNvMHX2Dz1KYY3aoOvlm2D/57lGN3sffxWbR7GtLSH+8e/YJ7ZdNR19YSXZ20MvTUSS4fUR6W2feD+1xh8vcIfezfMQFcPZ4zyi5ZyVcey2QSs6XUI3SqUQ2WvSmjh64Ffv+2IUpH++GNlJfxx5jT+XrAAc7/uhQqmDrCxES6EjQPsEoxgKTR5XVyc4VBCtXnOkGrUEIs2jUfdzGBL1H+/OxLWLsOBuFJw9awKlxe7sSHCBq6qu2ZiirKVasLqzl0Eht7EKX9/HDgdBGOzBCQI4m7i5Abna6dx8upVXL18Eicvp8LD1UXHYxCFEaWlqfmqMhfKnTt3iv81Ub7OqLQ4ixNFWjR5X42maIqDPhNPInDnAFgdXYIJsw6hxOhDuL19IDwFITCyro3hux4g5OYpnDh7B6GXfkRze0GAa36JLZvb4ezYrugx9A+kT/wXC7qWlDI1hcxOEDrlQ9ekLN6fexWRjy7g+MmrCAnZhv5C5mlRL5A+8Bt0r6xIZmxbCs5WCkvPzKM+2tkYSd0GxrAt5QwrUx5jDHunSmjz63KM4INXZhVR08cFpWyN4dxnCfyGP8HoqhYwMi6BmuMfol71MnxoG8PKjcURjb5Ni4bd0T/uJ7Rxq4UWXXvii3+CEb99DCbsDYasYnXUjN6McV27offnCxDy8W5sGlI152MoMZXBztkBxc/eKDpw0eTdWNpG0Hv27CltqSOXy8X/xsb6k5CCMrndYO+eN2vWTIpVJy/fPZ8xYwZzdnaWfEWXjITnLOxpDEuW/CzxJPvaozNbGyT5cySe7RpgyTrzhBkp7OUzlTw0yHYMosiwevVq8T3yoKA3/mAyOXfunLjPjRs3pJC3Q5d3zwWrVi3txx9/LMXoF4NZmvpAq6VZBDGyKgUXZ3soxz8TT6zHBu/+aK59aF4FCzSeeBQLugkJjQSLsXRWHppoHoMoOjx8+FDsyuJfy8othrA0CwrFrk+zOGDV8U+E7v4kh+lMqpigTK3GqGoveYliCW+W8wEdXd7uIdE0APoQTW5p8m/zKTutCYLIDh8513UUXCmaNBCkR/Qlmlwwi6O1SRC55V1EkyxNPaIP0eS4u7tnrntCEER2+L1oZWUl+XIH34ffW/Hxb/n6WSHGYMtdtGrVCkePHpV8WeTlchdLlizB2LFjxTeD3mZ/4vVYWFhIW0RhhX/ajUsAfx2SW5t8W7Nlxru4eDy/h3i8anfX9u3b8eGHH0o+3dFluQsep/ra5kcffYRNmzZJPv1hMNFs3bq1uM6IJnkpmmfPnsWoUaN02p9fFGXTg0P9oURRht/+/P5Qwrdz6qfkA6s8nr+nzi1TLmJr166Fi4uLlEJ3CqNoGmyeZtu2baVYdfJyniZBEAUbXeZpch1QTdu3b18pRr8U+T5NgiCIvIREkyAIQgdINAmCIHSg+E2yIgiCeAfI0iQIgtABEk2CIAgdINEkCILQARJNgiAIHSDRJAiiUMA0Xl40lIaQaBIEQegAiSZBEIUSQ33ykUSTIIhCCf9wiCEg0SQIolCgyxpG+QmJJkEQhYLQ0FBpS4GhNIREkyAIQgcMJpoEQRC5RXO6kSEhS5MgiEIJNc8JgiAKASSaBEEUeKh5LkCiSRBEYYREkyAIQgdINAmCKJQYSkNINAmCKPBQn6aAwUUzOQjnzjxAQsG5FgRBFAKKrWie/rE+3mvqja/2J0ohRDbiTmGKlwlsWi3DnXQpjCAKCNQ8z3eSEbR/Jj5s6IYSxkZoPicGDKlYO6onho3/BatP3cUruZSUUBB1HxceZyDhxEUEkWgSBoSa5/omLQR7/1cDlTp/h50XQxGnUv+pj//FSt/JGNKiGpy8emH1rWQpRoO0ODw4ewYP8qA9nxb3AGfzomtAKFNUUAACHkYi9o2CnwY5PRSIIgRZmvlGGm4u/hAfLnuEDFkFfPjrcVz6zx+rR9WAiRBb8r2BGPdpC5QxNxIEdAeG1O+BVSpmVVrIIUxt4wwLWQlUfq8pKpfxwecr/kN4qiI+5thkVLc0Fs9HmzN3H4uDL7g6piHk0FS0cbaArERlvNe0Msr4fI4V/4UL9m4Wcae+05KfDbqtC0I64nDqu+qwtG2FcdMGoZajHZw8aqBGJWfYOdTH1GPPkCHloyTt2UX8NaQW7I3NIJMJedm4oNXwFTj3TDOlYIvf2Y6xrYRzFSxxc8ea6PfrMUSIyU5jXq+6KGPBy2UOx5r9sPic6rGyyrVMtR0fvg9fVLVUqQMBocn/XXVL2Go0+cP3fYGqluZwH3sQyqQEUSARzN58Z9y4cUy4+dXcgAEDpFh1tKU1NjaWYt+CsM2st62RcBuWZZ/7R7B0KfjhijbMTDh92f8OsBTBL488yX5sYMUEKWeyYf4sgSeKPsomeBrzWzibs265hN1IYixgsQ8z1RKf5ZqwJffShKwmME9jbfHWrOWSG0zISkRZLs10ZSf/x1LZQ7aijVm2uEwna8J8eaGUvKb8KNuPbQ5MlhIK539vBWtvzetJS1qtriwbdeA5yxD3vsB+Kq84zoeboqSwaOY3pIRYnzx8qD+vZYELP7HyYj18yDZFKVKyaD82pITy2EOZMilR9Klbt67avW5mZibFqCOXy9XScTdw4EApVr8UeUvz2X9bsZe3x1tNx5QOZbKZ1qlyhblj6tQc3y6eCDchQeqOY7gkNGXv/PMNfn0o2FNlP8eu0BThAZOER/u+gY+VERJOjEafhVfgNfIoAs74w8/PL9N6hccgLNvjJ4Ydvrodwyvfxz/f/ApFVrsQmsLAkh5h3zc+sDJKwInRfbDwSppYjkxU8vA7dQd3fnoPgpiqIEONL3bgXnyGkFcAlrQWYlPPYtyYtVL/YxyOzxwIX35QWQ18sf4CAsMCcGTZCNQXyo+nG/FxlwVQHPYR/h45Eod4f0HZfvjr5H/YOrkp7FUvUdlumH3gJgKvbMPXPlYwwlP8PnYZror7J+LVC4Xd6WBbQogTcvy7Hz5eHSsqphqJr6BI6gDbEmJK/N3vY6yOzZaSIDIRtEraykJfGpINhXbmL9qsx88++0yKVSevLU2lJegx7QKTS2EcpUVXe96NrPCHK1gbM6W1c4MtqG3CrxRrtewRS5OScDKtwSZLmGBEZpIZ7uPLbqvucGMBq23C823Flj1SyynTcmyy5J54jBzz4ASvYR1kPB+wkp/tYhFKs1lAfvYHyYLzYb58x8gtrLc598tYr01PMy1sFn2G/VDPVAyvMOYAe86NvUzrryybeCJRkU6olXt/tpas3pJsmL/SqhTIPB+FFc3YcTbBmvsVFqU2qzXT0jw+gVmLYbyOhWOsaM+sjbLSkaVZvMitpZmamqqWjrucNCS/KfKWplWJUqJ1+ejKPTxXGEMi4YFXwY0kM1MT0TLixNw4jjN8sKRJHVQyiRbSKKxQz3KuCgtSwqNSXcHOEzh7DVKS1xMdLqXzRDlXtZxQqa6Yk5BVIN6YlWtttKmq2N+jjhccVa6eqU8L9LTgW5dwK1jI6f4VHBE7S7uiT9ssC/vi0r6YIVm1nTq3Rinh5B9c+RdPed14DMdH71mKcUKOqPx+fzQXVJOXs4a7fWY9oVpttBSXZ5EjTcNARvwpfN9luGS1lkO51/zC4k99jy7DD4kDYmXLlSsmo5JEYUevv1NBpKUt/YlmheZ90Izf+HuHot2YnQiQ5hWly1NF00ZJ8p1/8MX4DeBj560GdYGnirbJNYad09LkavvmHrnGCHYa0uQ65GRaAqVUlVIVU1OYqVZpuhypYtbKZjDnGYJvREoDOKmQeiYQ/uCKUDKB1g1RWzDL30hQIK6KO5jxwwpPJMEvjWbtmzAIcwP5Ecpi4qa/8JFSgyUeCQ8rRdJ9mDBoLhRJJ2LTXx9BIylBZKKqHUr0pSGa6FU0VU9Sbyfs8Rn+WPcJKhqn4vZvH6KGvQ0cK7bCNwcUy38+2voLRvasCecaA7AxKAOyJr5YPLCiYFm6oVoj0czCpnV+0igyJwYHN6xBEt/08Ya7quGYE27VoMhqE9b5RWSNOsccxIY1Yk5CVu5q1uybuDR3MtaqTI9KO3cUWxWFgrdaoWIQp+wvfLQfK/dnjdUfu3BdtLbdazZTWM7X76tYzjE49vtsHBfF8RLWH7qXaQmHX9yH8zzc5yO04U8Xj0qQDGY8DQ0Vzk+GJr4H8XMLyyzrVCLTSsdThIYKNSFrAt+DP6OFpWFuAILQGbGRns9o66ccOnSoFKtOno+eS0Tf3s4mty7DzNX6z1SdjFX48Fd2NjKrozBsfXcm3OCKuPenspV7trCF/SszCykPH9/b2vs6s/VHhrH13WWK48gqsPenrmR7tixk/StbSKPLUj+kwGv7NAWOT7BW5KPMa+g4Nn54F+ZloehDlLVfycRu09j9bISdIqxst9ls1+G17HMPjZH0sp+zXaEpvOOX+ZjysLLs8x3BLCE1kl2Y3069r1HWhP14Koy9uv2n1F+p2lea1afJXdnP/aX+VvW+TpHMPk3uVGY0qPV1iimJYkBu+zRTUlLU0nE3ePBgKVa/GEw0hw0bJsWqk1+iqUQe+4wFnPFnc7qaizduyfe+YIs3/csuPknIGuhQIr/HVrS3zpw2o+oEi1SccqTK6wQv5yk9MtbEN2vKUazfECY0UxlKTmQnUqVAFdREU8PJKoxi/iqjQw/XdNAYZBGcIH7zdy3NKkuVmeyyXM4uzKqR+TDIjbNu+ScLyDxHFdEsO4odEEeX1MO1iWbZUdJAlFo4iWZxgkQzB7QJ4eeffy7FqpPfoqnk4T/dmIN5BTYmc65hDiQ9YvtmfMC8JauNz6us3Hc5uxqXfS+FMKqMSmuQ9Ggfm/GBN7NTipN1ZdZ3+VWmltXDf1g3ByNm3XWtwmLUIFM0B65hV7YtYBM/7c66CdbmnA1XWHg2sZGzJwe/Ze3dbAXhl7FS3n3Z8qtx4vlGX/6VdXYwVylrNLu8bjR7v1JpZi4rxdxbfs7++mc6e0+cTeDB+kweyd4X8jEv5c36/nqahakd6yH7p5sDM9KcJ6oMt+7K1ipPRjq/bA+dN5w3UTTJrWgmJyerpeOORFNCX6L5NiRFv2CJWsRQd5JY9IvE14t1DmSK5lB/cVJ+vpI5BSur+4Ag8pJ3Ec0hQ4ZIsfrFYLM8hJOWtgoPFg4lkTfjFRZwKJl9kEQn5HLFiDdBEHqFRLOQUa/HV6hmIUOTBpUF6c1nSldGk0oWkFV4H/Uq6jK2TxB5i2DgSVuGh0SzkGHbfAYCklJw5stqOk1Reitsm2NGQBJSgmehBU2iJAgREk2CIAgdINEkCKJQYigNIdEkCKLAQ32aAiSaBEEURkg0CYIolFDznCAIIgeoeS5AokkQxLtAliZBEEQhwGCiSRAEURghS5MgiAKPtj5Nap4TBEEUAkg0CYIgdIBEkyCIAg81zwVINAmCKIyQaBIEUSgxlIYYCWZvvk+1Hz9+PBYtWiT5FHzzzTeYM2eO5MtCW1peOenpmWvL5iv8OA8fPsTTp09x9+5dJCUpltgldCMiIkJv10wJv2a5OaazszNMxQXbdYPvZ2Ki21dMS5cuDXNzc8mXRcmSJWFlZSX51MlpHyXlypWTtgo/9erVw7Vr1yQfX77fFKmpWctMK4mPj0eJEiUkn4IRI0bgjz/+kHz6w2CiOWnSJMyePVvyZWEI0UxLS8OmTZuwe/duHD58GC9fvhTD3d3dERwcLG4T+QOv44IG/z2EhoZKvsLHm+pUNZ4LVPXq1VG/fn00btwY3t7eb/VAeVtyK5pxcXGws7OTfAqKnWhOnjwZs2bNknxZ6Fs0Dxw4gClTpogXzsbGBnXq1IGPj4/4I+I/Jm4REOoURKHTN/zBqny45hZufScnJ0u+7HCh5oKtCbeynj9/LvnUiYyMfG2er9uXk5KSgjt37mSei4WFhfj7//jjj/Hpp5/C3t5eDM8v3kU0//e//+H333+XfHqEi2Z+o22FyW+//VaKVUdfq1FevXqVtWrVij8wmNDsYn/99ReTy+VSLEEUL27evCneA4IQsapVq4r3hSCgbNCgQezs2bNSqrwnt6tRxsbGqqXjbuTIkVKsfjHYQJAh2bZtGxo0aCA+4XgXQVBQEIYNG6bXZglBFCR4s5zfA7y5yy1PQSjRt29fsduqSZMmogsMDJRS6x9Bq6Qtw1PsRs+XLl2Kzz//HB9++KH4w+DdBLxJQhBEFrx/c/Xq1eLg2rx583Dp0iUIVqFocBR3ipVonj59Wuy/5KOgv/76K4RmiBRDEIQ2eJ/mxIkTsXnzZtSuXdtw/YgFiGIjmrxp0alTJ3G6xrFjx0ThJAgid/CWGbcyvby8MHbsWJw7d06KMRyGaq0WG9H8+uuvxZHEjRs3kmASxFvA75vly5ejVq1aWLBgARISEqSY/If6NAX0KZq8Wb5r1y707NlTnFJEEMTbUbNmTYwePVq0Ovfv3y+FFi+KhWguW7ZM/D9t2jTxP0EQb0/z5s1RpkwZcSDVkBS75rm+4JN/T548KU7WJSuTIN4dT09PUTiPHj0qheQ/1DwX0NdT4uLFi3jy5Ak++OADKYQgiHfFwcEBjx49knzFiyIvmsrOaltbW/E/QRDvjpmZmdbXHfVJsWue6+uE+Yg5h0STIPIOmUwmimZGRoYUUnwo8n2aSkuTf4yDIIi8gVuaXDD19fk/bX2aZGnmE9Q8J4i8h1uaHH1/M7UgQM1zgiB0Rvlxm9d9lq6oUiwsTWNjY2qeE0Q+8LovzOcl1DwX0KdocsG0traWQgiCIN6eYtE8p6Y5QRB5RZEXTf6tzOLYWV2Y4MsxHD9+XM3xr+gUx/6ywoYh39Sh5nk+wW9IsjQLLnyNJr76YuvWrdUc/1J4tWrVdF6Hhyia0GuUAvoSTW5l6rrsKqEf+PLIP/zwg+TLDl8JlH/KjyC0QZZmPsFX9yPRLBhwEeQfgq5YsaLo+Gqf/NsAr4Ovj69Mzz9Lxr+8r23FRoLQF8XC0qQF0woG/EPQvDnOxVPp3gQfyFOmvXXrFubMmYP58+dLsYSh0VezmZrnAtQ8L17wvmX+Iei84MiRI9IWQegfg4mmviDRLBhwi/FNzepKlSqha9eub3wRgZrnhCGhPk3C4HCR5IvdPXjwAHv37kVMTAy++uorKZYgChbUPCcMDh8hb9WqleRTvNfs6+uL3r17SyFEQcWQfZr60hBNirxo8tcnw8LCJB9R0OAj4h07dpR86uQUztfiJghDUeRFk0NL9hZceFM8p9kNNWrUkLbUoQnvBIcszXwiJCQE5cqVk3xEQSM0NDTHqUd8ehJBcGjKkYC+RJO/daL8YCpRMOET2G/cuCH5FCxduhR//vmn5FOHmucFh4IkZvqiyIsmF8zY2FjJRxREtm7dil69eolv+3Ch7NevnzgRni+/rA1qnhMcap7nE/wGc3R0lHyEoXjTW1mBgYHi2z4jR47Epk2b6AtHRIGlWAwEEYaH9yv7+PhIvneDT4InihfUpylAoln8mDRp0jt/B8Dd3R1Tp06VfIShMaSYFbvmub6gQYOCA5+sHhQUJL798zaOfxHpzp07onAShKEoFn2aRMGBN9P52z9v43jznn+Jnyh+0BtBAtQ8L5yw+FtY/WkzjNpDb1kRxZMiL5q8eU7WpoLEq3PRwMxIrHuFM4Fd6z9x+01LKLFEPNw1FvUczGBsWxNDtqfCzbkgLyGSgru/tUa5AbtA0p6/0DxNPaJPS5NEUwFLS0KCeRNMWucHPz8/7PDtBdvrx3E3QkrASU/Ai+cJUNXRuNPT0faD3xDi2RMjv56DrecP4JuGJaTYgkga4p5HIuzsHTyTQrKh5TxfR3rCCzxPoAX6ChKGaq0WedHkT0K+cBchISuPBq27oEuXLmjftAYypY/F49bqT+BhawPHMk6o9OFvuBjNRSIGJ9csx2MrT5Q3uowDu/fC/8JDvFLqh2CFBh9dilEdfNCs3w9YeyYUqTw85S5+a2kmWbRGMLGuiA//uAr+mkFq6Ams3qLYRsJFzKxjixbLA/B4XQ9YSemVzrLFclw4OBJlKnyFI9F8h5xgeHVxCXp4WMHUwRuDVoUDwXPQXrCOjUxLo8WPRxHBy6z1PJNzPPZd3h3xiQdsbRxRxqkSPvztIsRqIfQKTTkS4D9KfeDm5oaoqCjJR+RE8u0VGDF8J6z7L8XGxZ/A6sCXaDtwI4ISg3Dt4iuhbR+IwJQ6aF09Bps/b4Huf94WrDSG5/vGokHbr7AztQqcg5bhf81ro8efN5GQFofnUWmwbdAP48ePx/9amWDvV//DujtpCN//M4Z8vR23k5Nx66+vMP16PMJfJMO+2ocYN340Pq5nB2FH9BP2G/1BJVi8jMSzuAi8TJIKq42405jZZwz8k+qjY61U3H8ilFmwJk3rDMAX3ZxwaXpffHcwKofz3IpXWo9dDiErRmD4Tmv0X7oRiz+xwoEv22LgxiDpoIQh0ZeGaFLkRZPPC+RfDSeApEfXcce+Ospn++hTCoIOb8YZ5zH4Y9EX6PvFchxZ3g1x5w7ihmCeiR9Kt+2E33bvwModp+D/VRn8N2ctzsbcxT8zVsBo6B7cOLYeGzb/jj7O8YiISRYq3gZ2gv5Yer2HlvVckBEvKJ55adhZpCAqXLACzaxhErYO474+IzSmOUaw8/kMMxfMxoTuLoDTB/h6wQLMHdcGgk+wSM9jxU8TMGHCN/hl+22FlapCzMk1WP7UBwsOHYff0UvY1F84uMtobNi9Cku3+uPXtlHw9zuHq1rP8xCCymk59qiKuL35DJzH/IFFX/TFF8uPYHm3OJw7eAOqPRrFGerT1CP6Ek3+5XZjY4OdZgEiFjfPXoBdvaook9M3mQUhMxdn9BjBytUDrhlypGWYCA8eQX+GTkD3ijyqJGo2rieI2GNEhgbg3CUHtOlUG6UF4X24cz7WhlujSmUXWAsCWbYs8GzDaPT4dCL+PCkIZUln2Cm/nRJ7Aj8NHIWjzl3Qqb4UlgOWHrVRLTUYB5YvxMKF8zD5o46YLFiNWSQg8NJZvHL7EC1qCidnUgLlvQTxs3SCPe9/EAS8hGoXrLbzfE2T28zaHIrkVnD1cEWGPC3XfaFE3kDNcwF9iaatrS19sIOTcA8nD71Ew671UV4KMi/tApdXN/DouTnK1W+OCo//wkr/UCQnPsDeZesR5dkElStWRJ0Gdnh1MxBPxT7BaNw8dwUyr+aoXs4C1tYJuHP7CV69uoqtay4JCV7hxqPnYv4c6ybfYs/1B7iyYxKavFyHGbvuKCKiDsL/XDlMXL8UnykL9Fo8MesKA0t5gN+ahWLn7qvI6uI0R2kXQSRTXiIhQSjiq5vYv/OBoNincD0wHSzqDPYftUX997zhndN5avvkqnk51G9eAY//Wgn/0GQkPtiLZeuj4NmkMugLrcWXIi+afP2ZuLg4yVdM4YMfG3/G0kAXeMjvwt/fX3QHz99HbMYL3Lz9AKzZVGz+uSzW9nCDpXVlDNxfGT//Nhg1TRzw/re+aHlmJJo16o4uTaqhy+JkfDSlJ6rZN8KHfUrgxrT3YG/fBNNumsLG2hj3FszDtscyeNSuBvnTK/D7+w+s2XECd17ZoWZF5aCcBRrM2IypLV6/iFoWYfj7h+H4rEtXTD0jQ/kabigpxQimJMq1749OEQvwQbO2aF63DaZdFxr9cfsxrHkztGrVF+tsP8XoDhVhm+N5SlmpYYtmUzfj57Jr0cPNEtaVB2J/5Z/x2+CaKO4LqKSkpIj/i2UrTjB7851x48YxQSTV3Lp166RYdbSlFS6MFKs7gwcPZoK1KfmKKfEX2PRq4O0b7a7Up2zXU54wjcVH3mWXrt5nUfFp4q4KMljC47Ps75/Hs/FTljD/Oy+ElFLMy4vsr4HvMa9qTdmgFVfY86BN7GOn8mzs4UgWtLxt1jFMHFnjCXtZcJqcBa/tzhwazGLnX/EcYtiB/5VhVaedZfFijsnsztJWrMwHG9gj0c+YPHgt625jz9y8vJiXV03Wbco2dkvcV5UUFnL8VzbwPS9Ws9toNq6LK4NDS9b7g9qsWssxbIPaDjmdZ/Zji6TFs8i7l9jV+1FMLXkxht+n/LomJCRIIW9H3bp11e51MzMzKUadsLAwtXTcTZo0SYrVL0VeNEePHi1e3OjoaCmkGJIcwHwby1jDpQFSQBZRmz5g8JzFrkj+vCQjOYZFRsVnCqz+iGcXplfLt/MiGBs1apR4X6Wmpkohb0duRTM0NFQtHXeTJ0+WYvVLsejT5PC1aIot5p74cNpCjH7PVQrIwtylEjysLWAm+fMSI3N7ODlaG6Apaw6n8u6wcSkFKymEyFt485x/B+Bdv1pVGCkWfZqcYi2akKF8xy/wad3sb/HYNp+Lh9fHwVvyFw1MUWHwPsSdHI4qUgiRtyhFU1/3sTYMdWwSTYIgdIaLpqWlpeTLf4RWsbRleKh5ThCEzuhbNAsSRV40lR+sffz4sfifIIh3pyCIJjXP85liP1eTIPIQMzMzJPA3CYohRV40y5QpI/5/+vSp+J8giHcnPDxcrwvcUZ+mgL5E08nJSZwWQaJJEHkHHyOw419kMSDUPM8nSpUqJQpnRAR9l4Yg8gr+Ye8Sal9BKT4Uiz5N3kQnS5Mg8gYumNzp09LU1jwvdpamPuGiyS3NZ89yXPyAIIhcwgWTi5ihm+eGolhYmrx5np6eTtYmQeQByjW3qHmuZ/TdPOdQvyZBvDtK0aSBID2jzxNu1qwZ6tSpg3PnzkkhBEG8Lc+fPxfvJ0P3aRqKYiGanTt3RqNGjbB48WIsX75cCiUIQlf4eltff/21+LGO3r17S6HFi2Ihmnye5pdffolatWrhl19+wZYtW6QYgiB04ccff0RwcDB8fX2lEMNBzfN8xtvbG/PmzRPXCxo6dCjWrFkjxRAEkRsOHz6MRYsWYdCgQWjcuLEUqh+oeS5giKeEj48Prl69KvbHDB48GN26dUNoaKgUSxBETixduhSdOnUS7x1ufBRnipVocsqVK4djx45h8uTJOHDgAKpVq4aRI0fi0iW+kiJBEKokJyeLBsbo0aPRsWNH8d5xdHSUYosnxU40ObyPc/bs2bhz547Y1OBN9QYNGohuzpw54ig7/7EQRHGFT8/7/vvv4ebmJt4ffExg586dmR/1Ls4YMT10FowfP17sC1Fl37594pNLE21pucDyyen5BZ9CwZsfu3fvxrVr18QwPjrYsmVLlC1bVvRrYm9vn+OUCx7HnTZeF6cJF3duGb8t/BycnWmFbuL1pKWlITAwEHfv3hXd5cuX4efnJxoO/B6dNGkSWrVqJaXOW+rVq5d5z3H4bz41NVXyZREUFARPT0/Jp+CHH37A9OnTJZ/+INHUgE/cPX78OE6cOIELFy6In8DicGHl0y2KMlxgudDmBm5x6NJMU34MmsiCj0K/K++aBxdMzX59fl35vTlhwgSxDzM/IdHMAW1CuH//fnTo0EHyZWFo0dSVnAaSEhMTER0dLfmyExUVJX79OrfwT3Hl1Udfw8LCpK3coWtZ+QwF7vITXctUkHFwcIC1tbXkyx38AccFJreYm5ujdOnSki8LXoc8vEKFCqhcuTKqVKkilkdfFEbR5EP5+Y62tcwPHjwoxaqT1+ueEwRRcMntuucPHz5US8edIJhSrH4plgNBBEEQbwuJJkEQhRJDaQiJJkEQhA6QaBIEUeBh9BoliSZBEO8GNc8JgiAKASSaBEEUeKh5LkCiSRDEu0DNc4IgiEKAwUSTIAgit2hrnpOlSRAEUQgg0SQIgtABEk2CIAol1DwnCILIAZpyJECiSRBEYYREkyAIQgcM9uV2vnhZw4YNJV8Whe3L7UUN/rV5/iVt/kX6hw8fil+M51/9zg38a+ImJiaSL2dKlCghunchpy+R6wL/TSnLy9diepf1mIi3I7dfbr937564cqwqM2bMwLfffiv59AgXzfxG29fYL1y4IMWqQ19uNyz//PMPf4gWC+fk5JS57evrK9UAoU9y++X2u3fvqqXjbtasWVKsfjGYpckXLfPx8ZF8WZClaVj+++8/NGvWTFwXvnfv3ihVqpQU82a4dcoX6noT+blInS55Z2RkICQkRFyili8o5+3tjQ0bNsDLy0tKQeQ372Jpzpw5E1OmTJF8ekSUznxGm/V46dIlKVYdsjQNy+nTp5nQzGY//fSTFFK0+ffff8Xfl42NjXjeZ86ckWIIfVAYLU2DDQQRBRNu0UdEROh1RUJDIpfLRYuTW6f8vC0tLaUYoiAhaJW0lYUgnNKWfqHRc0INmUwm/k9OThb/50haOI793A2e9ibCtbRGpd4LcOrpm5vmBQ3BypS2FNDvkngTJJqEGkLzSPz/WtFMe4T1H9dEx/W2+OKPXfDzW4sx1n+hY7f5uByf713keUpuRvuJgglZmkSBIDeWZvzp3/DNjc9x5MJ6jO/XDV269MKYlfuw0vskjt1LEUV158iasDU2gpHMDf3W3UUi19JXl7CoixushHDrWhNxMCzLMg3b0hslhN8E/11w5zzuGBKkuLT4R7hwwB/+pwIQnSqJ8sWfUYHnr7KP7L1fcfnwZFT8cD3CczluSKJZONDWPDcUJJqEGso5mTmLZjzO71gLr/HD0KiEyjU09UDfNfswsb4prv/aG58ea4x5O/3g90d33Pjf//D3/VTcWDEY30YOxO47AVjffBc+nXVMyE1BfHQErIZsxcOwMFz5vT3in70E171X//2ExrW+xIEXGYg5/S2aVv0E6+4mgtUdh8tC2rD941C6/CdYsssPR1YPRl1bGZIfhuCZXJHvm9D8HdLvkngTJJqEGm+2NKMR+TgZrs5OUDTkNQnA4TUh+HTRPIzo0QVdhk7C1HaXsfnoE5iVex+zFo+EW+Qd3HkcA/uStlDYeWl4/jgQrtWqwNXFBSaJ4bC0txF+nA+w7fs/UP/3Dfi+fzd82v8jVI7ajnWnniLN1AaOZV3g4mADE/uaaNahC5pXKaH4Qb+8idMHBcvU/xQColPFiZhE0cNQGkKiSajx5j5NE5iaGUEuT9MQo0ic+u13HIuMx6vnLqjobAHFFXZBherWiHkVj4ofL8RXlW/At09vfOtvjVYN3SThfYibp4DGtSuC27lJr57Dxa00TMOuYv+l5mjb0E7MK/7BOZyJr4Y2DVxzEGyJJxswfvAXGD20A7yrj4RfRO7n+NLvkngTJJqEGkpLMyUlRfyfHVfU7eSDA3OX44rKoE/a3Z34fsq/CE+vhMbdI7DJ7xbE6Fdn4LfDBG0aVUT0lfN4aNUJyyJTEeXXCTu+XIJziUKaJ5ex/3ZbtPOxFvPKJD0NchaKCLGtHYmj/2zCC7zEy/gMRXxO1JqNC+HBeBRxG2vqbcams8re0TdDv8uCCfVpCtCPs2CSm4Egr89W4I8K89DyvcFYuHEv/P/5AR2af4X4b79Dj7JOaD/pTzTZ/D7cK3rBs0o3rG++FBOaP8P+ia3RdKAvdvkfxO59pxHv6gJHU+DBvytwpkNn1Eh6ivDwcMTEp+NlxAsklmuA7g2uYeL7HdHtPW98sKYsmjaPx/Lf9iAoOYebyNIOjuFncGi/0Dz/ZwX++s8WTvY02FMUMZiG8Bnu+Y22t3xu374txapDbwQZlsREcZybde3aVQrJAXkUu7JxJhvcoQar0/FL5nvgPkvIkOI48jgWFR7GwiJeshQpXP5wB/uyfklmDDPm4DOKbb2bwDIuz2KVjLPeB89ytdjsq0mZ+5g7+LCJfsEsKeY0+75mIzbvRrIi0ws/Mc/2y1lgqsLLQjezXk42zEbI08yhGus1/yQLl0txWjh27JjacW/duiXFEPogt28Ecb1QTcfd3LlzpVj9YjDRDAgIkGLVIdE0LGlpaczExIS1a9dOCslnzn3PnGvNZoI+qnCOfe+sEM38hkTTsORWNPl1UU3H3bx586RY/ULNc0INPm+RTzt6XfM8T7FxxXttvOGsNrJjA0dXS5ia0G+EKHgYTDSJgovw9Ndfx3uNEdju2xXOat2ONTDm0jlMrJm773jqCn8gBAcHi98LjYyMFN83d3R0RNWqVZGUlCSlIgjtGOzTcHfu3EGVKlUkXxb0aTjDU7FiRbx69Qqenp5qn3pT/eRaYmKi+KELDhead70+/Geo2vqwsbGRtgBra+vMOP4JN/75MFX4SD//8IayHJqfhlPGa8LFUlMkb9++jerVq0s+Ir/J7afh+HWpWbOm5FMgNM8xYcIEyadHuGjmN9r6Ke/duyfFqkN9moanWrVqav18RdUJApwtLKcBSiJ/yG2f5s2bN9XScTd//nwpVr9QnyaRjW+++QarV6+Gra2tFFI0edclN4jiicGa5/fv30elSpUkXxbUPC84tGrVCidOnJB8eQtvfvN+RG3wtXo0m+C5Jbdfj+fY2dmJ3RCqHDp0iL7crkdy2zy/desWatWqJfkUGKp5bjDRfPDggdhnpgmJZsGBL6qm+mYQH1XX1kLgI+7K1y81yWkfguDkVjSF5jlq164t+RQYSjSpeU7kCP96O19hUum4397ePpvjzXg+QKPN0XUm8gtD/bZINAmCIHTAYKKZkJD7jygQBEEUFAwmmqrz8AiCIF6HtqGXYtc8JwiCKIyQaBIEQegAiSZBEAUeap4TBEEUUkg0CYIolJClSRAEUQgg0SQIosCjrU9TD2+Aa0UvosnnZPLX8PiHEPj7o23atMnxgww8jbe3N9zd3eHk5CS+okdvDxFE0aRMmTKZX9MyNjaGlZWVuK1JqVKlUKFCBfHLVFw7uJ5o+0aqPtCLaPKPwkZERIgf6bh+/TqOHj2a45doeBr+RRP+Ze1nz54hLi7OYE8UgiDyF/7lfH6Pc/hHrfnHrbXx/PlzPH78GLGxsaJ2cD1Rrpyqb6h5ThBEocRQLVCDfRru0aNHYhNck5w+DdeyZUvJ93bwr/G8fPlS8hEEkZfwTwCqfkYwt/DPwqnelzl9Gu7KlSvw8fGRfAq4TowZM0by6REumvmNtiUsgoKCpFh1tKXNC1ehQgWt4eTIkXt3Z2trqzVcV5fTcheXL1/Olnbx4sVSrH4pUM3zu3fvYteuXZIvbwkJCZG2CILIa3Lqi8wrBK2StgxPgRJN4ckhDgDlBwWp0gmiqKFcmVSfCNamtKVfCpRotmjRQpx2kB/wqQ0EQeQPrq6u0ta7kZNxU5CMngI3EPT777/jyy+/FLf5nKy8WhGxatWq4lQmQ8LXOTL0xefHz+3CY/lJQSmDoa8H/00YwkrLa/giiYGBgZLv7eCDQHzxtEuXLkkhWfCwhg0bSj4FvGWq1Ap9UuBEMzk5WUzL+0j4fnzUmyCI/IPfc3ze47vABe9dH4SvW4X04sWLaNSokeRTQKJJEASRA9pEc8mSJfjiiy8kn/6gye0EQRR4DN2NogqJJkEQhRIaPScIgsgBsjQJgiDeEbI0CYIgcoAsTYIgiHeELE2CIIgc0GZpkmgSBEEUAkg0CYIolJClSRAEkQM0EEQQBPGOkKVJEASRA2RpEgRBFFJINAmCKPCQpUkQBPGOUJ8mQRBEDtDkdoIgiEIKiSZBEAUesjQJgiAKKbRGUDFBdfGs/7d376E1/38cwF99l8vmfhtSRK5zl+uITUKKkJBWLrHFHyjyB6IkiZoSQ7mFEP5w+QslJOY2M7mXcvtjuTOE6NfzfV6f3z77OHPOZ+fs/Tk7ez7qtPfrbDvmbOd13u/X533BR8Refs+cx0Far1+/1ig6X79+lbdv32oUvTZt2ki9evU0ih6+B99bFfi++vXra1QR7sfn//U1FD+XLl2S7OxsjUJ27NgheXl5GtnDpJmErly5IoWFhXL16lVzrCqSZFUSFUWnZcuW5ojofv36SWZmpowZM8bcR/ETLmnm5+fL0qVLNbKHw/MkcvToUcnIyJCRI0fKihUr5OTJk+asdybM6oXnF29U27Ztk1mzZkn79u1l/fr1CXG2e7Jo166dtsp9//5dW3axp5kkdu/eLbm5uRr9mzO09PL7+8AZ1Tir2o+GDRtKixYtNIpeaWlp2JJCJLGc6f3q1auwiQ9JsqysTKPKzZkzR/bu3asRxeL69esybNgwjUJWr14t69at08geJs0kgBd2enq6fPz4Ue8RGTp0qGRlZZmeZ+fOnU2SxJARSYviBwkUtWCUQS5fviwnTpyo0LMvKioyw3aKTUlJyV/P47Jly2Tz5s0a2cPheRLAi9adMNG7QT1zw4YNkpOTYxIo3qCYMOMPb0QDBw6UmTNnSkFBgekMuOuZKI9Q7FJTU7VV7tu3b9qyi0kzCSAhuofbGKZPnTrV9O6Li4v1XqpO6F2il4maprunySvr8ZGWlqatcqxpUkx27twpixcvDluDwwsXzzWG6fjYqVMnadq0qfmce8qM9/eBeiXqlrWFt4bpxLihDUiImDb16dMnUyvF7dGjR2Hrpnj+MKx0nmuquvfv3/81I2HGjBly5MgRjexh0kwiuIK7aNGiahsSepNoNHFKSopGoSugfr6/siTmQPz792+NxMwZjfT1/4rjCfW3Y8eOmTcqih16lSgvudPVxIkT5dSpUxrZw6SZhDAkP3z4sFy8eNG0qysxUEVIkKgfY4g+fvx4vZfiBUnTXcfEfNhz585pZI+VpLlx40ZZuXKlRiFMmnZgyg0SJ67uPnnyxPSuMJTE/d6elt8VQcnO3fN12hhq44ahYvPmzc3fMG5ImN7hI8VXq1at5N27dxqJjBgxwsxYsM1K0ty6detfM/eZNBOfN4lGip8/f66tEG/s9/EiDd/DxbGUA7wxJRYsGsAbvWPu3LmyZ88ejeyxkjSxUgVDFrcbN26YqRpERNEYPHiw3Lp1SyOR5cuXy6ZNmzSyx8qUo169emmr3OfPn7VFRBRZ3bp1tRVSlZVl8WAladapU+ev//CLFy+0RUQUmXeXq6DmwFpJmt26dZM+ffpoFPLlyxdtERFF5k2a4TbxsMHaiqDevXtrK+Tp06faIiKKzL1hC2YweDfwsMVa0vT+Bx8/fqwtIqLI3Dmja9euyd/TxERUt/Pnz1d5yy4iql3u3r1bIV+MHj1aW/ZZS5qYAzd8+HCNQrBihYgoEqz8cc+OnDRpkrbss5Y0MWl41KhRGoUEMZufiGqe/fv3a0ukUaNGZrlqUKwlTcBO1m737t3TFhFReFj18/DhQ43E7F0aJCsrghw/fvwwq4Du379vYsyzwo482KqMiMgLuxv17Nnz/0ts27ZtKw8ePJAmTZqYOAhWe5qYZzV79myNQlMILly4oBERUUUYlrv3JJg+fXqgCROs9jQB0wZwQQibikL//v3l9u3bpk1E5Dh+/LjZs8LZMxXLJpFAGzRoYOKgWO1pAlYHYfNQx507d+TMmTMaERGJnD17VhYuXFhhk+lVq1YFnjDBek8TsBoIm3j8+vXLxJikiiNox40bZ2Iiqr0wH7Nv377y5s0bvUdkwYIFsmvXLo2CZb2nCV26dDEHfzlwTAHeVbz7KRJR7XLo0CEzncidMLHB8/bt2zUKXiBJE9auXSv//Vf+zyNhTpkyRfbt26f3EFFtghrm/PnzK+yA1qFDB3MOUCJtDh1Y0uzevbvZRNQNS6Xy8vLM0Rjuc7yJKDmhZonzrLDCB6dL/vz5Uz8TmsR+8OBB6dGjh96TGAKpaTow5SgjIyPssBy7mCxZssTceAQqUXIpKyszp6du2bLF7EPhhfncBQUFCXm6Q6BJEwoLC2Xs2LHmSQwHhyllZWWZW3Z2tumhUnTieUQtev7x6v3jZ3Kf9RIrXDjAwol4wJnmONs8Xqpap3cOcIsE59Z795kMB8PcSLDYBI8XSbifDcPncH9rzu/a+YjD/bDnBI6tqOxvc9q0aeYwxkRd9BJ40gS840yYMKHSxOlIS0uTAQMGmEJxZmameRfCL9l5AaLn6t4JBY/nvACQfJ3isnPgvxdeeJXtvFTZHz8eK9LPHS3vz09UU2Drx2vXrmlUNbjGkZubK/n5+YHtyh6NhEiagMQ5b948c9RsdYjHL5WIwhs0aJDcvHlTI/9ycnJkzZo15kp5ogvsQpAXzjAuKSkxV9Wr4/zoDx8+aIuI4q0qpRsM6SdPnixFRUVy4MCBGpEwIWF6mm6odaDucfr0aSkuLjabesRaT2vcuDFPwCSqJs2aNYvYMUF5bciQIaa85nxMT0/Xz9YcCZk0w0E90r2kCrCi6OXLl1JaWirPnj0zk+QdKSkppo7pcBeqcb97jqijdevW2irnfZxEEe75sAU13HA1YRv+/PlTYeKzbdgzwT0thkJw4qyzwg/wmklNTTXJFB0WtLGEumPHjvoVNVeNSZpERIkgYWqaREQ1AZMmEZEPTJpERD4waRIR+cCkSUTkA5MmEZEPTJpERD4waRIR+cCkSUTkA5MmEZEPTJpERD4waRIR+cCkSUTkA5MmEZEPTJpERD4waRIR+cCkSUTkA5MmEZEPTJpERD4waRIR+cCkSUTkA5MmEZEPTJpERFET+R/DJqIgT7hNeQAAAABJRU5ErkJggg==;" parent="WIyWlLk6GJQsqaUBKTNV-1" vertex="1">
          <mxGeometry x="513.24" y="339.49" width="177.14" height="338.85" as="geometry" />
        </mxCell>
        <mxCell id="OF0bnibXMQKsjCnrB5dy-11" value="Введены данные&amp;nbsp;" style="text;html=1;align=center;verticalAlign=middle;resizable=0;points=[];autosize=1;strokeColor=none;fillColor=none;" parent="WIyWlLk6GJQsqaUBKTNV-1" vertex="1">
          <mxGeometry x="694.75" y="455" width="116" height="26" as="geometry" />
        </mxCell>
        <mxCell id="OF0bnibXMQKsjCnrB5dy-12" value="" style="endArrow=classic;html=1;rounded=0;exitX=1;exitY=0.25;exitDx=0;exitDy=0;entryX=1;entryY=0.5;entryDx=0;entryDy=0;" parent="WIyWlLk6GJQsqaUBKTNV-1" edge="1">
          <mxGeometry width="50" height="50" relative="1" as="geometry">
            <mxPoint x="673.24" y="469.2824999999998" as="sourcePoint" />
            <mxPoint x="673.24" y="518.7149999999999" as="targetPoint" />
            <Array as="points">
              <mxPoint x="697.98" y="468.85" />
              <mxPoint x="697.98" y="518.85" />
            </Array>
          </mxGeometry>
        </mxCell>
        <mxCell id="OF0bnibXMQKsjCnrB5dy-13" value="Нажата кнопка&lt;br&gt;&quot;Создать&quot;" style="text;html=1;align=center;verticalAlign=middle;resizable=0;points=[];autosize=1;strokeColor=none;fillColor=none;" parent="WIyWlLk6GJQsqaUBKTNV-1" vertex="1">
          <mxGeometry x="612" y="669" width="100" height="41" as="geometry" />
        </mxCell>
        <mxCell id="Lj6lZf5Y8X2NczqevbBV-0" value="" style="endArrow=classic;html=1;rounded=0;exitX=1;exitY=0.5;exitDx=0;exitDy=0;entryX=0;entryY=0.5;entryDx=0;entryDy=0;" edge="1" parent="WIyWlLk6GJQsqaUBKTNV-1" source="OF0bnibXMQKsjCnrB5dy-9" target="OF0bnibXMQKsjCnrB5dy-10">
          <mxGeometry width="50" height="50" relative="1" as="geometry">
            <mxPoint x="340.01" y="396" as="sourcePoint" />
            <mxPoint x="390.01" y="346" as="targetPoint" />
          </mxGeometry>
        </mxCell>
      </root>
    </mxGraphModel>
  </diagram>
</mxfile>
